<?xml version="1.0" encoding="utf-8"?>
<!-- Generated by IcoMoon.io -->
<!DOCTYPE svg PUBLIC "-//W3C//DTD SVG 1.1//EN" "http://www.w3.org/Graphics/SVG/1.1/DTD/svg11.dtd">
<svg version="1.1" xmlns="http://www.w3.org/2000/svg" xmlns:xlink="http://www.w3.org/1999/xlink" width="32" height="32" viewBox="0 0 32 32">
<path fill="#007aff" d="M14.615 20h-2.871l1.436-1.205c1.253-1.021 1.82-1.619 1.82-2.732v-0.020c0-1.263-0.931-2.113-2.316-2.113-1.112 0-1.749 0.425-2.325 1.142-0.091 0.111-0.142 0.253-0.142 0.384 0 0.313 0.252 0.566 0.566 0.566 0.203 0 0.344-0.091 0.435-0.192 0.434-0.525 0.829-0.788 1.395-0.788 0.647 0 1.142 0.405 1.142 1.102 0 0.637-0.354 1.091-1.324 1.91l-2.174 1.85c-0.213 0.172-0.323 0.32-0.323 0.563 0 0.364 0.283 0.532 0.667 0.532h4.014c0.303 0 0.546-0.197 0.546-0.5s-0.243-0.5-0.546-0.5z"></path>
<path fill="#007aff" d="M19.5 18.5h-2.166l2.166-2.8v2.8zM21.398 18.5h-0.398v-3.973c0-0.334-0.347-0.598-0.68-0.598-0.364 0-0.61 0.14-0.832 0.403l-3.326 3.94c-0.182 0.212-0.273 0.41-0.273 0.652 0 0.343 0.273 0.576 0.607 0.576h3.006v1.072c0 0.334 0.416 0.587 0.75 0.587s0.75-0.253 0.75-0.587v-1.072h0.398c0.293 0 0.515-0.212 0.515-0.495s-0.223-0.505-0.515-0.505v0z"></path>
<path fill="#007aff" d="M26 26c0 0.276-0.224 0.5-0.5 0.5h-19c-0.276 0-0.5-0.224-0.5-0.5v-17.5c0-0.275 0.224-0.5 0.5-0.5h3.5v0.947c0 0.828 0.673 1.5 1.5 1.5s1.5-0.672 1.5-1.5v-0.947h6v0.947c0 0.828 0.673 1.5 1.5 1.5s1.5-0.672 1.5-1.5v-0.947h3.5c0.276 0 0.5 0.225 0.5 0.5v17.5zM11 6.5c0-0.276 0.225-0.5 0.5-0.5s0.5 0.224 0.5 0.5v2.447c0 0.276-0.225 0.5-0.5 0.5s-0.5-0.224-0.5-0.5v-2.447zM20 6.5c0-0.276 0.224-0.5 0.5-0.5s0.5 0.224 0.5 0.5v2.447c0 0.276-0.224 0.5-0.5 0.5s-0.5-0.224-0.5-0.5v-2.447zM25.5 7h-3.5v-0.5c0-0.827-0.673-1.5-1.5-1.5s-1.5 0.673-1.5 1.5v0.5h-6v-0.5c0-0.827-0.673-1.5-1.5-1.5s-1.5 0.673-1.5 1.5v0.5h-3.5c-0.827 0-1.5 0.673-1.5 1.5v17.5c0 0.827 0.673 1.5 1.5 1.5h19c0.827 0 1.5-0.673 1.5-1.5v-17.5c0-0.827-0.673-1.5-1.5-1.5v0z"></path>
</svg>
