<?xml version="1.0" encoding="utf-8"?>
<!-- Generated by IcoMoon.io -->
<!DOCTYPE svg PUBLIC "-//W3C//DTD SVG 1.1//EN" "http://www.w3.org/Graphics/SVG/1.1/DTD/svg11.dtd">
<svg version="1.1" xmlns="http://www.w3.org/2000/svg" xmlns:xlink="http://www.w3.org/1999/xlink" width="32" height="32" viewBox="0 0 32 32">
<path fill="#007aff" d="M26 26c0 0.276-0.224 0.5-0.5 0.5h-19c-0.276 0-0.5-0.224-0.5-0.5v-17.5c0-0.275 0.224-0.5 0.5-0.5h3.5v0.947c0 0.828 0.673 1.5 1.5 1.5s1.5-0.672 1.5-1.5v-0.947h6v0.947c0 0.828 0.673 1.5 1.5 1.5s1.5-0.672 1.5-1.5v-0.947h3.5c0.276 0 0.5 0.225 0.5 0.5v17.5zM11 6.5c0-0.276 0.225-0.5 0.5-0.5s0.5 0.224 0.5 0.5v2.447c0 0.276-0.225 0.5-0.5 0.5s-0.5-0.224-0.5-0.5v-2.447zM20 6.5c0-0.276 0.224-0.5 0.5-0.5s0.5 0.224 0.5 0.5v2.447c0 0.276-0.224 0.5-0.5 0.5s-0.5-0.224-0.5-0.5v-2.447zM25.5 7h-3.5v-0.5c0-0.827-0.673-1.5-1.5-1.5s-1.5 0.673-1.5 1.5v0.5h-6v-0.5c0-0.827-0.673-1.5-1.5-1.5s-1.5 0.673-1.5 1.5v0.5h-3.5c-0.827 0-1.5 0.673-1.5 1.5v17.5c0 0.827 0.673 1.5 1.5 1.5h19c0.827 0 1.5-0.673 1.5-1.5v-17.5c0-0.827-0.673-1.5-1.5-1.5v0z"></path>
</svg>
