<?xml version="1.0" encoding="utf-8"?>
<!-- Generated by IcoMoon.io -->
<!DOCTYPE svg PUBLIC "-//W3C//DTD SVG 1.1//EN" "http://www.w3.org/Graphics/SVG/1.1/DTD/svg11.dtd">
<svg version="1.1" xmlns="http://www.w3.org/2000/svg" xmlns:xlink="http://www.w3.org/1999/xlink" width="32" height="32" viewBox="0 0 32 32">
<path fill="#007aff" d="M7 10c-0.827 0-1.5 0.673-1.5 1.5v12c0 0.827 0.673 1.5 1.5 1.5h18c0.827 0 1.5-0.673 1.5-1.5v-12c0-0.827-0.673-1.5-1.5-1.5h-4.454c-0.174 0-0.334-0.089-0.425-0.237l-0.959-1.552c-0.276-0.445-0.753-0.711-1.276-0.711h-3.77c-0.524 0-1.001 0.266-1.276 0.711l-0.959 1.552c-0.091 0.148-0.252 0.237-0.425 0.237h-4.455zM25 26h-18c-1.378 0-2.5-1.122-2.5-2.5v-12c0-1.379 1.122-2.5 2.5-2.5h4.176l0.813-1.314c0.459-0.742 1.254-1.186 2.127-1.186h3.77c0.873 0 1.668 0.443 2.127 1.186l0.813 1.314h4.176c1.378 0 2.5 1.121 2.5 2.5v12c0 1.378-1.122 2.5-2.5 2.5v0z"></path>
<path fill="#007aff" d="M16 12c-2.757 0-5 2.243-5 5s2.243 5 5 5c2.757 0 5-2.243 5-5s-2.243-5-5-5zM16 23c-3.309 0-6-2.692-6-6s2.691-6 6-6c3.308 0 6 2.691 6 6s-2.692 6-6 6z"></path>
<path fill="#007aff" d="M23 13h1v-0.5h-1v0.5zM24.5 14h-2c-0.276 0-0.5-0.224-0.5-0.5v-1.5c0-0.276 0.224-0.5 0.5-0.5h2c0.276 0 0.5 0.224 0.5 0.5v1.5c0 0.276-0.224 0.5-0.5 0.5v0z"></path>
<path fill="#007aff" d="M10 8.5h-2c-0.276 0-0.5-0.224-0.5-0.5s0.224-0.5 0.5-0.5h2c0.276 0 0.5 0.224 0.5 0.5s-0.224 0.5-0.5 0.5z"></path>
<path fill="#007aff" d="M16 15c-1.103 0-2 0.897-2 2s0.897 2 2 2c1.103 0 2-0.897 2-2s-0.897-2-2-2zM16 20c-1.655 0-3-1.346-3-3s1.345-3 3-3c1.654 0 3 1.345 3 3s-1.346 3-3 3z"></path>
</svg>
