<?xml version="1.0" encoding="utf-8"?>
<!-- Generated by IcoMoon.io -->
<!DOCTYPE svg PUBLIC "-//W3C//DTD SVG 1.1//EN" "http://www.w3.org/Graphics/SVG/1.1/DTD/svg11.dtd">
<svg version="1.1" xmlns="http://www.w3.org/2000/svg" xmlns:xlink="http://www.w3.org/1999/xlink" width="32" height="32" viewBox="0 0 32 32">
<path fill="#007aff" d="M7 10.5c-0.827 0-1.5 0.673-1.5 1.5v12c0 0.827 0.673 1.5 1.5 1.5h18c0.827 0 1.5-0.673 1.5-1.5v-12c0-0.827-0.673-1.5-1.5-1.5h-2.683c-1.274 0-2.341-0.914-2.538-2.173-0.119-0.769-0.771-1.327-1.55-1.327h-4.458c-0.778 0-1.43 0.558-1.55 1.327-0.197 1.259-1.264 2.173-2.538 2.173h-2.684zM25 26.5h-18c-1.378 0-2.5-1.122-2.5-2.5v-12c0-1.379 1.122-2.5 2.5-2.5h2.684c0.778 0 1.43-0.558 1.55-1.327 0.197-1.259 1.264-2.173 2.538-2.173h4.458c1.274 0 2.341 0.914 2.538 2.173 0.119 0.769 0.771 1.327 1.549 1.327h2.683c1.378 0 2.5 1.121 2.5 2.5v12c0 1.378-1.122 2.5-2.5 2.5v0z"></path>
<path fill="#007aff" d="M16 13c-2.206 0-4 1.794-4 4s1.794 4 4 4c2.206 0 4-1.794 4-4s-1.794-4-4-4zM16 22c-2.757 0-5-2.243-5-5s2.243-5 5-5c2.757 0 5 2.243 5 5s-2.243 5-5 5z"></path>
</svg>
