<?xml version="1.0" encoding="utf-8"?>
<!-- Generated by IcoMoon.io -->
<!DOCTYPE svg PUBLIC "-//W3C//DTD SVG 1.1//EN" "http://www.w3.org/Graphics/SVG/1.1/DTD/svg11.dtd">
<svg version="1.1" xmlns="http://www.w3.org/2000/svg" xmlns:xlink="http://www.w3.org/1999/xlink" width="32" height="32" viewBox="0 0 32 32">
<path fill="#007aff" d="M13.142 22.807c0.075 0 0.152 0.017 0.223 0.052 1.064 0.529 2.21 0.798 3.404 0.798 4.235 0 7.68-3.464 7.68-7.721s-3.445-7.722-7.68-7.722-7.68 3.464-7.68 7.722c0 1.122 0.233 2.201 0.694 3.212 0.015 0.034 0.027 0.070 0.035 0.107 0.018 0.090 0.393 2.042-1.337 4.218 0.47 0.061 1.082 0.119 1.711 0.119 1.249 0 2.152-0.224 2.61-0.65 0.095-0.088 0.217-0.134 0.341-0.134zM16.769 24.657c-1.243 0-2.439-0.257-3.56-0.764-0.672 0.464-1.684 0.698-3.017 0.698h-0.001c-1.436 0-2.74-0.271-2.795-0.282-0.18-0.038-0.325-0.171-0.377-0.347s-0.004-0.366 0.126-0.496c1.885-1.886 1.744-3.646 1.699-3.965-0.502-1.123-0.756-2.323-0.756-3.565 0-4.809 3.893-8.722 8.68-8.722s8.68 3.913 8.68 8.722c0 4.809-3.893 8.722-8.68 8.722z"></path>
</svg>
