<?xml version="1.0" encoding="utf-8"?>
<!-- Generated by IcoMoon.io -->
<!DOCTYPE svg PUBLIC "-//W3C//DTD SVG 1.1//EN" "http://www.w3.org/Graphics/SVG/1.1/DTD/svg11.dtd">
<svg version="1.1" xmlns="http://www.w3.org/2000/svg" xmlns:xlink="http://www.w3.org/1999/xlink" width="32" height="32" viewBox="0 0 32 32">
<path fill="#007aff" d="M18.667 27.5c-2.607 0-5.091-1.247-6.649-3.352l0.804-0.599c1.39 1.878 3.52 2.951 5.844 2.951h0.015c1.133 0 2.218-0.25 3.226-0.755 0.186-0.093 0.411-0.058 0.563 0.084 0.796 0.735 2.753 0.671 4.053 0.502-1.629-2.064-1.278-3.913-1.261-4 0.008-0.037 0.019-0.072 0.035-0.106 0.435-0.959 0.654-1.983 0.651-3.046-0.004-2.046-0.826-3.941-2.314-5.338l0.685-0.729c1.666 1.565 2.625 3.775 2.629 6.065 0.003 1.184-0.237 2.328-0.713 3.399-0.041 0.299-0.171 1.965 1.617 3.745 0.13 0.13 0.178 0.32 0.127 0.496s-0.196 0.309-0.375 0.348c-0.407 0.087-3.84 0.763-5.537-0.389-1.065 0.483-2.202 0.723-3.384 0.723h-0.017z"></path>
<path fill="#007aff" d="M10.142 20.807c0.075 0 0.152 0.017 0.223 0.052 1.064 0.529 2.21 0.798 3.405 0.798 4.234 0 7.679-3.464 7.679-7.721s-3.445-7.722-7.68-7.722-7.679 3.464-7.679 7.722c0 1.121 0.233 2.201 0.694 3.212 0.016 0.034 0.027 0.070 0.035 0.107 0.019 0.090 0.393 2.042-1.337 4.218 0.47 0.061 1.082 0.119 1.711 0.119 1.25 0 2.151-0.224 2.609-0.65 0.095-0.088 0.217-0.134 0.341-0.134zM13.769 22.657c-1.243 0-2.44-0.257-3.56-0.764-0.672 0.464-1.684 0.698-3.017 0.698h-0c-1.436 0-2.74-0.271-2.795-0.282-0.18-0.038-0.324-0.171-0.377-0.347s-0.004-0.366 0.126-0.496c1.886-1.886 1.744-3.646 1.699-3.965-0.502-1.123-0.756-2.322-0.756-3.565 0-4.809 3.893-8.722 8.68-8.722s8.68 3.913 8.68 8.722c0 4.809-3.893 8.722-8.68 8.722z"></path>
</svg>
