<?xml version="1.0" encoding="utf-8"?>
<!-- Generated by IcoMoon.io -->
<!DOCTYPE svg PUBLIC "-//W3C//DTD SVG 1.1//EN" "http://www.w3.org/Graphics/SVG/1.1/DTD/svg11.dtd">
<svg version="1.1" xmlns="http://www.w3.org/2000/svg" xmlns:xlink="http://www.w3.org/1999/xlink" width="32" height="32" viewBox="0 0 32 32">
<path fill="#1786ff" d="M16.244 5c-2.872 0-5.572 1.118-7.601 3.149-4.191 4.191-4.191 11.011 0 15.203 2.030 2.030 4.73 3.148 7.601 3.148s5.572-1.118 7.601-3.148c4.191-4.191 4.191-11.011 0-15.203-2.030-2.030-4.73-3.149-7.602-3.149zM16.244 27.5c-3.139 0-6.090-1.222-8.309-3.442-4.581-4.582-4.581-12.036 0-16.617 2.219-2.22 5.17-3.442 8.309-3.442s6.090 1.222 8.308 3.442c4.581 4.582 4.581 12.035 0 16.617-2.219 2.22-5.17 3.442-8.309 3.442z"></path>
<path fill="#1786ff" d="M22.244 19.25c-0.128 0-0.256-0.049-0.354-0.146l-5.646-5.646-5.646 5.646c-0.195 0.195-0.511 0.195-0.707 0s-0.195-0.512 0-0.707l6-6c0.195-0.195 0.512-0.195 0.707 0l6 6c0.195 0.195 0.195 0.512 0 0.707-0.098 0.098-0.226 0.146-0.354 0.146z"></path>
</svg>
