<?xml version="1.0" encoding="utf-8"?>
<!-- Generated by IcoMoon.io -->
<!DOCTYPE svg PUBLIC "-//W3C//DTD SVG 1.1//EN" "http://www.w3.org/Graphics/SVG/1.1/DTD/svg11.dtd">
<svg version="1.1" xmlns="http://www.w3.org/2000/svg" xmlns:xlink="http://www.w3.org/1999/xlink" width="32" height="32" viewBox="0 0 32 32">
<path fill="#007aff" d="M11.703 13.85c0.022 0.014 0.046 0.028 0.072 0.044 0.218 0.136 0.39 0.242 0.453 0.461 0.238 0.826 1.848 3.9 4.022 3.9s3.785-3.074 4.022-3.899c0.064-0.219 0.235-0.326 0.453-0.462 0.025-0.015 0.049-0.030 0.072-0.044 0.577-1.053 0.488-1.521 0.421-1.675-0.078-0.182-0.245-0.227-0.264-0.232-0.235-0.056-0.41-0.276-0.397-0.517 0.001-0.012 0.061-1.23-0.235-2.347-0.029-0.104-0.774-2.636-4.072-2.636-3.323 0-4.066 2.613-4.073 2.639-0.296 1.121-0.234 2.332-0.233 2.345 0.014 0.251-0.162 0.473-0.409 0.519-0.007 0.002-0.174 0.047-0.252 0.229-0.068 0.155-0.156 0.622 0.421 1.675zM16.25 19.255c-2.642 0-4.488-3.166-4.934-4.469-0.023-0.014-0.046-0.028-0.069-0.043-0.174-0.108-0.289-0.18-0.367-0.316-0.637-1.128-0.806-2.032-0.499-2.688 0.145-0.309 0.363-0.499 0.556-0.613 0-0.489 0.037-1.409 0.274-2.303 0.009-0.036 0.958-3.38 5.039-3.38s5.029 3.345 5.039 3.379c0.237 0.895 0.274 1.816 0.274 2.305 0.194 0.114 0.412 0.303 0.556 0.613 0.306 0.655 0.139 1.559-0.498 2.687-0.078 0.137-0.193 0.209-0.367 0.317-0.023 0.014-0.047 0.028-0.069 0.043-0.446 1.302-2.293 4.469-4.934 4.469z"></path>
<path fill="#007aff" d="M16.25 27.5c-5.982 0-10.313-0.918-10.355-0.927-0.239-0.052-0.406-0.268-0.394-0.512 0.228-4.779 3.205-6.263 5.424-6.963 1.719-0.543 2.618-1.42 2.627-1.429 0.196-0.194 0.512-0.193 0.707 0.003s0.193 0.513-0.004 0.707c-0.043 0.043-1.083 1.058-3.030 1.672-2.148 0.678-4.366 1.882-4.697 5.627 1.212 0.223 4.92 0.823 9.721 0.823 4.807 0 8.51-0.599 9.721-0.822-0.331-3.745-2.549-4.949-4.697-5.627-1.948-0.614-2.987-1.629-3.030-1.672-0.197-0.194-0.198-0.511-0.003-0.707s0.509-0.198 0.706-0.005c0.012 0.012 0.929 0.893 2.628 1.43 2.219 0.701 5.196 2.184 5.424 6.963 0.012 0.244-0.155 0.46-0.395 0.512-0.043 0.009-4.373 0.927-10.355 0.927z"></path>
</svg>
