<?xml version="1.0" encoding="utf-8"?>
<!-- Generated by IcoMoon.io -->
<!DOCTYPE svg PUBLIC "-//W3C//DTD SVG 1.1//EN" "http://www.w3.org/Graphics/SVG/1.1/DTD/svg11.dtd">
<svg version="1.1" xmlns="http://www.w3.org/2000/svg" xmlns:xlink="http://www.w3.org/1999/xlink" width="32" height="32" viewBox="0 0 32 32">
<path fill="#007aff" d="M16.25 8.75c-0.276 0-0.5-0.224-0.5-0.5v-2.5c0-0.276 0.224-0.5 0.5-0.5s0.5 0.224 0.5 0.5v2.5c0 0.276-0.224 0.5-0.5 0.5z"></path>
<path fill="#007aff" d="M16.25 27.25c-0.276 0-0.5-0.224-0.5-0.5v-2.5c0-0.276 0.224-0.5 0.5-0.5s0.5 0.224 0.5 0.5v2.5c0 0.276-0.224 0.5-0.5 0.5z"></path>
<path fill="#007aff" d="M16.25 17.457l-3.354-3.354c-0.195-0.195-0.195-0.511 0-0.707s0.511-0.195 0.707 0l2.646 2.646 4.646-4.646c0.195-0.195 0.512-0.195 0.707 0s0.195 0.511 0 0.707l-5.354 5.354z"></path>
<path fill="#007aff" d="M16.25 6c-5.652 0-10.25 4.598-10.25 10.25s4.598 10.25 10.25 10.25c5.652 0 10.25-4.598 10.25-10.25s-4.598-10.25-10.25-10.25zM16.25 27.5c-6.204 0-11.25-5.047-11.25-11.25s5.046-11.25 11.25-11.25c6.203 0 11.25 5.046 11.25 11.25s-5.047 11.25-11.25 11.25z"></path>
<path fill="#007aff" d="M26.75 16.75h-2.5c-0.276 0-0.5-0.224-0.5-0.5s0.224-0.5 0.5-0.5h2.5c0.276 0 0.5 0.224 0.5 0.5s-0.224 0.5-0.5 0.5z"></path>
<path fill="#007aff" d="M8.25 16.75h-2.5c-0.276 0-0.5-0.224-0.5-0.5s0.224-0.5 0.5-0.5h2.5c0.276 0 0.5 0.224 0.5 0.5s-0.224 0.5-0.5 0.5z"></path>
</svg>
