<?xml version="1.0" encoding="utf-8"?>
<!-- Generated by IcoMoon.io -->
<!DOCTYPE svg PUBLIC "-//W3C//DTD SVG 1.1//EN" "http://www.w3.org/Graphics/SVG/1.1/DTD/svg11.dtd">
<svg version="1.1" xmlns="http://www.w3.org/2000/svg" xmlns:xlink="http://www.w3.org/1999/xlink" width="32" height="32" viewBox="0 0 32 32">
<path fill="#1786ff" d="M16.25 5.5c-2.873 0-5.574 1.118-7.605 3.149-4.193 4.191-4.193 11.011 0 15.203 2.031 2.030 4.732 3.148 7.605 3.148s5.574-1.118 7.605-3.148c4.193-4.191 4.193-11.011 0-15.203-2.031-2.030-4.732-3.149-7.605-3.149zM16.25 28c-3.14 0-6.092-1.222-8.313-3.442-4.583-4.582-4.583-12.036 0-16.617 2.22-2.22 5.173-3.441 8.313-3.441s6.092 1.222 8.313 3.441c4.583 4.582 4.583 12.035 0 16.617-2.22 2.22-5.173 3.442-8.313 3.442z"></path>
<path fill="#1786ff" d="M16.25 15.625l-4.995-4.995c-0.173-0.173-0.452-0.173-0.625 0s-0.173 0.452 0 0.625l4.995 4.995-4.995 4.995c-0.173 0.173-0.173 0.452 0 0.625 0.086 0.086 0.199 0.13 0.313 0.13s0.226-0.043 0.313-0.13l4.995-4.995 4.995 4.995c0.173 0.173 0.452 0.173 0.625 0s0.173-0.452 0-0.625l-4.995-4.995 4.995-4.995c0.173-0.173 0.173-0.452 0-0.625-0.086-0.086-0.199-0.13-0.313-0.13s-0.226 0.043-0.313 0.13l-4.995 4.995z"></path>
</svg>
