<?xml version="1.0" encoding="utf-8"?>
<!-- Generated by IcoMoon.io -->
<!DOCTYPE svg PUBLIC "-//W3C//DTD SVG 1.1//EN" "http://www.w3.org/Graphics/SVG/1.1/DTD/svg11.dtd">
<svg version="1.1" xmlns="http://www.w3.org/2000/svg" xmlns:xlink="http://www.w3.org/1999/xlink" width="32" height="32" viewBox="0 0 32 32">
<path fill="#1786ff" d="M16 15.184l-6.515-6.515c-0.226-0.226-0.59-0.226-0.816 0s-0.226 0.59 0 0.816l6.515 6.515-6.515 6.515c-0.226 0.226-0.226 0.59 0 0.816 0.113 0.113 0.26 0.169 0.408 0.169s0.295-0.057 0.408-0.169l6.515-6.515 6.515 6.515c0.226 0.226 0.59 0.226 0.816 0s0.226-0.59 0-0.816l-6.515-6.515 6.515-6.515c0.226-0.226 0.226-0.59 0-0.816-0.113-0.113-0.26-0.169-0.408-0.169s-0.295 0.057-0.408 0.169l-6.515 6.515z"></path>
</svg>
