<?xml version="1.0" encoding="utf-8"?>
<!-- Generated by IcoMoon.io -->
<!DOCTYPE svg PUBLIC "-//W3C//DTD SVG 1.1//EN" "http://www.w3.org/Graphics/SVG/1.1/DTD/svg11.dtd">
<svg version="1.1" xmlns="http://www.w3.org/2000/svg" xmlns:xlink="http://www.w3.org/1999/xlink" width="32" height="32" viewBox="0 0 32 32">
<path fill="#007aff" d="M16.373 23.5c-2.672 0-4.030-1.699-4.33-2.372-0.112-0.252 0.002-0.529 0.254-0.642s0.547-0.025 0.659 0.227c0.008 0.018 0.92 1.788 3.416 1.788h0.048c1.294 0 2.477-1.020 2.692-2.341 0.282-1.74-1.146-3.31-3.822-4.229-2.5-0.86-3.098-2.797-2.851-4.23 0.279-1.616 1.699-3.199 3.878-3.199h0.049c2.577 0 3.614 2.090 3.657 2.179 0.12 0.248 0.015 0.531-0.233 0.652-0.247 0.119-0.546 0.040-0.666-0.208-0.034-0.068-0.826-1.623-2.769-1.623h-0.037c-1.627 0-2.686 1.176-2.893 2.378-0.189 1.096 0.287 2.485 2.191 3.139 4.704 1.617 4.62 4.462 4.483 5.309-0.296 1.818-1.872 3.174-3.669 3.174h-0.056z"></path>
<path fill="#007aff" d="M16.321 26c-0.275 0-0.498-0.25-0.5-0.526l-0.084-18.892c-0.001-0.276 0.222-0.582 0.498-0.582h0.002c0.275 0 0.499 0.288 0.5 0.564l0.084 18.873c0.002 0.276-0.221 0.563-0.498 0.563h-0.002z"></path>
</svg>
