<?xml version="1.0" encoding="utf-8"?>
<!-- Generated by IcoMoon.io -->
<!DOCTYPE svg PUBLIC "-//W3C//DTD SVG 1.1//EN" "http://www.w3.org/Graphics/SVG/1.1/DTD/svg11.dtd">
<svg version="1.1" xmlns="http://www.w3.org/2000/svg" xmlns:xlink="http://www.w3.org/1999/xlink" width="32" height="32" viewBox="0 0 32 32">
<path fill="#007aff" d="M16 6.306c-4.883 0-8 1.242-8 2.097s3.117 2.098 8 2.098c4.883 0 8-1.242 8-2.098s-3.116-2.097-8-2.097zM16 11.5c-4.473 0-9-1.064-9-3.098s4.527-3.097 9-3.097 9 1.064 9 3.097c0 2.034-4.527 3.098-9 3.098z"></path>
<path fill="#007aff" d="M16 15.5c-4.473 0-9-1.064-9-3.097 0-0.277 0.224-0.5 0.5-0.5s0.5 0.223 0.5 0.5c0 0.855 3.117 2.097 8 2.097s8-1.242 8-2.097c0-0.277 0.224-0.5 0.5-0.5s0.5 0.223 0.5 0.5c0 2.033-4.527 3.097-9 3.097z"></path>
<path fill="#007aff" d="M16 19.5c-4.473 0-9-1.064-9-3.097 0-0.276 0.224-0.5 0.5-0.5s0.5 0.224 0.5 0.5c0 0.855 3.117 2.097 8 2.097s8-1.242 8-2.097c0-0.276 0.224-0.5 0.5-0.5s0.5 0.224 0.5 0.5c0 2.033-4.527 3.097-9 3.097z"></path>
<path fill="#007aff" d="M16 23.5c-4.473 0-9-1.064-9-3.097 0-0.276 0.224-0.5 0.5-0.5s0.5 0.224 0.5 0.5c0 0.855 3.117 2.097 8 2.097s8-1.242 8-2.097c0-0.276 0.224-0.5 0.5-0.5s0.5 0.224 0.5 0.5c0 2.033-4.527 3.097-9 3.097z"></path>
<path fill="#007aff" d="M16 27.5c-4.473 0-9-1.064-9-3.097 0-0.276 0.224-0.5 0.5-0.5s0.5 0.224 0.5 0.5c0 0.855 3.117 2.097 8 2.097s8-1.242 8-2.097c0-0.276 0.224-0.5 0.5-0.5s0.5 0.224 0.5 0.5c0 2.033-4.527 3.097-9 3.097z"></path>
<path fill="#007aff" d="M7.5 25.306c-0.276 0-0.5-0.224-0.5-0.5v-16.5c0-0.277 0.224-0.5 0.5-0.5s0.5 0.223 0.5 0.5v16.5c0 0.276-0.224 0.5-0.5 0.5z"></path>
</svg>
