<?xml version="1.0" encoding="utf-8"?>
<!-- Generated by IcoMoon.io -->
<!DOCTYPE svg PUBLIC "-//W3C//DTD SVG 1.1//EN" "http://www.w3.org/Graphics/SVG/1.1/DTD/svg11.dtd">
<svg version="1.1" xmlns="http://www.w3.org/2000/svg" xmlns:xlink="http://www.w3.org/1999/xlink" width="32" height="32" viewBox="0 0 32 32">
<path fill="#007aff" d="M8.5 23h15v-15.5h-15v15.5zM24 24h-16c-0.276 0-0.5-0.224-0.5-0.5v-16.5c0-0.276 0.224-0.5 0.5-0.5h16c0.276 0 0.5 0.224 0.5 0.5v16.5c0 0.276-0.224 0.5-0.5 0.5v0z"></path>
<path fill="#007aff" d="M7.5 5c-0.827 0-1.5 0.673-1.5 1.5v19c0 0.827 0.673 1.5 1.5 1.5h17c0.827 0 1.5-0.673 1.5-1.5v-19c0-0.827-0.673-1.5-1.5-1.5h-17zM24.5 28h-17c-1.378 0-2.5-1.122-2.5-2.5v-19c0-1.378 1.122-2.5 2.5-2.5h17c1.378 0 2.5 1.122 2.5 2.5v19c0 1.378-1.122 2.5-2.5 2.5v0z"></path>
<path fill="#007aff" d="M16 26.5c-0.552 0-1-0.448-1-1s0.448-1 1-1c0.552 0 1 0.448 1 1s-0.448 1-1 1z"></path>
</svg>
