<?xml version="1.0" encoding="utf-8"?>
<!-- Generated by IcoMoon.io -->
<!DOCTYPE svg PUBLIC "-//W3C//DTD SVG 1.1//EN" "http://www.w3.org/Graphics/SVG/1.1/DTD/svg11.dtd">
<svg version="1.1" xmlns="http://www.w3.org/2000/svg" xmlns:xlink="http://www.w3.org/1999/xlink" width="32" height="32" viewBox="0 0 32 32">
<path fill="#007aff" d="M26.5 14h-10c-0.276 0-0.5-0.223-0.5-0.5s0.224-0.5 0.5-0.5h10c0.276 0 0.5 0.223 0.5 0.5s-0.224 0.5-0.5 0.5z"></path>
<path fill="#007aff" d="M26.5 24.5h-10c-0.276 0-0.5-0.224-0.5-0.5s0.224-0.5 0.5-0.5h10c0.276 0 0.5 0.224 0.5 0.5s-0.224 0.5-0.5 0.5z"></path>
<path fill="#007aff" d="M17.5 11.5c-0.552 0-1 0.448-1 1v13c0 0.551 0.448 1 1 1h7.5c0.552 0 1-0.449 1-1v-13c0-0.552-0.448-1-1-1h-7.5zM25 27.5h-7.5c-1.103 0-2-0.897-2-2v-13c0-1.103 0.897-2 2-2h7.5c1.103 0 2 0.897 2 2v13c0 1.103-0.897 2-2 2v0z"></path>
<path fill="#007aff" d="M15.75 21.25c-0.552 0-1-0.449-1-1s0.448-1 1-1c0.276 0 0.5 0.224 0.5 0.5s-0.224 0.5-0.5 0.5c0.276 0 0.5 0.224 0.5 0.5s-0.224 0.5-0.5 0.5z"></path>
<path fill="#007aff" d="M16 23h-9.5c-0.827 0-1.5-0.673-1.5-1.5v-15.5c0-0.827 0.673-1.5 1.5-1.5h19c0.827 0 1.5 0.673 1.5 1.5v6.5h-1v-6.5c0-0.276-0.224-0.5-0.5-0.5h-19c-0.276 0-0.5 0.224-0.5 0.5v15.5c0 0.276 0.224 0.5 0.5 0.5h9.5v1z"></path>
<path fill="#007aff" d="M15.5 18.5h-8c-0.276 0-0.5-0.224-0.5-0.5v-11c0-0.277 0.224-0.5 0.5-0.5h17c0.276 0 0.5 0.223 0.5 0.5v3.5h-1v-3h-16v10h7.5v1z"></path>
<path fill="#007aff" d="M17.5 27.5h-6c-0.276 0-0.5-0.224-0.5-0.5s0.224-0.5 0.5-0.5h6c0.276 0 0.5 0.224 0.5 0.5s-0.224 0.5-0.5 0.5z"></path>
<path fill="#007aff" d="M14.5 27.5c-0.276 0-0.5-0.224-0.5-0.5v-4c0-0.276 0.224-0.5 0.5-0.5s0.5 0.224 0.5 0.5v4c0 0.276-0.224 0.5-0.5 0.5z"></path>
</svg>
