<?xml version="1.0" encoding="utf-8"?>
<!-- Generated by IcoMoon.io -->
<!DOCTYPE svg PUBLIC "-//W3C//DTD SVG 1.1//EN" "http://www.w3.org/Graphics/SVG/1.1/DTD/svg11.dtd">
<svg version="1.1" xmlns="http://www.w3.org/2000/svg" xmlns:xlink="http://www.w3.org/1999/xlink" width="32" height="32" viewBox="0 0 32 32">
<path fill="#007aff" d="M5.5 22h21v-14c0-0.551-0.448-1-1-1h-19c-0.551 0-1 0.449-1 1v14zM27 23h-22c-0.276 0-0.5-0.224-0.5-0.5v-14.5c0-1.103 0.897-2 2-2h19c1.103 0 2 0.897 2 2v14.5c0 0.276-0.224 0.5-0.5 0.5v0z"></path>
<path fill="#007aff" d="M16 26c-0.276 0-0.5-0.224-0.5-0.5v-3c0-0.276 0.224-0.5 0.5-0.5s0.5 0.224 0.5 0.5v3c0 0.276-0.224 0.5-0.5 0.5z"></path>
<path fill="#007aff" d="M19 26.5h-6c-0.276 0-0.5-0.224-0.5-0.5s0.224-0.5 0.5-0.5h6c0.276 0 0.5 0.224 0.5 0.5s-0.224 0.5-0.5 0.5z"></path>
<path fill="#007aff" d="M26.5 20.5h-21c-0.276 0-0.5-0.224-0.5-0.5s0.224-0.5 0.5-0.5h21c0.276 0 0.5 0.224 0.5 0.5s-0.224 0.5-0.5 0.5z"></path>
</svg>
