<?xml version="1.0" encoding="utf-8"?>
<!-- Generated by IcoMoon.io -->
<!DOCTYPE svg PUBLIC "-//W3C//DTD SVG 1.1//EN" "http://www.w3.org/Graphics/SVG/1.1/DTD/svg11.dtd">
<svg version="1.1" xmlns="http://www.w3.org/2000/svg" xmlns:xlink="http://www.w3.org/1999/xlink" width="32" height="32" viewBox="0 0 32 32">
<path fill="#007aff" d="M26.5 14h-9.5c-0.276 0-0.5-0.223-0.5-0.5s0.224-0.5 0.5-0.5h9.5c0.276 0 0.5 0.223 0.5 0.5s-0.224 0.5-0.5 0.5z"></path>
<path fill="#007aff" d="M26.5 24.5h-9.5c-0.276 0-0.5-0.224-0.5-0.5s0.224-0.5 0.5-0.5h9.5c0.276 0 0.5 0.224 0.5 0.5s-0.224 0.5-0.5 0.5z"></path>
<path fill="#007aff" d="M18 11.5c-0.552 0-1 0.448-1 1v13.5c0 0.551 0.448 1 1 1h7c0.552 0 1-0.449 1-1v-13.5c0-0.552-0.448-1-1-1h-7zM25 28h-7c-1.103 0-2-0.897-2-2v-13.5c0-1.103 0.897-2 2-2h7c1.103 0 2 0.897 2 2v13.5c0 1.103-0.897 2-2 2v0z"></path>
<path fill="#007aff" d="M17.5 28h-10.499c-1.103 0-2-0.897-2-2v-19.5c0-1.103 0.897-2 2-2h15.999c1.103 0 2 0.897 2 2v4c0 0.277-0.224 0.5-0.5 0.5s-0.5-0.223-0.5-0.5v-4c0-0.551-0.448-1-1-1h-15.999c-0.551 0-1 0.449-1 1v19.5c0 0.551 0.449 1 1 1h10.499c0.276 0 0.5 0.224 0.5 0.5s-0.224 0.5-0.5 0.5z"></path>
<path fill="#007aff" d="M15.999 25.5h-9c-0.276 0-0.5-0.224-0.5-0.5v-18c0-0.277 0.224-0.5 0.5-0.5h16c0.276 0 0.5 0.223 0.5 0.5v3.5c0 0.277-0.224 0.5-0.5 0.5s-0.5-0.223-0.5-0.5v-3h-15v17h8.5c0.276 0 0.5 0.224 0.5 0.5s-0.224 0.5-0.5 0.5z"></path>
</svg>
