<?xml version="1.0" encoding="utf-8"?>
<!-- Generated by IcoMoon.io -->
<!DOCTYPE svg PUBLIC "-//W3C//DTD SVG 1.1//EN" "http://www.w3.org/Graphics/SVG/1.1/DTD/svg11.dtd">
<svg version="1.1" xmlns="http://www.w3.org/2000/svg" xmlns:xlink="http://www.w3.org/1999/xlink" width="32" height="32" viewBox="0 0 32 32">
<path fill="#007aff" d="M8 17.5h16v-10h-16v10zM24.5 18.5h-17c-0.276 0-0.5-0.224-0.5-0.5v-11c0-0.276 0.224-0.5 0.5-0.5h17c0.276 0 0.5 0.224 0.5 0.5v11c0 0.276-0.224 0.5-0.5 0.5v0z"></path>
<path fill="#007aff" d="M6.5 5.5c-0.276 0-0.5 0.224-0.5 0.5v15.5c0 0.276 0.224 0.5 0.5 0.5h19c0.276 0 0.5-0.224 0.5-0.5v-15.5c0-0.276-0.224-0.5-0.5-0.5h-19zM25.5 23h-19c-0.827 0-1.5-0.673-1.5-1.5v-15.5c0-0.827 0.673-1.5 1.5-1.5h19c0.827 0 1.5 0.673 1.5 1.5v15.5c0 0.827-0.673 1.5-1.5 1.5v0z"></path>
<path fill="#007aff" d="M12 27h8v-0.5c0-0.276-0.224-0.5-0.5-0.5h-0.32c-0.442 0-0.859-0.194-1.145-0.53s-0.408-0.78-0.335-1.216l0.209-1.253h-3.819l0.209 1.253c0.073 0.436-0.050 0.879-0.335 1.216s-0.703 0.53-1.145 0.53h-0.319c-0.275 0-0.5 0.224-0.5 0.5v0.5zM20.5 28h-9c-0.276 0-0.5-0.224-0.5-0.5v-1c0-0.827 0.673-1.5 1.5-1.5h0.319c0.149 0 0.285-0.063 0.382-0.177s0.136-0.258 0.112-0.405l-0.306-1.835c-0.024-0.145 0.017-0.294 0.111-0.405s0.235-0.177 0.382-0.177h5c0.147 0 0.287 0.064 0.381 0.177s0.136 0.26 0.111 0.405l-0.306 1.835c-0.024 0.147 0.015 0.291 0.112 0.405s0.232 0.177 0.381 0.177h0.32c0.827 0 1.5 0.673 1.5 1.5v1c0 0.276-0.224 0.5-0.5 0.5v0z"></path>
<path fill="#007aff" d="M15.75 21.25c-0.552 0-1-0.448-1-1s0.448-1 1-1c0.552 0 1 0.448 1 1s-0.448 1-1 1z"></path>
</svg>
