<?xml version="1.0" encoding="utf-8"?>
<!-- Generated by IcoMoon.io -->
<!DOCTYPE svg PUBLIC "-//W3C//DTD SVG 1.1//EN" "http://www.w3.org/Graphics/SVG/1.1/DTD/svg11.dtd">
<svg version="1.1" xmlns="http://www.w3.org/2000/svg" xmlns:xlink="http://www.w3.org/1999/xlink" width="32" height="32" viewBox="0 0 32 32">
<path fill="#007aff" d="M23.5 23c-0.276 0-0.5-0.224-0.5-0.5v-12.5c0-0.277 0.224-0.5 0.5-0.5s0.5 0.223 0.5 0.5v12.5c0 0.276-0.224 0.5-0.5 0.5z"></path>
<path fill="#007aff" d="M10 23c-0.276 0-0.5-0.224-0.5-0.5v-12.5c0-0.277 0.224-0.5 0.5-0.5s0.5 0.223 0.5 0.5v12.5c0 0.276-0.224 0.5-0.5 0.5z"></path>
<path fill="#007aff" d="M6.5 10c-0.551 0-1 0.448-1 1v10c0 0.551 0.449 1 1 1h19c0.552 0 1-0.449 1-1v-10c0-0.552-0.448-1-1-1h-19zM25.5 23h-19c-1.103 0-2-0.897-2-2v-10c0-1.103 0.897-2 2-2h19c1.103 0 2 0.897 2 2v10c0 1.103-0.897 2-2 2v0z"></path>
<path fill="#007aff" d="M7.5 17c-0.551 0-1-0.449-1-1s0.449-1 1-1c0.552 0 1 0.449 1 1s-0.448 1-1 1z"></path>
</svg>
