<?xml version="1.0" encoding="utf-8"?>
<!-- Generated by IcoMoon.io -->
<!DOCTYPE svg PUBLIC "-//W3C//DTD SVG 1.1//EN" "http://www.w3.org/Graphics/SVG/1.1/DTD/svg11.dtd">
<svg version="1.1" xmlns="http://www.w3.org/2000/svg" xmlns:xlink="http://www.w3.org/1999/xlink" width="32" height="32" viewBox="0 0 32 32">
<path fill="#007aff" d="M6 16.5v4c0 0.276 0.224 0.5 0.5 0.5h1.871c0.552 0 1-0.449 1-1v-2.5c0-0.552-0.448-1-1-1h-2.372zM23.372 16.5c-0.552 0-1 0.448-1 1v2.5c0 0.551 0.448 1 1 1h1.871c0.276 0 0.5-0.224 0.5-0.5v-4h-2.371zM25.242 22h-1.871c-1.103 0-2-0.897-2-2v-2.5c0-1.103 0.897-2 2-2h2.364c-0.093-2.563-1.154-4.941-3.011-6.732-1.945-1.877-4.512-2.865-7.215-2.761-5.042 0.179-9.181 4.379-9.492 9.494h2.352c1.102 0 2 0.897 2 2v2.5c0 1.103-0.898 2-2 2h-1.872c-0.827 0-1.5-0.673-1.5-1.5v-4.38c0-0.032 0-0.067 0-0.099 0-0.007-0-0.014-0-0.021 0-0.011 0-0.022 0.001-0.033 0.080-5.855 4.748-10.757 10.475-10.96 2.983-0.112 5.803 0.973 7.944 3.040 2.143 2.067 3.323 4.846 3.323 7.823v4.628c0 0.827-0.672 1.5-1.5 1.5v0z"></path>
<path fill="#007aff" d="M16.371 27c-0.276 0-0.5-0.224-0.5-0.5s0.224-0.5 0.5-0.5c5.436 0 7.99-4.688 8.015-4.735 0.13-0.244 0.432-0.337 0.676-0.206 0.244 0.13 0.337 0.432 0.207 0.677-0.114 0.215-2.867 5.265-8.898 5.265z"></path>
<path fill="#007aff" d="M16.371 26c-0.276 0-0.5 0.224-0.5 0.5s0.224 0.5 0.5 0.5c0.276 0 0.5-0.224 0.5-0.5s-0.224-0.5-0.5-0.5zM16.371 28c-0.827 0-1.5-0.673-1.5-1.5s0.673-1.5 1.5-1.5c0.827 0 1.5 0.673 1.5 1.5s-0.673 1.5-1.5 1.5z"></path>
</svg>
