<?xml version="1.0" encoding="utf-8"?>
<!-- Generated by IcoMoon.io -->
<!DOCTYPE svg PUBLIC "-//W3C//DTD SVG 1.1//EN" "http://www.w3.org/Graphics/SVG/1.1/DTD/svg11.dtd">
<svg version="1.1" xmlns="http://www.w3.org/2000/svg" xmlns:xlink="http://www.w3.org/1999/xlink" width="32" height="32" viewBox="0 0 32 32">
<path fill="#007aff" d="M12 11c-0.827 0-1.5 0.673-1.5 1.5v6.5c0 0.827 0.673 1.5 1.5 1.5h8c0.827 0 1.5-0.673 1.5-1.5v-6.5c0-0.827-0.673-1.5-1.5-1.5h-8zM20 21.5h-8c-1.379 0-2.5-1.122-2.5-2.5v-6.5c0-1.379 1.121-2.5 2.5-2.5h8c1.378 0 2.5 1.121 2.5 2.5v6.5c0 1.378-1.122 2.5-2.5 2.5v0z"></path>
<path fill="#007aff" d="M20.5 11c-0.22 0-0.422-0.146-0.482-0.368l-1.198-4.395c-0.119-0.434-0.515-0.737-0.965-0.737h-3.709c-0.45 0-0.847 0.303-0.965 0.737l-1.198 4.395c-0.072 0.267-0.345 0.424-0.614 0.351-0.266-0.072-0.423-0.348-0.351-0.614l1.198-4.394c0.236-0.868 1.030-1.474 1.93-1.474h3.709c0.899 0 1.693 0.606 1.93 1.474l1.198 4.394c0.073 0.267-0.084 0.541-0.351 0.614-0.044 0.012-0.088 0.018-0.132 0.018z"></path>
<path fill="#007aff" d="M17.829 27.5h-3.658c-0.92 0-1.718-0.623-1.941-1.515l-1.216-4.864c-0.067-0.268 0.096-0.54 0.364-0.607s0.54 0.096 0.606 0.363l1.216 4.864c0.111 0.446 0.51 0.758 0.97 0.758h3.657c0.459 0 0.858-0.311 0.97-0.758l1.216-4.864c0.067-0.268 0.34-0.431 0.607-0.363 0.268 0.067 0.43 0.338 0.363 0.607l-1.216 4.864c-0.223 0.892-1.020 1.515-1.94 1.515z"></path>
<path fill="#007aff" d="M16 17c-0.128 0-0.256-0.049-0.354-0.146l-3-3c-0.195-0.195-0.195-0.511 0-0.707s0.511-0.195 0.707 0l2.646 2.646 1.646-1.646c0.195-0.195 0.512-0.195 0.707 0s0.195 0.511 0 0.707l-2 2c-0.098 0.098-0.226 0.146-0.354 0.146z"></path>
</svg>
