<?xml version="1.0" encoding="utf-8"?>
<!-- Generated by IcoMoon.io -->
<!DOCTYPE svg PUBLIC "-//W3C//DTD SVG 1.1//EN" "http://www.w3.org/Graphics/SVG/1.1/DTD/svg11.dtd">
<svg version="1.1" xmlns="http://www.w3.org/2000/svg" xmlns:xlink="http://www.w3.org/1999/xlink" width="32" height="32" viewBox="0 0 32 32">
<path fill="#007aff" d="M6.878 19.465l-1.258 6.914 6.914-1.258 13.324-13.325c0.195-0.195 0.195-0.512 0-0.707l-4.95-4.95c-0.189-0.189-0.518-0.189-0.707 0l-13.324 13.325zM5 27.5c-0.131 0-0.259-0.052-0.354-0.146-0.116-0.116-0.168-0.282-0.138-0.443l1.415-7.778c0.018-0.1 0.067-0.192 0.138-0.264l13.435-13.435c0.567-0.566 1.555-0.567 2.122 0l4.95 4.95c0.284 0.284 0.439 0.66 0.439 1.060s-0.156 0.777-0.439 1.061l-13.435 13.435c-0.072 0.072-0.164 0.12-0.264 0.139l-7.778 1.415c-0.030 0.005-0.059 0.008-0.090 0.008v0z"></path>
<path fill="#007aff" d="M8.889 21.489c-0.128 0-0.256-0.049-0.354-0.146-0.195-0.195-0.195-0.512 0-0.707l13.789-13.789c0.195-0.196 0.512-0.196 0.707 0s0.195 0.511 0 0.707l-13.789 13.789c-0.098 0.098-0.226 0.146-0.354 0.146z"></path>
<path fill="#007aff" d="M11.011 23.611c-0.128 0-0.256-0.049-0.354-0.146-0.195-0.195-0.195-0.512 0-0.707l13.789-13.789c0.195-0.196 0.512-0.196 0.707 0s0.195 0.511 0 0.707l-13.789 13.789c-0.098 0.098-0.226 0.146-0.354 0.146z"></path>
<path fill="#007aff" d="M12.778 26.086c-0.128 0-0.256-0.049-0.354-0.146l-6.364-6.364c-0.195-0.195-0.195-0.512 0-0.707s0.512-0.195 0.707 0l6.364 6.364c0.195 0.195 0.195 0.512 0 0.707-0.098 0.098-0.226 0.146-0.354 0.146z"></path>
<path fill="#007aff" d="M8.535 26.793c-0.128 0-0.256-0.049-0.354-0.146l-2.829-2.829c-0.195-0.195-0.195-0.512 0-0.707s0.512-0.195 0.707 0l2.828 2.828c0.195 0.195 0.195 0.512 0 0.707-0.098 0.098-0.226 0.146-0.354 0.146z"></path>
</svg>
