<?xml version="1.0" encoding="utf-8"?>
<!-- Generated by IcoMoon.io -->
<!DOCTYPE svg PUBLIC "-//W3C//DTD SVG 1.1//EN" "http://www.w3.org/Graphics/SVG/1.1/DTD/svg11.dtd">
<svg version="1.1" xmlns="http://www.w3.org/2000/svg" xmlns:xlink="http://www.w3.org/1999/xlink" width="32" height="32" viewBox="0 0 32 32">
<path fill="#007aff" d="M6.5 8.5c-0.276 0-0.5 0.224-0.5 0.5v14.5c0 0.276 0.224 0.5 0.5 0.5h19c0.276 0 0.5-0.224 0.5-0.5v-14.5c0-0.276-0.224-0.5-0.5-0.5h-19zM25.5 25h-19c-0.827 0-1.5-0.673-1.5-1.5v-14.5c0-0.827 0.673-1.5 1.5-1.5h19c0.827 0 1.5 0.673 1.5 1.5v14.5c0 0.827-0.673 1.5-1.5 1.5v0z"></path>
<path fill="#007aff" d="M16 17.929c-0.496 0-0.992-0.184-1.379-0.552l-9.466-9.015 0.689-0.724 9.466 9.014c0.386 0.369 0.993 0.369 1.379 0l9.466-9.014 0.689 0.725-9.465 9.015c-0.387 0.368-0.883 0.552-1.379 0.552z"></path>
<path fill="#007aff" d="M5.832 24.874l-0.665-0.747 9-8 0.665 0.747-9 8z"></path>
<path fill="#007aff" d="M26.168 24.874l-9-8 0.665-0.747 9 8-0.665 0.747z"></path>
</svg>
