<?xml version="1.0" encoding="utf-8"?>
<!-- Generated by IcoMoon.io -->
<!DOCTYPE svg PUBLIC "-//W3C//DTD SVG 1.1//EN" "http://www.w3.org/Graphics/SVG/1.1/DTD/svg11.dtd">
<svg version="1.1" xmlns="http://www.w3.org/2000/svg" xmlns:xlink="http://www.w3.org/1999/xlink" width="32" height="32" viewBox="0 0 32 32">
<path fill="#0f82ff" d="M26 27.5c-0.276 0-0.5-0.224-0.5-0.5v-19c0-1.378-1.122-2.5-2.5-2.5h-6.5v13.5c0 0.276-0.224 0.5-0.5 0.5s-0.5-0.224-0.5-0.5v-14c0-0.276 0.224-0.5 0.5-0.5h7c1.93 0 3.5 1.57 3.5 3.5v19c0 0.276-0.224 0.5-0.5 0.5z"></path>
<path fill="#0f82ff" d="M23.5 22h-5c-0.276 0-0.5-0.224-0.5-0.5s0.224-0.5 0.5-0.5h5c0.276 0 0.5 0.224 0.5 0.5s-0.224 0.5-0.5 0.5z"></path>
<path fill="#0f82ff" d="M23.5 24h-5c-0.276 0-0.5-0.224-0.5-0.5s0.224-0.5 0.5-0.5h5c0.276 0 0.5 0.224 0.5 0.5s-0.224 0.5-0.5 0.5z"></path>
<path fill="#0f82ff" d="M23.5 18h-5c-0.276 0-0.5-0.224-0.5-0.5s0.224-0.5 0.5-0.5h5c0.276 0 0.5 0.224 0.5 0.5s-0.224 0.5-0.5 0.5z"></path>
<path fill="#0f82ff" d="M23.5 20h-5c-0.276 0-0.5-0.224-0.5-0.5s0.224-0.5 0.5-0.5h5c0.276 0 0.5 0.224 0.5 0.5s-0.224 0.5-0.5 0.5z"></path>
<path fill="#0f82ff" d="M23.5 14h-5c-0.276 0-0.5-0.224-0.5-0.5s0.224-0.5 0.5-0.5h5c0.276 0 0.5 0.224 0.5 0.5s-0.224 0.5-0.5 0.5z"></path>
<path fill="#0f82ff" d="M23.5 16h-5c-0.276 0-0.5-0.224-0.5-0.5s0.224-0.5 0.5-0.5h5c0.276 0 0.5 0.224 0.5 0.5s-0.224 0.5-0.5 0.5z"></path>
<path fill="#0f82ff" d="M23.5 10h-5c-0.276 0-0.5-0.224-0.5-0.5s0.224-0.5 0.5-0.5h5c0.276 0 0.5 0.224 0.5 0.5s-0.224 0.5-0.5 0.5z"></path>
<path fill="#0f82ff" d="M23.5 12h-5c-0.276 0-0.5-0.224-0.5-0.5s0.224-0.5 0.5-0.5h5c0.276 0 0.5 0.224 0.5 0.5s-0.224 0.5-0.5 0.5z"></path>
<path fill="#0f82ff" d="M27 27.5h-22c-0.276 0-0.5-0.224-0.5-0.5s0.224-0.5 0.5-0.5h22c0.276 0 0.5 0.224 0.5 0.5s-0.224 0.5-0.5 0.5z"></path>
<path fill="#0f82ff" d="M8 19.5c-0.276 0-0.5-0.224-0.5-0.5v-8c0-0.827 0.673-1.5 1.5-1.5h7c0.276 0 0.5 0.224 0.5 0.5s-0.224 0.5-0.5 0.5h-7c-0.275 0-0.5 0.225-0.5 0.5v8c0 0.276-0.224 0.5-0.5 0.5z"></path>
<path fill="#0f82ff" d="M13 10c-0.276 0-0.5-0.224-0.5-0.5 0-1.101 0.428-2.136 1.207-2.914l1.94-1.939c0.196-0.196 0.511-0.196 0.707 0s0.195 0.511 0 0.707l-1.94 1.939c-0.589 0.59-0.914 1.373-0.914 2.207 0 0.276-0.224 0.5-0.5 0.5z"></path>
<path fill="#0f82ff" d="M10 19.5c-0.276 0-0.5-0.224-0.5-0.5v-9c0-0.276 0.224-0.5 0.5-0.5s0.5 0.224 0.5 0.5v9c0 0.276-0.224 0.5-0.5 0.5z"></path>
<path fill="#0f82ff" d="M12 19.5c-0.276 0-0.5-0.224-0.5-0.5v-9c0-0.276 0.224-0.5 0.5-0.5s0.5 0.224 0.5 0.5v9c0 0.276-0.224 0.5-0.5 0.5z"></path>
<path fill="#0f82ff" d="M14 19.5c-0.276 0-0.5-0.224-0.5-0.5v-9c0-0.276 0.224-0.5 0.5-0.5s0.5 0.224 0.5 0.5v9c0 0.276-0.224 0.5-0.5 0.5z"></path>
<path fill="#0f82ff" d="M16 27.5c-0.276 0-0.5-0.224-0.5-0.5v-7.5h-9c-0.276 0-0.5 0.224-0.5 0.5v7c0 0.276-0.224 0.5-0.5 0.5s-0.5-0.224-0.5-0.5v-7c0-0.827 0.673-1.5 1.5-1.5h9.5c0.276 0 0.5 0.224 0.5 0.5v8c0 0.276-0.224 0.5-0.5 0.5z"></path>
<path fill="#0f82ff" d="M11 27c-0.276 0-0.5-0.224-0.5-0.5v-3.5h-2v3.5c0 0.276-0.224 0.5-0.5 0.5s-0.5-0.224-0.5-0.5v-4c0-0.276 0.224-0.5 0.5-0.5h3c0.276 0 0.5 0.224 0.5 0.5v4c0 0.276-0.224 0.5-0.5 0.5z"></path>
</svg>
