<?xml version="1.0" encoding="utf-8"?>
<!-- Generated by IcoMoon.io -->
<!DOCTYPE svg PUBLIC "-//W3C//DTD SVG 1.1//EN" "http://www.w3.org/Graphics/SVG/1.1/DTD/svg11.dtd">
<svg version="1.1" xmlns="http://www.w3.org/2000/svg" xmlns:xlink="http://www.w3.org/1999/xlink" width="32" height="32" viewBox="0 0 32 32">
<path fill="#0f82ff" d="M24.5 27c-0.276 0-0.5-0.224-0.5-0.5v-17c0-0.276-0.224-0.5-0.5-0.5h-4.552c-1.619 0-3.021 1.046-3.489 2.604-1.953 6.506-8.148 14.735-8.411 15.082-0.167 0.221-0.48 0.264-0.7 0.097s-0.263-0.48-0.097-0.701c0.064-0.084 6.35-8.434 8.251-14.765 0.595-1.984 2.383-3.316 4.446-3.316h4.552c0.827 0 1.5 0.673 1.5 1.5v17c0 0.276-0.224 0.5-0.5 0.5z"></path>
<path fill="#0f82ff" d="M27 27h-22c-0.276 0-0.5-0.224-0.5-0.5s0.224-0.5 0.5-0.5h22c0.276 0 0.5 0.224 0.5 0.5s-0.224 0.5-0.5 0.5z"></path>
<path fill="#0f82ff" d="M14.867 12.967c-0.166 0-0.329-0.083-0.424-0.235-0.147-0.233-0.076-0.543 0.158-0.689l1.548-0.972c1.116-0.7 2.404-1.072 3.721-1.072h4.63c0.276 0 0.5 0.224 0.5 0.5s-0.224 0.5-0.5 0.5h-4.63c-1.13 0-2.232 0.318-3.189 0.918l-1.549 0.973c-0.082 0.052-0.175 0.076-0.265 0.076z"></path>
<path fill="#0f82ff" d="M13.7 15.3c-0.169 0-0.335-0.086-0.428-0.241-0.143-0.236-0.068-0.543 0.168-0.687l2.248-1.361c1.093-0.662 2.346-1.012 3.624-1.012h5.186c0.276 0 0.5 0.224 0.5 0.5s-0.224 0.5-0.5 0.5h-5.186c-1.096 0-2.17 0.3-3.107 0.867l-2.248 1.36c-0.081 0.049-0.171 0.072-0.258 0.072z"></path>
<path fill="#0f82ff" d="M12.734 17.5c-0.18 0-0.354-0.097-0.444-0.267-0.128-0.244-0.034-0.547 0.211-0.675l3.348-1.756c0.999-0.524 2.123-0.801 3.251-0.801h5.399c0.276 0 0.5 0.223 0.5 0.5s-0.224 0.5-0.5 0.5h-5.399c-0.966 0-1.93 0.238-2.787 0.687l-3.349 1.756c-0.074 0.038-0.153 0.057-0.232 0.057z"></path>
<path fill="#0f82ff" d="M11.5 19.5c-0.19 0-0.371-0.109-0.456-0.293-0.114-0.252-0.003-0.548 0.248-0.662l4.104-1.866c0.992-0.451 2.047-0.68 3.137-0.68h5.966c0.276 0 0.5 0.224 0.5 0.5s-0.224 0.5-0.5 0.5h-5.966c-0.946 0-1.863 0.198-2.723 0.59l-4.104 1.865c-0.067 0.031-0.137 0.045-0.207 0.045z"></path>
<path fill="#0f82ff" d="M10.4 21.467c-0.203 0-0.393-0.124-0.468-0.325-0.097-0.259 0.034-0.547 0.293-0.643l5.5-2.056c0.786-0.294 1.611-0.443 2.45-0.443h6.325c0.276 0 0.5 0.224 0.5 0.5s-0.224 0.5-0.5 0.5h-6.325c-0.72 0-1.427 0.128-2.101 0.38l-5.5 2.056c-0.057 0.021-0.117 0.032-0.175 0.032z"></path>
<path fill="#0f82ff" d="M9.333 23.233c-0.216 0-0.416-0.142-0.48-0.36-0.077-0.265 0.075-0.543 0.341-0.619l6.776-1.974c0.637-0.186 1.296-0.279 1.958-0.279h6.573c0.276 0 0.5 0.224 0.5 0.5s-0.224 0.5-0.5 0.5h-6.572c-0.568 0-1.133 0.081-1.678 0.239l-6.776 1.974c-0.046 0.014-0.094 0.020-0.14 0.020z"></path>
<path fill="#0f82ff" d="M8.1 24.967c-0.227 0-0.433-0.155-0.487-0.386-0.063-0.269 0.104-0.538 0.373-0.601l7.669-1.795c0.523-0.123 1.059-0.185 1.596-0.185h7.25c0.276 0 0.5 0.224 0.5 0.5s-0.224 0.5-0.5 0.5h-7.25c-0.459 0-0.919 0.053-1.367 0.159l-7.669 1.796c-0.039 0.009-0.076 0.013-0.114 0.013z"></path>
<path fill="#0f82ff" d="M7.333 26.5c-0.239 0-0.45-0.172-0.492-0.415-0.048-0.273 0.135-0.532 0.407-0.578l8.117-1.405c0.392-0.068 0.794-0.102 1.194-0.102h7.942c0.276 0 0.5 0.224 0.5 0.5s-0.224 0.5-0.5 0.5h-7.942c-0.343 0-0.687 0.030-1.023 0.088l-8.117 1.404c-0.029 0.005-0.057 0.008-0.085 0.008z"></path>
<path fill="#0f82ff" d="M7.5 12.5c-1.085 0-2 1.361-2 2.972s0.915 2.972 2 2.972 2-1.361 2-2.973c0-1.611-0.915-2.972-2-2.972zM7.5 19.445c-1.655 0-3-1.782-3-3.973s1.345-3.972 3-3.972c1.655 0 3 1.781 3 3.972s-1.345 3.973-3 3.973z"></path>
<path fill="#0f82ff" d="M9.96 18.444c-0.354 0-0.697-0.096-1.016-0.283l0.506-0.862c0.165 0.096 0.335 0.145 0.51 0.145 0.791 0 1.46-1.017 1.46-2.222s-0.668-2.223-1.46-2.223c-0.193 0-0.38 0.059-0.559 0.176l-0.546-0.837c0.339-0.222 0.722-0.339 1.106-0.339 1.357 0 2.46 1.446 2.46 3.223s-1.104 3.222-2.46 3.222z"></path>
<path fill="#0f82ff" d="M7.5 25.5c-0.276 0-0.5-0.224-0.5-0.5v-6c0-0.276 0.224-0.5 0.5-0.5s0.5 0.224 0.5 0.5v6c0 0.276-0.224 0.5-0.5 0.5z"></path>
<path fill="#0f82ff" d="M10.5 21.5h-1v-3.5h1v3.5z"></path>
<path fill="#0f82ff" d="M23.5 9c-0.276 0-0.5-0.223-0.5-0.5v-2.117c-0.518 0.082-1.305 0.133-2.5 0.133-0.55 0-1.136 0.113-1.741 0.336-0.454 0.167-0.759 0.614-0.759 1.112v0.535c0 0.277-0.224 0.5-0.5 0.5s-0.5-0.223-0.5-0.5v-0.535c0-0.917 0.568-1.741 1.413-2.051 0.716-0.263 1.418-0.397 2.087-0.397 1.436 0 2.409-0.115 2.684-0.188 0.086-0.070 0.196-0.112 0.316-0.112 0.276 0 0.5 0.223 0.5 0.5v2.783c0 0.277-0.224 0.5-0.5 0.5z"></path>
</svg>
