<?xml version="1.0" encoding="utf-8"?>
<!-- Generated by IcoMoon.io -->
<!DOCTYPE svg PUBLIC "-//W3C//DTD SVG 1.1//EN" "http://www.w3.org/Graphics/SVG/1.1/DTD/svg11.dtd">
<svg version="1.1" xmlns="http://www.w3.org/2000/svg" xmlns:xlink="http://www.w3.org/1999/xlink" width="32" height="32" viewBox="0 0 32 32">
<path fill="#0f82ff" d="M19 23.5c-0.276 0-0.5-0.224-0.5-0.5v-15c0-0.276-0.224-0.5-0.5-0.5h-10c-0.276 0-0.5 0.224-0.5 0.5v15c0 0.276-0.224 0.5-0.5 0.5s-0.5-0.224-0.5-0.5v-15c0-0.827 0.673-1.5 1.5-1.5h10c0.827 0 1.5 0.673 1.5 1.5v15c0 0.276-0.224 0.5-0.5 0.5z"></path>
<path fill="#0f82ff" d="M5.5 26.5h15v-2.5c0-0.276-0.224-0.5-0.5-0.5h-14c-0.276 0-0.5 0.224-0.5 0.5v2.5zM21 27.5h-16c-0.276 0-0.5-0.224-0.5-0.5v-3c0-0.827 0.673-1.5 1.5-1.5h14c0.827 0 1.5 0.673 1.5 1.5v3c0 0.276-0.224 0.5-0.5 0.5v0z"></path>
<path fill="#0f82ff" d="M16.5 11.5h-7c-0.276 0-0.5-0.223-0.5-0.5s0.224-0.5 0.5-0.5h7c0.276 0 0.5 0.223 0.5 0.5s-0.224 0.5-0.5 0.5z"></path>
<path fill="#0f82ff" d="M16.5 13.5h-7c-0.276 0-0.5-0.223-0.5-0.5s0.224-0.5 0.5-0.5h7c0.276 0 0.5 0.223 0.5 0.5s-0.224 0.5-0.5 0.5z"></path>
<path fill="#0f82ff" d="M16.5 15.5h-7c-0.276 0-0.5-0.223-0.5-0.5s0.224-0.5 0.5-0.5h7c0.276 0 0.5 0.223 0.5 0.5s-0.224 0.5-0.5 0.5z"></path>
<path fill="#0f82ff" d="M16.5 17.5h-7c-0.276 0-0.5-0.224-0.5-0.5s0.224-0.5 0.5-0.5h7c0.276 0 0.5 0.224 0.5 0.5s-0.224 0.5-0.5 0.5z"></path>
<path fill="#0f82ff" d="M16.5 19.5h-7c-0.276 0-0.5-0.224-0.5-0.5s0.224-0.5 0.5-0.5h7c0.276 0 0.5 0.224 0.5 0.5s-0.224 0.5-0.5 0.5z"></path>
<path fill="#0f82ff" d="M16.5 21.5h-7c-0.276 0-0.5-0.224-0.5-0.5s0.224-0.5 0.5-0.5h7c0.276 0 0.5 0.224 0.5 0.5s-0.224 0.5-0.5 0.5z"></path>
<path fill="#0f82ff" d="M17.5 7.5c-0.276 0-0.5-0.223-0.5-0.5v-0.5c0-0.276-0.224-0.5-0.5-0.5h-7c-0.275 0-0.5 0.224-0.5 0.5v0.5c0 0.277-0.224 0.5-0.5 0.5s-0.5-0.223-0.5-0.5v-0.5c0-0.827 0.673-1.5 1.5-1.5h7c0.827 0 1.5 0.673 1.5 1.5v0.5c0 0.277-0.224 0.5-0.5 0.5z"></path>
<path fill="#0f82ff" d="M17 23c-0.276 0-0.5-0.224-0.5-0.5v-13h-7v13c0 0.276-0.224 0.5-0.5 0.5s-0.5-0.224-0.5-0.5v-13c0-0.552 0.448-1 1-1h7c0.552 0 1 0.448 1 1v13c0 0.276-0.224 0.5-0.5 0.5z"></path>
<path fill="#0f82ff" d="M19 25.5h-12c-0.276 0-0.5-0.224-0.5-0.5s0.224-0.5 0.5-0.5h12c0.276 0 0.5 0.224 0.5 0.5s-0.224 0.5-0.5 0.5z"></path>
<path fill="#0f82ff" d="M23.914 21.368c0.145 0 0.287 0.063 0.384 0.178 0.241 0.289 0.588 0.454 0.953 0.454 0.689 0 1.25-0.561 1.25-1.25 0-0.337-0.134-0.654-0.378-0.893-0.096-0.094-0.151-0.223-0.151-0.357s0.055-0.264 0.151-0.358c0.244-0.238 0.378-0.555 0.378-0.892 0-0.052-0.009-0.101-0.016-0.151-0.006-0.047-0.011-0.123-0.005-0.17 0.012-0.079 0.020-0.128 0.020-0.18 0-0.381-0.177-0.737-0.484-0.978-0.197-0.155-0.249-0.431-0.122-0.646 0.070-0.121 0.107-0.247 0.107-0.376 0-0.31-0.198-0.592-0.494-0.7-0.156-0.057-0.273-0.188-0.314-0.348s0.002-0.331 0.113-0.454c0.089-0.1 0.195-0.266 0.195-0.497 0-0.414-0.337-0.75-0.75-0.75s-0.75 0.336-0.75 0.75c0 0.31 0.198 0.592 0.494 0.7 0.157 0.057 0.274 0.188 0.314 0.35s-0.003 0.332-0.114 0.455c-0.015 0.017-0.029 0.033-0.041 0.050-0.094 0.127-0.243 0.202-0.401 0.202v0c-0.158 0-0.307-0.075-0.401-0.201-0.145-0.194-0.363-0.305-0.599-0.305-0.413 0-0.75 0.336-0.75 0.75 0 0.206 0.084 0.398 0.237 0.544 0.19 0.179 0.21 0.474 0.046 0.677-0.13 0.16-0.283 0.425-0.283 0.779 0 0.259 0.082 0.509 0.236 0.724 0.081 0.112 0.111 0.253 0.084 0.389s-0.109 0.255-0.227 0.327c-0.372 0.232-0.595 0.628-0.595 1.059 0 0.689 0.561 1.25 1.25 1.25 0.162 0 0.321-0.032 0.473-0.095 0.062-0.026 0.127-0.038 0.191-0.038zM25.25 23c-0.546 0-1.068-0.202-1.477-0.562-0.171 0.041-0.346 0.062-0.523 0.062-1.241 0-2.25-1.009-2.25-2.25 0-0.617 0.25-1.192 0.685-1.611-0.122-0.28-0.185-0.581-0.185-0.889 0-0.375 0.093-0.736 0.273-1.063-0.178-0.278-0.273-0.599-0.273-0.937 0-0.887 0.663-1.623 1.52-1.735-0.014-0.087-0.020-0.176-0.020-0.265 0-0.965 0.785-1.75 1.75-1.75s1.75 0.785 1.75 1.75c0 0.227-0.046 0.451-0.131 0.659 0.392 0.326 0.631 0.815 0.631 1.341 0 0.169-0.026 0.34-0.078 0.504 0.37 0.41 0.578 0.938 0.578 1.495 0 0.085-0.009 0.168-0.020 0.25 0.012 0.091 0.020 0.169 0.020 0.25 0 0.451-0.133 0.883-0.38 1.25 0.247 0.367 0.38 0.798 0.38 1.25 0 1.241-1.009 2.25-2.25 2.25z"></path>
<path fill="#0f82ff" d="M24.5 27.5c-0.276 0-0.5-0.224-0.5-0.5v-4.5c0-0.276 0.224-0.5 0.5-0.5s0.5 0.224 0.5 0.5v4.5c0 0.276-0.224 0.5-0.5 0.5z"></path>
<path fill="#0f82ff" d="M24 20.5c-0.042 0-0.085-0.006-0.128-0.017-0.462-0.122-0.686-0.391-0.793-0.596-0.25-0.48-0.070-1.003-0.049-1.061 0.096-0.259 0.384-0.392 0.642-0.297s0.39 0.379 0.299 0.637c-0.020 0.058-0.040 0.193-0.004 0.259 0.026 0.048 0.111 0.076 0.16 0.090 0.267 0.070 0.427 0.344 0.356 0.611-0.059 0.224-0.262 0.372-0.483 0.372z"></path>
<path fill="#0f82ff" d="M25 18c-0.174 0-0.343-0.090-0.434-0.252-0.128-0.223-0.233-0.278-0.234-0.279-0.268-0.067-0.407-0.331-0.34-0.599s0.361-0.424 0.63-0.356c0.107 0.026 0.483 0.16 0.813 0.737 0.137 0.239 0.054 0.545-0.186 0.682-0.078 0.045-0.163 0.066-0.247 0.066z"></path>
<path fill="#0f82ff" d="M26.5 27.5h-6c-0.276 0-0.5-0.224-0.5-0.5s0.224-0.5 0.5-0.5h6c0.276 0 0.5 0.224 0.5 0.5s-0.224 0.5-0.5 0.5z"></path>
</svg>
