<?xml version="1.0" encoding="utf-8"?>
<!-- Generated by IcoMoon.io -->
<!DOCTYPE svg PUBLIC "-//W3C//DTD SVG 1.1//EN" "http://www.w3.org/Graphics/SVG/1.1/DTD/svg11.dtd">
<svg version="1.1" xmlns="http://www.w3.org/2000/svg" xmlns:xlink="http://www.w3.org/1999/xlink" width="32" height="32" viewBox="0 0 32 32">
<path fill="#0f82ff" d="M11.119 26.956c5.465 0 13.332 0.033 15.382 0.042v-5c-1.864-0.032-5.453-0.389-15.89-4.418-1.652 1.499-3.913 3.169-4.609 3.677v5.725c0.736-0.025 2.18-0.025 5.119-0.025zM5.5 28c-0.064 0-0.13-0.012-0.191-0.038-0.187-0.078-0.309-0.26-0.309-0.462v-6.5c0-0.161 0.077-0.313 0.208-0.407 0.030-0.022 3.064-2.203 4.95-3.959 0.14-0.131 0.342-0.169 0.521-0.101 11.514 4.466 14.64 4.466 16.32 4.466 0.276 0 0.5 0.224 0.5 0.5v6c0 0.133-0.053 0.261-0.148 0.355-0.093 0.093-0.221 0.145-0.352 0.145h-0.003c-0.095-0-9.583-0.044-15.879-0.044-4.346 0-5.337 0.021-5.521 0.035-0.032 0.006-0.065 0.010-0.098 0.010z"></path>
<path fill="#0f82ff" d="M23 21.5c-0.276 0-0.5-0.224-0.5-0.5v-6.675c-0.998-0.443-4.172-1.873-5.501-2.721-3.082 2.021-7.607 3.034-8.999 3.31v4.585c0 0.276-0.224 0.5-0.5 0.5s-0.5-0.224-0.5-0.5v-5c0-0.243 0.175-0.451 0.415-0.492 0.059-0.011 5.9-1.044 9.3-3.418 0.177-0.123 0.413-0.12 0.586 0.010 1.14 0.855 5.853 2.921 5.901 2.942 0.182 0.079 0.299 0.259 0.299 0.458v7c0 0.276-0.224 0.5-0.5 0.5z"></path>
<path fill="#0f82ff" d="M10.5 14c-0.276 0-0.5-0.223-0.5-0.5v-6c0-0.237 0.165-0.441 0.396-0.489 0.045-0.009 4.556-0.974 7.899-2.467 0.163-0.074 0.353-0.053 0.497 0.051 1.273 0.923 2.404 1.445 2.415 1.45 0.177 0.082 0.292 0.259 0.292 0.455v6.5c0 0.277-0.224 0.5-0.5 0.5s-0.5-0.223-0.5-0.5v-6.188c-0.404-0.205-1.18-0.625-2.059-1.24-2.845 1.229-6.283 2.065-7.441 2.33v5.598c0 0.277-0.224 0.5-0.5 0.5z"></path>
<path fill="#0f82ff" d="M27 24c-1.73 0-4.938 0-16.39-4.422-1.933 1.753-4.697 3.741-4.818 3.828-0.225 0.161-0.537 0.109-0.698-0.115s-0.109-0.537 0.115-0.698c0.030-0.021 3.063-2.203 4.951-3.959 0.14-0.131 0.342-0.169 0.521-0.101 11.515 4.466 14.64 4.466 16.319 4.466 0.276 0 0.5 0.224 0.5 0.5s-0.224 0.5-0.5 0.5z"></path>
<path fill="#0f82ff" d="M27 26c-1.73 0-4.938 0-16.39-4.422-1.933 1.753-4.697 3.741-4.818 3.828-0.225 0.161-0.537 0.109-0.698-0.115s-0.109-0.537 0.115-0.698c0.030-0.021 3.063-2.203 4.951-3.959 0.14-0.131 0.342-0.169 0.521-0.101 11.515 4.466 14.64 4.466 16.319 4.466 0.276 0 0.5 0.224 0.5 0.5s-0.224 0.5-0.5 0.5z"></path>
<path fill="#0f82ff" d="M27 28c-1.73 0-4.938 0-16.39-4.422-1.933 1.753-4.697 3.741-4.818 3.828-0.225 0.162-0.537 0.11-0.698-0.115s-0.109-0.537 0.115-0.698c0.030-0.021 3.063-2.203 4.951-3.959 0.14-0.131 0.342-0.169 0.521-0.101 11.515 4.466 14.64 4.466 16.319 4.466 0.276 0 0.5 0.224 0.5 0.5s-0.224 0.5-0.5 0.5z"></path>
<path fill="#0f82ff" d="M17.261 27.95c-0.052 0-0.105-0.008-0.157-0.025-1.901-0.627-4.085-1.416-6.495-2.346-0.867 0.787-1.808 1.531-2.702 2.223-0.218 0.169-0.532 0.128-0.701-0.090s-0.129-0.532 0.090-0.701c0.956-0.739 1.963-1.538 2.864-2.377 0.14-0.131 0.342-0.169 0.521-0.101 2.51 0.974 4.777 1.796 6.737 2.441 0.262 0.087 0.404 0.369 0.319 0.631-0.070 0.21-0.265 0.343-0.475 0.343z"></path>
<path fill="#0f82ff" d="M7.5 17c-0.239 0-0.45-0.172-0.492-0.415-0.048-0.272 0.135-0.531 0.407-0.578 0.059-0.011 5.9-1.044 9.299-3.418 0.177-0.124 0.413-0.12 0.586 0.010 1.14 0.855 5.853 2.921 5.901 2.942 0.253 0.111 0.369 0.405 0.258 0.658s-0.406 0.369-0.659 0.258c-0.184-0.081-4.249-1.863-5.8-2.854-3.601 2.361-9.172 3.346-9.414 3.388-0.029 0.005-0.057 0.008-0.085 0.008z"></path>
<path fill="#0f82ff" d="M23 18.5c-0.067 0-0.135-0.013-0.2-0.042-0.185-0.081-4.25-1.863-5.801-2.854-1.302 0.853-3.006 1.622-5.075 2.287-0.264 0.083-0.544-0.060-0.629-0.323s0.060-0.545 0.323-0.63c2.13-0.685 3.845-1.476 5.096-2.349 0.177-0.124 0.413-0.12 0.587 0.010 1.14 0.855 5.852 2.921 5.9 2.942 0.253 0.111 0.369 0.405 0.258 0.658-0.082 0.188-0.266 0.3-0.459 0.3z"></path>
<path fill="#0f82ff" d="M23 20.5c-0.067 0-0.135-0.013-0.2-0.042-0.185-0.081-4.25-1.863-5.801-2.854-0.661 0.433-1.433 0.848-2.3 1.236-0.252 0.11-0.548 0-0.661-0.253s0-0.548 0.252-0.661c0.938-0.419 1.754-0.869 2.424-1.337 0.177-0.123 0.413-0.121 0.587 0.010 1.14 0.855 5.852 2.921 5.9 2.942 0.253 0.111 0.369 0.405 0.258 0.658-0.082 0.188-0.266 0.3-0.459 0.3z"></path>
<path fill="#0f82ff" d="M10.499 10c-0.231 0-0.438-0.161-0.489-0.396-0.057-0.27 0.115-0.536 0.386-0.593 0.045-0.009 4.556-0.974 7.899-2.467 0.163-0.074 0.353-0.053 0.497 0.051 1.273 0.923 2.404 1.445 2.415 1.451 0.251 0.114 0.361 0.412 0.247 0.662s-0.412 0.361-0.663 0.246c-0.047-0.021-1.095-0.504-2.351-1.383-3.402 1.47-7.654 2.378-7.838 2.418-0.035 0.007-0.070 0.011-0.104 0.011z"></path>
<path fill="#0f82ff" d="M10.499 12c-0.231 0-0.438-0.161-0.489-0.396-0.057-0.27 0.115-0.536 0.386-0.593 0.045-0.009 4.556-0.974 7.899-2.467 0.163-0.074 0.353-0.053 0.497 0.052 1.273 0.923 2.404 1.445 2.415 1.45 0.251 0.114 0.361 0.412 0.247 0.662s-0.412 0.362-0.663 0.246c-0.047-0.021-1.095-0.504-2.351-1.383-3.402 1.47-7.654 2.378-7.838 2.418-0.035 0.007-0.070 0.011-0.104 0.011z"></path>
<path fill="#0f82ff" d="M21 13c-0.070 0-0.14-0.014-0.207-0.046-0.046-0.021-1.061-0.488-2.291-1.341-0.238 0.149-0.558 0.299-0.866 0.281-0.276-0.017-0.485-0.254-0.468-0.53s0.25-0.48 0.53-0.468c0.077-0.008 0.317-0.145 0.483-0.282 0.176-0.145 0.428-0.154 0.613-0.020 1.273 0.923 2.404 1.445 2.415 1.45 0.251 0.114 0.361 0.412 0.247 0.662-0.084 0.184-0.265 0.292-0.455 0.292z"></path>
</svg>
