<?xml version="1.0" encoding="utf-8"?>
<!-- Generated by IcoMoon.io -->
<!DOCTYPE svg PUBLIC "-//W3C//DTD SVG 1.1//EN" "http://www.w3.org/Graphics/SVG/1.1/DTD/svg11.dtd">
<svg version="1.1" xmlns="http://www.w3.org/2000/svg" xmlns:xlink="http://www.w3.org/1999/xlink" width="32" height="32" viewBox="0 0 32 32">
<path fill="#0f82ff" d="M19.5 27.5c-0.276 0-0.5-0.224-0.5-0.5v-17.5h-6v17.5c0 0.276-0.224 0.5-0.5 0.5s-0.5-0.224-0.5-0.5v-18c0-0.276 0.224-0.5 0.5-0.5h7c0.276 0 0.5 0.224 0.5 0.5v18c0 0.276-0.224 0.5-0.5 0.5z"></path>
<path fill="#0f82ff" d="M27 27.5h-21.5c-0.276 0-0.5-0.224-0.5-0.5s0.224-0.5 0.5-0.5h21.5c0.276 0 0.5 0.224 0.5 0.5s-0.224 0.5-0.5 0.5z"></path>
<path fill="#0f82ff" d="M17.5 11.5h-3c-0.276 0-0.5-0.224-0.5-0.5s0.224-0.5 0.5-0.5h3c0.276 0 0.5 0.224 0.5 0.5s-0.224 0.5-0.5 0.5z"></path>
<path fill="#0f82ff" d="M17.5 13.5h-3c-0.276 0-0.5-0.224-0.5-0.5s0.224-0.5 0.5-0.5h3c0.276 0 0.5 0.224 0.5 0.5s-0.224 0.5-0.5 0.5z"></path>
<path fill="#0f82ff" d="M17.5 15.5h-3c-0.276 0-0.5-0.224-0.5-0.5s0.224-0.5 0.5-0.5h3c0.276 0 0.5 0.224 0.5 0.5s-0.224 0.5-0.5 0.5z"></path>
<path fill="#0f82ff" d="M17.5 17.5h-3c-0.276 0-0.5-0.224-0.5-0.5s0.224-0.5 0.5-0.5h3c0.276 0 0.5 0.224 0.5 0.5s-0.224 0.5-0.5 0.5z"></path>
<path fill="#0f82ff" d="M17.5 19.5h-3c-0.276 0-0.5-0.224-0.5-0.5s0.224-0.5 0.5-0.5h3c0.276 0 0.5 0.224 0.5 0.5s-0.224 0.5-0.5 0.5z"></path>
<path fill="#0f82ff" d="M17.5 21.5h-3c-0.276 0-0.5-0.224-0.5-0.5s0.224-0.5 0.5-0.5h3c0.276 0 0.5 0.224 0.5 0.5s-0.224 0.5-0.5 0.5z"></path>
<path fill="#0f82ff" d="M17.5 23.5h-3c-0.276 0-0.5-0.224-0.5-0.5s0.224-0.5 0.5-0.5h3c0.276 0 0.5 0.224 0.5 0.5s-0.224 0.5-0.5 0.5z"></path>
<path fill="#0f82ff" d="M17.5 25.5h-3c-0.276 0-0.5-0.224-0.5-0.5s0.224-0.5 0.5-0.5h3c0.276 0 0.5 0.224 0.5 0.5s-0.224 0.5-0.5 0.5z"></path>
<path fill="#0f82ff" d="M17.5 9.5c-0.276 0-0.5-0.224-0.5-0.5v-1.5h-2v1.5c0 0.276-0.224 0.5-0.5 0.5s-0.5-0.224-0.5-0.5v-2c0-0.276 0.224-0.5 0.5-0.5h3c0.276 0 0.5 0.224 0.5 0.5v2c0 0.276-0.224 0.5-0.5 0.5z"></path>
<path fill="#0f82ff" d="M16 7.5c-0.276 0-0.5-0.224-0.5-0.5v-2c0-0.276 0.224-0.5 0.5-0.5s0.5 0.224 0.5 0.5v2c0 0.276-0.224 0.5-0.5 0.5z"></path>
<path fill="#0f82ff" d="M25.5 27c-0.276 0-0.5-0.224-0.5-0.5v-14c0-0.275-0.224-0.5-0.5-0.5h-5c-0.276 0-0.5-0.224-0.5-0.5s0.224-0.5 0.5-0.5h5c0.827 0 1.5 0.673 1.5 1.5v14c0 0.276-0.224 0.5-0.5 0.5z"></path>
<path fill="#0f82ff" d="M23.5 27c-0.276 0-0.5-0.224-0.5-0.5v-15c0-0.276 0.224-0.5 0.5-0.5s0.5 0.224 0.5 0.5v15c0 0.276-0.224 0.5-0.5 0.5z"></path>
<path fill="#0f82ff" d="M21.5 27c-0.276 0-0.5-0.224-0.5-0.5v-15c0-0.276 0.224-0.5 0.5-0.5s0.5 0.224 0.5 0.5v15c0 0.276-0.224 0.5-0.5 0.5z"></path>
<path fill="#0f82ff" d="M6.5 27c-0.276 0-0.5-0.224-0.5-0.5v-14c0-0.827 0.673-1.5 1.5-1.5h5c0.276 0 0.5 0.224 0.5 0.5s-0.224 0.5-0.5 0.5h-5c-0.276 0-0.5 0.225-0.5 0.5v14c0 0.276-0.224 0.5-0.5 0.5z"></path>
<path fill="#0f82ff" d="M8.5 27c-0.276 0-0.5-0.224-0.5-0.5v-15c0-0.276 0.224-0.5 0.5-0.5s0.5 0.224 0.5 0.5v15c0 0.276-0.224 0.5-0.5 0.5z"></path>
<path fill="#0f82ff" d="M10.5 27c-0.276 0-0.5-0.224-0.5-0.5v-15c0-0.276 0.224-0.5 0.5-0.5s0.5 0.224 0.5 0.5v15c0 0.276-0.224 0.5-0.5 0.5z"></path>
</svg>
