<?xml version="1.0" encoding="utf-8"?>
<!-- Generated by IcoMoon.io -->
<!DOCTYPE svg PUBLIC "-//W3C//DTD SVG 1.1//EN" "http://www.w3.org/Graphics/SVG/1.1/DTD/svg11.dtd">
<svg version="1.1" xmlns="http://www.w3.org/2000/svg" xmlns:xlink="http://www.w3.org/1999/xlink" width="32" height="32" viewBox="0 0 32 32">
<path fill="#0f82ff" d="M6 27h20v-9.412c-0.096-0.194-0.585-0.588-2-0.588-1.544 0-2.761 0.468-4.052 0.963-1.326 0.509-2.698 1.037-4.448 1.037-0.989 0-1.657-0.11-2.364-0.227-0.813-0.134-1.653-0.273-3.136-0.273-2.244 0-3.621 1.282-4 1.688v6.812zM26.5 28h-21c-0.276 0-0.5-0.224-0.5-0.5v-7.5c0-0.113 0.038-0.221 0.107-0.309 0.071-0.090 1.76-2.191 4.893-2.191 1.565 0 2.486 0.152 3.299 0.286 0.694 0.115 1.294 0.214 2.201 0.214 1.564 0 2.791-0.471 4.090-0.97 1.319-0.507 2.681-1.030 4.41-1.030 2.287 0 2.837 0.898 2.969 1.326 0.020 0.055 0.031 0.113 0.031 0.174v10c0 0.276-0.224 0.5-0.5 0.5v0z"></path>
<path fill="#0f82ff" d="M5.5 23c-0.109 0-0.218-0.035-0.309-0.107-0.217-0.171-0.255-0.485-0.083-0.702 0.070-0.090 1.76-2.191 4.893-2.191 1.565 0 2.486 0.152 3.298 0.286 0.695 0.115 1.295 0.214 2.202 0.214 1.565 0 2.791-0.471 4.089-0.97 1.318-0.507 2.681-1.030 4.41-1.030 2.287 0 2.837 0.898 2.969 1.326 0.020 0.055 0.031 0.113 0.031 0.174 0 0.251-0.186 0.465-0.435 0.498-0.252 0.034-0.485-0.131-0.55-0.372-0.047-0.174-0.5-0.625-2.014-0.625-1.544 0-2.762 0.468-4.052 0.963-1.326 0.509-2.698 1.037-4.448 1.037-0.989 0-1.657-0.11-2.365-0.227-0.813-0.134-1.652-0.273-3.135-0.273-2.652 0-4.093 1.791-4.107 1.809-0.098 0.125-0.245 0.191-0.393 0.191z"></path>
<path fill="#0f82ff" d="M5.5 25.5c-0.109 0-0.218-0.035-0.309-0.107-0.217-0.171-0.255-0.485-0.083-0.702 0.070-0.090 1.76-2.191 4.893-2.191 1.565 0 2.486 0.152 3.298 0.286 0.695 0.115 1.295 0.214 2.202 0.214 1.565 0 2.791-0.471 4.089-0.97 1.318-0.507 2.681-1.030 4.41-1.030 2.287 0 2.837 0.898 2.969 1.326 0.020 0.055 0.031 0.113 0.031 0.174 0 0.251-0.186 0.465-0.435 0.498-0.252 0.034-0.485-0.131-0.55-0.372-0.047-0.174-0.5-0.625-2.014-0.625-1.544 0-2.762 0.468-4.052 0.963-1.326 0.509-2.698 1.037-4.448 1.037-0.989 0-1.657-0.11-2.365-0.227-0.813-0.134-1.652-0.273-3.135-0.273-2.652 0-4.093 1.791-4.107 1.809-0.098 0.125-0.245 0.191-0.393 0.191z"></path>
<path fill="#0f82ff" d="M5.5 28c-0.109 0-0.218-0.035-0.309-0.107-0.217-0.171-0.255-0.485-0.083-0.702 0.070-0.090 1.76-2.191 4.893-2.191 1.565 0 2.486 0.152 3.298 0.286 0.695 0.115 1.295 0.214 2.202 0.214 1.565 0 2.791-0.471 4.089-0.97 1.318-0.507 2.681-1.030 4.41-1.030 2.287 0 2.837 0.898 2.969 1.326 0.020 0.055 0.031 0.113 0.031 0.174 0 0.251-0.186 0.465-0.435 0.498-0.252 0.032-0.485-0.131-0.55-0.372-0.047-0.174-0.5-0.625-2.014-0.625-1.544 0-2.762 0.468-4.052 0.963-1.326 0.509-2.698 1.037-4.448 1.037-0.989 0-1.657-0.11-2.365-0.227-0.813-0.134-1.652-0.273-3.135-0.273-2.652 0-4.093 1.791-4.107 1.809-0.098 0.125-0.245 0.191-0.393 0.191z"></path>
<path fill="#0f82ff" d="M15 18.5c-0.276 0-0.5-0.224-0.5-0.5v-9.953c-0.058-0.2-0.434-0.548-1.5-0.548-1.258 0-2.849 0.576-3.5 0.834v9.666c0 0.276-0.224 0.5-0.5 0.5s-0.5-0.224-0.5-0.5v-10c0-0.198 0.117-0.377 0.297-0.457 0.097-0.043 2.376-1.043 4.203-1.043 2.345 0 2.493 1.397 2.498 1.457l0.002 10.043c0 0.276-0.224 0.5-0.5 0.5z"></path>
<path fill="#0f82ff" d="M23.5 16.5h-1v-9.907c0-0.035 0.003-0.069 0.011-0.104 0.001-0.005 0.055-0.329-0.183-0.611-0.294-0.35-0.926-0.535-1.828-0.535-2.073 0-5.059 1.184-6 1.579v0.077h-0.182c-0.069 0.030-0.108 0.048-0.112 0.050l-0.023-0.050h-0.683v-0.407c0-0.197 0.116-0.375 0.294-0.456 0.163-0.073 4.017-1.794 6.706-1.794 1.241 0 2.121 0.309 2.614 0.917 0.454 0.561 0.416 1.171 0.386 1.375v9.866z"></path>
<path fill="#0f82ff" d="M9.001 10.5c-0.192 0-0.375-0.111-0.458-0.298-0.111-0.252 0.002-0.547 0.255-0.659 0.097-0.043 2.376-1.043 4.202-1.043 2.345 0 2.493 1.398 2.498 1.457 0.024 0.275-0.18 0.518-0.455 0.541-0.275 0.028-0.518-0.18-0.541-0.455-0.036-0.172-0.4-0.543-1.502-0.543-1.614 0-3.776 0.947-3.797 0.957-0.066 0.030-0.134 0.043-0.202 0.043z"></path>
<path fill="#0f82ff" d="M9.001 12.5c-0.192 0-0.375-0.111-0.458-0.298-0.111-0.252 0.002-0.547 0.255-0.659 0.097-0.043 2.376-1.043 4.202-1.043 2.345 0 2.493 1.398 2.498 1.457 0.024 0.275-0.18 0.518-0.455 0.541-0.275 0.028-0.518-0.18-0.541-0.455-0.036-0.172-0.4-0.543-1.502-0.543-1.614 0-3.776 0.947-3.797 0.957-0.066 0.030-0.134 0.043-0.202 0.043z"></path>
<path fill="#0f82ff" d="M9.001 14.5c-0.192 0-0.375-0.111-0.458-0.298-0.111-0.252 0.002-0.547 0.255-0.659 0.097-0.043 2.376-1.043 4.202-1.043 2.345 0 2.493 1.398 2.498 1.457 0.024 0.275-0.18 0.518-0.455 0.541-0.275 0.027-0.518-0.18-0.541-0.455-0.036-0.172-0.4-0.543-1.502-0.543-1.614 0-3.776 0.947-3.797 0.957-0.066 0.030-0.134 0.043-0.202 0.043z"></path>
<path fill="#0f82ff" d="M9.001 16.5c-0.192 0-0.375-0.111-0.458-0.298-0.111-0.252 0.002-0.547 0.255-0.659 0.097-0.043 2.376-1.043 4.202-1.043 2.345 0 2.493 1.397 2.498 1.457 0.024 0.275-0.18 0.518-0.455 0.541-0.275 0.027-0.518-0.18-0.541-0.455-0.036-0.172-0.4-0.543-1.502-0.543-1.614 0-3.776 0.948-3.797 0.957-0.066 0.029-0.134 0.043-0.202 0.043z"></path>
<path fill="#0f82ff" d="M15 18.5c-0.070 0-0.141-0.015-0.209-0.046-0.008-0.003-1.028-0.454-2.791-0.454-1.615 0-2.804 0.46-2.816 0.465-0.255 0.102-0.547-0.025-0.649-0.282s0.024-0.546 0.28-0.648c0.055-0.021 1.369-0.535 3.185-0.535 2.001 0 3.161 0.523 3.209 0.546 0.251 0.115 0.361 0.412 0.245 0.663-0.085 0.183-0.265 0.291-0.454 0.291z"></path>
<path fill="#0f82ff" d="M15.145 8.891l-0.29-0.957c0.127-0.038 0.351-0.118 0.642-0.221 1.33-0.471 3.807-1.348 5.268-1.348 1.161 0 1.975 0.296 2.421 0.88 0.498 0.653 0.319 1.378 0.297 1.458l-0.965-0.264c0.002-0.007 0.076-0.329-0.134-0.596-0.247-0.313-0.806-0.478-1.619-0.478-1.29 0-3.752 0.871-4.934 1.29-0.31 0.11-0.549 0.194-0.685 0.236z"></path>
<path fill="#0f82ff" d="M15.145 10.891l-0.29-0.957c0.127-0.039 0.351-0.118 0.642-0.221 1.33-0.471 3.807-1.348 5.268-1.348 1.161 0 1.975 0.296 2.421 0.88 0.498 0.653 0.319 1.377 0.297 1.458l-0.965-0.264c0.002-0.007 0.076-0.329-0.134-0.597-0.247-0.313-0.806-0.477-1.619-0.477-1.29 0-3.752 0.871-4.934 1.29-0.31 0.11-0.549 0.194-0.685 0.236z"></path>
<path fill="#0f82ff" d="M15.145 12.891l-0.29-0.957c0.127-0.039 0.351-0.118 0.642-0.221 1.33-0.471 3.807-1.348 5.268-1.348 1.161 0 1.975 0.296 2.421 0.88 0.498 0.653 0.319 1.377 0.297 1.458l-0.965-0.264c0.002-0.007 0.076-0.329-0.134-0.597-0.247-0.313-0.806-0.477-1.619-0.477-1.29 0-3.752 0.871-4.934 1.29-0.31 0.11-0.549 0.194-0.685 0.236z"></path>
<path fill="#0f82ff" d="M15.145 14.891l-0.29-0.957c0.127-0.039 0.351-0.118 0.642-0.221 1.33-0.471 3.807-1.348 5.268-1.348 1.161 0 1.975 0.296 2.421 0.88 0.498 0.653 0.319 1.377 0.297 1.458l-0.965-0.264c0.002-0.007 0.076-0.329-0.134-0.597-0.247-0.313-0.806-0.477-1.619-0.477-1.29 0-3.752 0.871-4.934 1.29-0.31 0.11-0.549 0.194-0.685 0.236z"></path>
<path fill="#0f82ff" d="M15.154 16.888l-0.309-0.951c0.111-0.037 0.305-0.107 0.557-0.2 1.302-0.479 3.727-1.371 5.127-1.371 1.069 0 1.815 0.283 2.218 0.841 0.486 0.672 0.255 1.437 0.227 1.522l-0.95-0.314c0 0 0.105-0.362-0.092-0.628-0.201-0.271-0.7-0.421-1.404-0.421-1.222 0-3.626 0.884-4.782 1.309-0.268 0.099-0.475 0.174-0.594 0.213z"></path>
<path fill="#0f82ff" d="M24 27.5h-1v-3.5h1v3.5z"></path>
<path fill="#0f82ff" d="M21.5 27.5h-1v-3h1v3z"></path>
<path fill="#0f82ff" d="M19 27.5h-1v-2h1v2z"></path>
<path fill="#0f82ff" d="M16 27.5h-1v-1.5h1v1.5z"></path>
<path fill="#0f82ff" d="M13 27.5h-1v-2h1v2z"></path>
<path fill="#0f82ff" d="M10 27.5h-1v-2h1v2z"></path>
</svg>
