<?xml version="1.0" encoding="utf-8"?>
<!-- Generated by IcoMoon.io -->
<!DOCTYPE svg PUBLIC "-//W3C//DTD SVG 1.1//EN" "http://www.w3.org/Graphics/SVG/1.1/DTD/svg11.dtd">
<svg version="1.1" xmlns="http://www.w3.org/2000/svg" xmlns:xlink="http://www.w3.org/1999/xlink" width="32" height="32" viewBox="0 0 32 32">
<path fill="#0f82ff" d="M26 27.5c-0.276 0-0.5-0.224-0.5-0.5v-21.5h-9v21.5c0 0.276-0.224 0.5-0.5 0.5s-0.5-0.224-0.5-0.5v-22c0-0.276 0.224-0.5 0.5-0.5h10c0.276 0 0.5 0.224 0.5 0.5v22c0 0.276-0.224 0.5-0.5 0.5z"></path>
<path fill="#0f82ff" d="M23.5 27.5c-0.276 0-0.5-0.224-0.5-0.5v-3.5h-4v3.5c0 0.276-0.224 0.5-0.5 0.5s-0.5-0.224-0.5-0.5v-4c0-0.276 0.224-0.5 0.5-0.5h5c0.276 0 0.5 0.224 0.5 0.5v4c0 0.276-0.224 0.5-0.5 0.5z"></path>
<path fill="#0f82ff" d="M19 20.5h4v-1h-4v1zM23.5 21.5h-5c-0.276 0-0.5-0.224-0.5-0.5v-2c0-0.276 0.224-0.5 0.5-0.5h5c0.276 0 0.5 0.224 0.5 0.5v2c0 0.276-0.224 0.5-0.5 0.5v0z"></path>
<path fill="#0f82ff" d="M19 16.5h4v-1h-4v1zM23.5 17.5h-5c-0.276 0-0.5-0.224-0.5-0.5v-2c0-0.276 0.224-0.5 0.5-0.5h5c0.276 0 0.5 0.224 0.5 0.5v2c0 0.276-0.224 0.5-0.5 0.5v0z"></path>
<path fill="#0f82ff" d="M19 12.5h4v-1h-4v1zM23.5 13.5h-5c-0.276 0-0.5-0.224-0.5-0.5v-2c0-0.276 0.224-0.5 0.5-0.5h5c0.276 0 0.5 0.224 0.5 0.5v2c0 0.276-0.224 0.5-0.5 0.5v0z"></path>
<path fill="#0f82ff" d="M19 8.5h4v-1h-4v1zM23.5 9.5h-5c-0.276 0-0.5-0.224-0.5-0.5v-2c0-0.276 0.224-0.5 0.5-0.5h5c0.276 0 0.5 0.224 0.5 0.5v2c0 0.276-0.224 0.5-0.5 0.5v0z"></path>
<path fill="#0f82ff" d="M27 27.5h-22c-0.276 0-0.5-0.224-0.5-0.5s0.224-0.5 0.5-0.5h22c0.276 0 0.5 0.224 0.5 0.5s-0.224 0.5-0.5 0.5z"></path>
<path fill="#0f82ff" d="M6 27c-0.276 0-0.5-0.224-0.5-0.5v-16.5c0-0.276 0.224-0.5 0.5-0.5h10c0.276 0 0.5 0.224 0.5 0.5s-0.224 0.5-0.5 0.5h-9.5v16c0 0.276-0.224 0.5-0.5 0.5z"></path>
<path fill="#0f82ff" d="M9 17h4v-4h-4v4zM13.5 18h-5c-0.276 0-0.5-0.224-0.5-0.5v-5c0-0.276 0.224-0.5 0.5-0.5h5c0.276 0 0.5 0.224 0.5 0.5v5c0 0.276-0.224 0.5-0.5 0.5v0z"></path>
<path fill="#0f82ff" d="M11 17.5c-0.276 0-0.5-0.224-0.5-0.5v-4.5c0-0.276 0.224-0.5 0.5-0.5s0.5 0.224 0.5 0.5v4.5c0 0.276-0.224 0.5-0.5 0.5z"></path>
<path fill="#0f82ff" d="M13 15.5h-4c-0.276 0-0.5-0.224-0.5-0.5s0.224-0.5 0.5-0.5h4c0.276 0 0.5 0.224 0.5 0.5s-0.224 0.5-0.5 0.5z"></path>
<path fill="#0f82ff" d="M9 24h4v-4h-4v4zM13.5 25h-5c-0.276 0-0.5-0.224-0.5-0.5v-5c0-0.276 0.224-0.5 0.5-0.5h5c0.276 0 0.5 0.224 0.5 0.5v5c0 0.276-0.224 0.5-0.5 0.5v0z"></path>
<path fill="#0f82ff" d="M11 24.5c-0.276 0-0.5-0.224-0.5-0.5v-4.5c0-0.276 0.224-0.5 0.5-0.5s0.5 0.224 0.5 0.5v4.5c0 0.276-0.224 0.5-0.5 0.5z"></path>
<path fill="#0f82ff" d="M13 22.5h-4c-0.276 0-0.5-0.224-0.5-0.5s0.224-0.5 0.5-0.5h4c0.276 0 0.5 0.224 0.5 0.5s-0.224 0.5-0.5 0.5z"></path>
<path fill="#0f82ff" d="M13 10c-0.276 0-0.5-0.224-0.5-0.5v-1.5c0-0.133 0.053-0.26 0.146-0.354l3-3c0.195-0.196 0.512-0.196 0.707 0s0.195 0.511 0 0.707l-2.854 2.853v1.293c0 0.276-0.224 0.5-0.5 0.5z"></path>
</svg>
