<?xml version="1.0" encoding="utf-8"?>
<!-- Generated by IcoMoon.io -->
<!DOCTYPE svg PUBLIC "-//W3C//DTD SVG 1.1//EN" "http://www.w3.org/Graphics/SVG/1.1/DTD/svg11.dtd">
<svg version="1.1" xmlns="http://www.w3.org/2000/svg" xmlns:xlink="http://www.w3.org/1999/xlink" width="32" height="32" viewBox="0 0 32 32">
<path fill="#0f82ff" d="M25.5 27.5c-0.276 0-0.5-0.224-0.5-0.5v-11.213l-5.5-3.208-5.5 3.208v11.213c0 0.276-0.224 0.5-0.5 0.5s-0.5-0.224-0.5-0.5v-11.5c0-0.178 0.095-0.342 0.248-0.432l6-3.5c0.156-0.091 0.348-0.091 0.504 0l6 3.5c0.154 0.089 0.248 0.255 0.248 0.432v11.5c0 0.276-0.224 0.5-0.5 0.5z"></path>
<path fill="#0f82ff" d="M7 27.5c-0.276 0-0.5-0.224-0.5-0.5v-21.5c0-0.276 0.224-0.5 0.5-0.5h10.5c0.276 0 0.5 0.224 0.5 0.5v7.5c0 0.276-0.224 0.5-0.5 0.5s-0.5-0.224-0.5-0.5v-7h-9.5v21c0 0.276-0.224 0.5-0.5 0.5z"></path>
<path fill="#0f82ff" d="M22 27c-0.276 0-0.5-0.224-0.5-0.5v-6.5h-4v6.5c0 0.276-0.224 0.5-0.5 0.5s-0.5-0.224-0.5-0.5v-7c0-0.276 0.224-0.5 0.5-0.5h5c0.276 0 0.5 0.224 0.5 0.5v7c0 0.276-0.224 0.5-0.5 0.5z"></path>
<path fill="#0f82ff" d="M21 18h-3c-0.276 0-0.5-0.224-0.5-0.5s0.224-0.5 0.5-0.5h3c0.276 0 0.5 0.224 0.5 0.5s-0.224 0.5-0.5 0.5z"></path>
<path fill="#0f82ff" d="M10 9h0.5v-0.5h-0.5v0.5zM11 10h-1.5c-0.276 0-0.5-0.224-0.5-0.5v-1.5c0-0.276 0.224-0.5 0.5-0.5h1.5c0.276 0 0.5 0.224 0.5 0.5v1.5c0 0.276-0.224 0.5-0.5 0.5v0z"></path>
<path fill="#0f82ff" d="M14 9h0.5v-0.5h-0.5v0.5zM15 10h-1.5c-0.276 0-0.5-0.224-0.5-0.5v-1.5c0-0.276 0.224-0.5 0.5-0.5h1.5c0.276 0 0.5 0.224 0.5 0.5v1.5c0 0.276-0.224 0.5-0.5 0.5v0z"></path>
<path fill="#0f82ff" d="M10 12.5h0.5v-0.5h-0.5v0.5zM11 13.5h-1.5c-0.276 0-0.5-0.224-0.5-0.5v-1.5c0-0.276 0.224-0.5 0.5-0.5h1.5c0.276 0 0.5 0.224 0.5 0.5v1.5c0 0.276-0.224 0.5-0.5 0.5v0z"></path>
<path fill="#0f82ff" d="M14 12.5h0.5v-0.5h-0.5v0.5zM15 13.5h-1.5c-0.276 0-0.5-0.224-0.5-0.5v-1.5c0-0.276 0.224-0.5 0.5-0.5h1.5c0.276 0 0.5 0.224 0.5 0.5v1.5c0 0.276-0.224 0.5-0.5 0.5v0z"></path>
<path fill="#0f82ff" d="M26.5 27.5h-21c-0.276 0-0.5-0.224-0.5-0.5s0.224-0.5 0.5-0.5h21c0.276 0 0.5 0.224 0.5 0.5s-0.224 0.5-0.5 0.5z"></path>
</svg>
