<?xml version="1.0" encoding="utf-8"?>
<!-- Generated by IcoMoon.io -->
<!DOCTYPE svg PUBLIC "-//W3C//DTD SVG 1.1//EN" "http://www.w3.org/Graphics/SVG/1.1/DTD/svg11.dtd">
<svg version="1.1" xmlns="http://www.w3.org/2000/svg" xmlns:xlink="http://www.w3.org/1999/xlink" width="32" height="32" viewBox="0 0 32 32">
<path fill="#2e92ff" d="M24 27.5h-16c-0.827 0-1.5-0.673-1.5-1.5v-5h1v5c0 0.276 0.224 0.5 0.5 0.5h16c0.276 0 0.5-0.224 0.5-0.5v-14.793l-5.707-5.707h-10.793c-0.276 0-0.5 0.224-0.5 0.5v9h-1v-9c0-0.827 0.673-1.5 1.5-1.5h11c0.133 0 0.26 0.053 0.354 0.146l6 6c0.094 0.094 0.146 0.22 0.146 0.354v15c0 0.827-0.673 1.5-1.5 1.5z"></path>
<path fill="#2e92ff" d="M25 11.5h-6c-0.276 0-0.5-0.223-0.5-0.5v-5.5h1v5h5.5v1z"></path>
<path fill="#2e92ff" d="M4.5 21h16v-5.5h-16v5.5zM21 22h-17c-0.276 0-0.5-0.224-0.5-0.5v-6.5c0-0.277 0.224-0.5 0.5-0.5h17c0.276 0 0.5 0.223 0.5 0.5v6.5c0 0.276-0.224 0.5-0.5 0.5v0z"></path>
<path fill="#2e92ff" d="M7.267 19.87c0.099 0.018 0.243 0.023 0.396 0.023 0.837 0 1.292-0.468 1.292-1.288 0.005-0.715-0.4-1.17-1.229-1.17-0.202 0-0.356 0.017-0.459 0.041v2.395zM6.876 17.188c0.239-0.036 0.522-0.064 0.832-0.064 0.563 0 0.963 0.131 1.229 0.378 0.27 0.247 0.428 0.599 0.428 1.089 0 0.495-0.153 0.901-0.437 1.18-0.284 0.284-0.752 0.436-1.341 0.436-0.279 0-0.513-0.014-0.711-0.035v-2.985z"></path>
<path fill="#2e92ff" d="M10.561 18.682c0 0.648 0.351 1.229 0.968 1.229 0.621 0 0.972-0.572 0.972-1.26 0-0.604-0.315-1.233-0.967-1.233-0.649 0-0.973 0.599-0.973 1.264zM12.916 18.632c0 1.044-0.635 1.598-1.409 1.598-0.802 0-1.364-0.621-1.364-1.539 0-0.963 0.598-1.594 1.409-1.594 0.828 0 1.364 0.635 1.364 1.535z"></path>
<path fill="#2e92ff" d="M15.993 20.082c-0.144 0.073-0.432 0.144-0.802 0.144-0.855 0-1.498-0.54-1.498-1.535 0-0.951 0.643-1.594 1.585-1.594 0.378 0 0.617 0.081 0.72 0.136l-0.095 0.319c-0.149-0.072-0.36-0.126-0.612-0.126-0.712 0-1.184 0.455-1.184 1.252 0 0.743 0.428 1.22 1.166 1.22 0.239 0 0.482-0.049 0.639-0.126l0.081 0.311z"></path>
</svg>
