<?xml version="1.0" encoding="utf-8"?>
<!-- Generated by IcoMoon.io -->
<!DOCTYPE svg PUBLIC "-//W3C//DTD SVG 1.1//EN" "http://www.w3.org/Graphics/SVG/1.1/DTD/svg11.dtd">
<svg version="1.1" xmlns="http://www.w3.org/2000/svg" xmlns:xlink="http://www.w3.org/1999/xlink" width="32" height="32" viewBox="0 0 32 32">
<path fill="#2e92ff" d="M24 27.5h-16c-0.827 0-1.5-0.673-1.5-1.5v-5h1v5c0 0.276 0.224 0.5 0.5 0.5h16c0.276 0 0.5-0.224 0.5-0.5v-14.793l-5.707-5.707h-10.793c-0.276 0-0.5 0.224-0.5 0.5v9h-1v-9c0-0.827 0.673-1.5 1.5-1.5h11c0.133 0 0.26 0.053 0.354 0.146l6 6c0.094 0.094 0.146 0.22 0.146 0.354v15c0 0.827-0.673 1.5-1.5 1.5z"></path>
<path fill="#2e92ff" d="M25 11.5h-6c-0.276 0-0.5-0.223-0.5-0.5v-5.5h1v5h5.5v1z"></path>
<path fill="#2e92ff" d="M4.5 21h16v-5.5h-16v5.5zM21 22h-17c-0.276 0-0.5-0.224-0.5-0.5v-6.5c0-0.277 0.224-0.5 0.5-0.5h17c0.276 0 0.5 0.223 0.5 0.5v6.5c0 0.276-0.224 0.5-0.5 0.5v0z"></path>
<path fill="#2e92ff" d="M8.537 20.181l-0.387-0.671c-0.157-0.256-0.257-0.423-0.351-0.599h-0.009c-0.085 0.175-0.171 0.338-0.329 0.604l-0.364 0.666h-0.45l0.927-1.535-0.891-1.498h0.455l0.401 0.711c0.112 0.198 0.199 0.351 0.279 0.513h0.013c0.085-0.18 0.162-0.32 0.274-0.513l0.414-0.711h0.45l-0.922 1.476 0.945 1.558h-0.454z"></path>
<path fill="#2e92ff" d="M9.895 17.147h0.392v2.705h1.296v0.328h-1.688v-3.034z"></path>
<path fill="#2e92ff" d="M12.415 19.704c0.175 0.108 0.432 0.198 0.702 0.198 0.401 0 0.635-0.212 0.635-0.518 0-0.283-0.162-0.445-0.572-0.603-0.495-0.175-0.801-0.432-0.801-0.86 0-0.473 0.392-0.824 0.982-0.824 0.31 0 0.536 0.073 0.671 0.148l-0.108 0.32c-0.099-0.055-0.302-0.144-0.576-0.144-0.415 0-0.572 0.247-0.572 0.454 0 0.284 0.184 0.423 0.604 0.585 0.513 0.198 0.774 0.445 0.774 0.892 0 0.468-0.347 0.873-1.062 0.873-0.293 0-0.613-0.085-0.774-0.194l0.099-0.329z"></path>
</svg>
