<?xml version="1.0" encoding="utf-8"?>
<!-- Generated by IcoMoon.io -->
<!DOCTYPE svg PUBLIC "-//W3C//DTD SVG 1.1//EN" "http://www.w3.org/Graphics/SVG/1.1/DTD/svg11.dtd">
<svg version="1.1" xmlns="http://www.w3.org/2000/svg" xmlns:xlink="http://www.w3.org/1999/xlink" width="32" height="32" viewBox="0 0 32 32">
<path fill="#2e92ff" d="M6.895 14h18.21l-3.384-5.5h-11.441l-3.385 5.5zM26.010 15c-0.002 0.001-0.006 0-0.009 0h-20c-0.181 0-0.348-0.098-0.436-0.256s-0.085-0.352 0.011-0.506l4-6.5c0.091-0.148 0.252-0.238 0.426-0.238h12c0.174 0 0.335 0.090 0.426 0.238l3.954 6.426c0.081 0.089 0.129 0.207 0.129 0.336 0 0.277-0.224 0.5-0.5 0.5v0z"></path>
<path fill="#2e92ff" d="M26 17h-20c-0.277 0-0.5-0.224-0.5-0.5s0.223-0.5 0.5-0.5h20c0.276 0 0.5 0.224 0.5 0.5s-0.224 0.5-0.5 0.5z"></path>
<path fill="#2e92ff" d="M26 19h-20c-0.277 0-0.5-0.224-0.5-0.5s0.223-0.5 0.5-0.5h20c0.276 0 0.5 0.224 0.5 0.5s-0.224 0.5-0.5 0.5z"></path>
<path fill="#2e92ff" d="M26 21h-20c-0.277 0-0.5-0.224-0.5-0.5s0.223-0.5 0.5-0.5h20c0.276 0 0.5 0.224 0.5 0.5s-0.224 0.5-0.5 0.5z"></path>
<path fill="#2e92ff" d="M26 23h-20c-0.277 0-0.5-0.224-0.5-0.5s0.223-0.5 0.5-0.5h20c0.276 0 0.5 0.224 0.5 0.5s-0.224 0.5-0.5 0.5z"></path>
<path fill="#2e92ff" d="M26 25h-20c-0.277 0-0.5-0.224-0.5-0.5s0.223-0.5 0.5-0.5h20c0.276 0 0.5 0.224 0.5 0.5s-0.224 0.5-0.5 0.5z"></path>
</svg>
