<?xml version="1.0" encoding="utf-8"?>
<!-- Generated by IcoMoon.io -->
<!DOCTYPE svg PUBLIC "-//W3C//DTD SVG 1.1//EN" "http://www.w3.org/Graphics/SVG/1.1/DTD/svg11.dtd">
<svg version="1.1" xmlns="http://www.w3.org/2000/svg" xmlns:xlink="http://www.w3.org/1999/xlink" width="32" height="32" viewBox="0 0 32 32">
<path fill="#2e92ff" d="M24 27.5h-16c-0.827 0-1.5-0.673-1.5-1.5v-5h1v5c0 0.276 0.224 0.5 0.5 0.5h16c0.276 0 0.5-0.224 0.5-0.5v-14.793l-5.707-5.707h-10.793c-0.276 0-0.5 0.224-0.5 0.5v9h-1v-9c0-0.827 0.673-1.5 1.5-1.5h11c0.133 0 0.26 0.053 0.354 0.146l6 6c0.094 0.094 0.146 0.22 0.146 0.354v15c0 0.827-0.673 1.5-1.5 1.5z"></path>
<path fill="#2e92ff" d="M25 11.5h-6c-0.276 0-0.5-0.223-0.5-0.5v-5.5h1v5h5.5v1z"></path>
<path fill="#2e92ff" d="M4.5 21h16v-5.5h-16v5.5zM21 22h-17c-0.276 0-0.5-0.224-0.5-0.5v-6.5c0-0.277 0.224-0.5 0.5-0.5h17c0.276 0 0.5 0.223 0.5 0.5v6.5c0 0.276-0.224 0.5-0.5 0.5v0z"></path>
<path fill="#2e92ff" d="M7.497 17.147h0.391v2.030c0 0.805-0.396 1.053-0.918 1.053-0.144 0-0.319-0.031-0.418-0.072l0.059-0.32c0.081 0.032 0.199 0.058 0.329 0.058 0.351 0 0.558-0.157 0.558-0.752v-1.998z"></path>
<path fill="#2e92ff" d="M9.382 18.645c0.085 0.023 0.194 0.032 0.324 0.032 0.473 0 0.761-0.23 0.761-0.648 0-0.401-0.284-0.594-0.716-0.594-0.171 0-0.302 0.013-0.369 0.032v1.179zM8.991 17.183c0.189-0.031 0.437-0.058 0.752-0.058 0.387 0 0.671 0.090 0.851 0.253 0.166 0.144 0.265 0.364 0.265 0.634 0 0.274-0.081 0.491-0.234 0.648-0.207 0.221-0.544 0.333-0.928 0.333-0.117 0-0.225-0.004-0.315-0.026v1.215h-0.392v-2.998z"></path>
<path fill="#2e92ff" d="M14.144 20.045c-0.175 0.063-0.522 0.167-0.932 0.167-0.459 0-0.837-0.117-1.134-0.401-0.261-0.252-0.423-0.657-0.423-1.13 0.004-0.904 0.626-1.566 1.643-1.566 0.351 0 0.626 0.076 0.757 0.14l-0.095 0.32c-0.162-0.072-0.365-0.131-0.671-0.131-0.739 0-1.22 0.459-1.22 1.22 0 0.77 0.463 1.225 1.17 1.225 0.257 0 0.432-0.037 0.522-0.081v-0.904h-0.617v-0.315h0.999v1.458z"></path>
</svg>
