<?xml version="1.0" encoding="utf-8"?>
<!-- Generated by IcoMoon.io -->
<!DOCTYPE svg PUBLIC "-//W3C//DTD SVG 1.1//EN" "http://www.w3.org/Graphics/SVG/1.1/DTD/svg11.dtd">
<svg version="1.1" xmlns="http://www.w3.org/2000/svg" xmlns:xlink="http://www.w3.org/1999/xlink" width="32" height="32" viewBox="0 0 32 32">
<path fill="#2e92ff" d="M8 5.5c-0.276 0-0.5 0.224-0.5 0.5v20c0 0.276 0.224 0.5 0.5 0.5h16c0.276 0 0.5-0.224 0.5-0.5v-14.793l-5.707-5.707h-10.793zM24 27.5h-16c-0.827 0-1.5-0.673-1.5-1.5v-20c0-0.827 0.673-1.5 1.5-1.5h11c0.133 0 0.259 0.053 0.354 0.146l6 6c0.093 0.094 0.146 0.22 0.146 0.354v15c0 0.827-0.673 1.5-1.5 1.5v0z"></path>
<path fill="#2e92ff" d="M25 11.5h-6c-0.276 0-0.5-0.223-0.5-0.5v-5.5h1v5h5.5v1z"></path>
<path fill="#2e92ff" d="M16 19c-0.277 0-0.5-0.224-0.5-0.5v-4.5c0-0.277 0.223-0.5 0.5-0.5s0.5 0.223 0.5 0.5v4.5c0 0.276-0.224 0.5-0.5 0.5z"></path>
<path fill="#2e92ff" d="M16 19.5c-0.128 0-0.256-0.049-0.354-0.146l-1.594-1.593c-0.195-0.195-0.195-0.512 0-0.707s0.512-0.195 0.707 0l1.24 1.241 1.302-1.303c0.195-0.195 0.512-0.195 0.707 0s0.195 0.512 0 0.707l-1.656 1.656c-0.098 0.098-0.226 0.146-0.354 0.146z"></path>
<path fill="#2e92ff" d="M18.5 22h-5c-0.827 0-1.5-0.673-1.5-1.5v-1c0-0.276 0.223-0.5 0.5-0.5s0.5 0.224 0.5 0.5v1c0 0.276 0.224 0.5 0.5 0.5h5c0.276 0 0.5-0.224 0.5-0.5v-1c0-0.276 0.224-0.5 0.5-0.5s0.5 0.224 0.5 0.5v1c0 0.827-0.673 1.5-1.5 1.5z"></path>
</svg>
