<?xml version="1.0" encoding="utf-8"?>
<!-- Generated by IcoMoon.io -->
<!DOCTYPE svg PUBLIC "-//W3C//DTD SVG 1.1//EN" "http://www.w3.org/Graphics/SVG/1.1/DTD/svg11.dtd">
<svg version="1.1" xmlns="http://www.w3.org/2000/svg" xmlns:xlink="http://www.w3.org/1999/xlink" width="32" height="32" viewBox="0 0 32 32">
<path fill="#2e92ff" d="M8 5.5c-0.276 0-0.5 0.224-0.5 0.5v20c0 0.276 0.224 0.5 0.5 0.5h16c0.276 0 0.5-0.224 0.5-0.5v-14.793l-5.707-5.707h-10.793zM24 27.5h-16c-0.827 0-1.5-0.673-1.5-1.5v-20c0-0.827 0.673-1.5 1.5-1.5h11c0.133 0 0.259 0.053 0.354 0.146l6 6c0.093 0.094 0.146 0.221 0.146 0.354v15c0 0.827-0.673 1.5-1.5 1.5v0z"></path>
<path fill="#2e92ff" d="M25 11.5h-6c-0.276 0-0.5-0.224-0.5-0.5v-5.5h1v5h5.5v1z"></path>
<path fill="#2e92ff" d="M10.883 21.5h9.145l-1.628-2.28-2.087 1.671c-0.211 0.169-0.517 0.139-0.691-0.065l-2.549-2.974-2.188 3.648zM21 22.5h-11c-0.18 0-0.346-0.097-0.435-0.253s-0.086-0.349 0.007-0.504l3-5c0.082-0.137 0.226-0.227 0.386-0.241 0.166-0.014 0.318 0.051 0.421 0.173l2.686 3.133 2.122-1.698c0.108-0.085 0.247-0.123 0.381-0.105 0.136 0.019 0.259 0.093 0.338 0.205l2.5 3.5c0.109 0.152 0.123 0.352 0.038 0.52-0.086 0.166-0.258 0.271-0.445 0.271v0z"></path>
<path fill="#2e92ff" d="M13.25 11.5c-0.69 0-1.25 0.561-1.25 1.25s0.56 1.25 1.25 1.25c0.69 0 1.25-0.561 1.25-1.25s-0.56-1.25-1.25-1.25zM13.25 15c-1.241 0-2.25-1.009-2.25-2.25s1.009-2.25 2.25-2.25c1.241 0 2.25 1.009 2.25 2.25s-1.009 2.25-2.25 2.25z"></path>
</svg>
