<?xml version="1.0" encoding="utf-8"?>
<!-- Generated by IcoMoon.io -->
<!DOCTYPE svg PUBLIC "-//W3C//DTD SVG 1.1//EN" "http://www.w3.org/Graphics/SVG/1.1/DTD/svg11.dtd">
<svg version="1.1" xmlns="http://www.w3.org/2000/svg" xmlns:xlink="http://www.w3.org/1999/xlink" width="32" height="32" viewBox="0 0 32 32">
<path fill="#007aff" d="M7.5 8.5c-0.827 0-1.5 0.673-1.5 1.5v11.5c0 0.827 0.673 1.5 1.5 1.5h17.5c0.827 0 1.5-0.673 1.5-1.5v-11.5c0-0.827-0.673-1.5-1.5-1.5h-17.5zM25 24h-17.5c-1.378 0-2.5-1.122-2.5-2.5v-11.5c0-1.379 1.122-2.5 2.5-2.5h17.5c1.378 0 2.5 1.121 2.5 2.5v11.5c0 1.378-1.122 2.5-2.5 2.5v0z"></path>
<path fill="#007aff" d="M27.5 12h-22.5v-1h22.5v1z"></path>
<path fill="#007aff" d="M10.5 20c-0.008 0-0.018 0-0.026-0-0.199-0.011-0.373-0.137-0.443-0.323l-1.378-3.676h-0.654c-0.276 0-0.5-0.223-0.5-0.5s0.224-0.5 0.5-0.5h1c0.209 0 0.395 0.13 0.468 0.324l1.098 2.927 1.487-2.974c0.124-0.246 0.424-0.347 0.671-0.224s0.348 0.424 0.223 0.671l-2 4c-0.085 0.17-0.258 0.276-0.447 0.276z"></path>
<path fill="#007aff" d="M14.5 20c-0.276 0-0.5-0.224-0.5-0.5v-4c0-0.277 0.224-0.5 0.5-0.5s0.5 0.223 0.5 0.5v4c0 0.276-0.224 0.5-0.5 0.5z"></path>
<path fill="#007aff" d="M17.629 20c-0.957 0-1.403-0.529-1.572-0.738-0.172-0.213-0.155-0.532 0.058-0.706 0.212-0.173 0.509-0.156 0.686 0.055 0.002 0.003 0.035 0.019 0.037 0.021 0.125 0.156 0.314 0.369 0.793 0.369h0.014c0.206 0 0.401-0.151 0.435-0.366 0.052-0.32-0.275-0.622-0.875-0.829-0.771-0.265-1.188-0.875-1.063-1.604 0.125-0.718 0.744-1.202 1.477-1.202h0.017c0.771 0 1.229 0.508 1.378 0.816 0.119 0.249 0.015 0.535-0.233 0.654-0.246 0.12-0.542 0.038-0.664-0.206-0.018-0.034-0.163-0.264-0.491-0.264h-0.007c-0.289 0-0.457 0.183-0.491 0.379-0.040 0.233 0.102 0.404 0.402 0.508 1.294 0.445 1.643 1.264 1.537 1.915-0.113 0.697-0.721 1.199-1.413 1.199h-0.023z"></path>
<path fill="#007aff" d="M23.5 20c-0.224 0-0.427-0.151-0.485-0.379l-0.839-3.355-1.729 3.457c-0.123 0.247-0.423 0.347-0.671 0.224s-0.348-0.424-0.224-0.671l2-4c0.085-0.169 0.258-0.277 0.448-0.277h0.5c0.23 0 0.43 0.156 0.485 0.379l1 4c0.067 0.267-0.096 0.539-0.363 0.606-0.041 0.010-0.081 0.015-0.122 0.015z"></path>
<path fill="#007aff" d="M23 18.5h-2c-0.276 0-0.5-0.224-0.5-0.5s0.224-0.5 0.5-0.5h2c0.276 0 0.5 0.224 0.5 0.5s-0.224 0.5-0.5 0.5z"></path>
</svg>
