<?xml version="1.0" encoding="utf-8"?>
<!-- Generated by IcoMoon.io -->
<!DOCTYPE svg PUBLIC "-//W3C//DTD SVG 1.1//EN" "http://www.w3.org/Graphics/SVG/1.1/DTD/svg11.dtd">
<svg version="1.1" xmlns="http://www.w3.org/2000/svg" xmlns:xlink="http://www.w3.org/1999/xlink" width="32" height="32" viewBox="0 0 32 32">
<path fill="#007aff" d="M7.5 8.5c-0.827 0-1.5 0.673-1.5 1.5v11.5c0 0.827 0.673 1.5 1.5 1.5h17.5c0.827 0 1.5-0.673 1.5-1.5v-11.5c0-0.827-0.673-1.5-1.5-1.5h-17.5zM25 24h-17.5c-1.378 0-2.5-1.122-2.5-2.5v-11.5c0-1.379 1.122-2.5 2.5-2.5h17.5c1.378 0 2.5 1.121 2.5 2.5v11.5c0 1.378-1.122 2.5-2.5 2.5v0z"></path>
<path fill="#007aff" d="M27 12.5h-21.5c-0.276 0-0.5-0.223-0.5-0.5s0.224-0.5 0.5-0.5h21.5c0.276 0 0.5 0.223 0.5 0.5s-0.224 0.5-0.5 0.5z"></path>
<path fill="#007aff" d="M27 16h-21.5c-0.276 0-0.5-0.223-0.5-0.5s0.224-0.5 0.5-0.5h21.5c0.276 0 0.5 0.223 0.5 0.5s-0.224 0.5-0.5 0.5z"></path>
<path fill="#007aff" d="M18 14.5h-1v-1.5h1v1.5z"></path>
<path fill="#007aff" d="M20 14.5h-1v-1.5h1v1.5z"></path>
<path fill="#007aff" d="M22 14.5h-1v-1.5h1v1.5z"></path>
<path fill="#007aff" d="M24 14.5h-1v-1.5h1v1.5z"></path>
</svg>
