<?xml version="1.0" encoding="utf-8"?>
<!-- Generated by IcoMoon.io -->
<!DOCTYPE svg PUBLIC "-//W3C//DTD SVG 1.1//EN" "http://www.w3.org/Graphics/SVG/1.1/DTD/svg11.dtd">
<svg version="1.1" xmlns="http://www.w3.org/2000/svg" xmlns:xlink="http://www.w3.org/1999/xlink" width="32" height="32" viewBox="0 0 32 32">
<path fill="#007aff" d="M7.5 8.5c-0.827 0-1.5 0.673-1.5 1.5v11.5c0 0.827 0.673 1.5 1.5 1.5h17.5c0.827 0 1.5-0.673 1.5-1.5v-11.5c0-0.827-0.673-1.5-1.5-1.5h-17.5zM25 24h-17.5c-1.378 0-2.5-1.122-2.5-2.5v-11.5c0-1.379 1.122-2.5 2.5-2.5h17.5c1.378 0 2.5 1.121 2.5 2.5v11.5c0 1.378-1.122 2.5-2.5 2.5v0z"></path>
<path fill="#007aff" d="M14 12.5c-1.93 0-3.5 1.57-3.5 3.5s1.57 3.5 3.5 3.5c1.93 0 3.5-1.57 3.5-3.5s-1.57-3.5-3.5-3.5zM14 20.5c-2.482 0-4.5-2.018-4.5-4.5s2.018-4.5 4.5-4.5c2.482 0 4.5 2.018 4.5 4.5s-2.018 4.5-4.5 4.5z"></path>
<path fill="#007aff" d="M19 20.5c-0.529 0-1.046-0.091-1.539-0.27-0.26-0.095-0.393-0.381-0.299-0.64s0.383-0.392 0.64-0.299c0.384 0.139 0.787 0.21 1.198 0.21 1.93 0 3.5-1.57 3.5-3.5s-1.57-3.5-3.5-3.5c-0.4 0-0.792 0.067-1.165 0.198-0.261 0.091-0.546-0.044-0.638-0.305s0.044-0.546 0.305-0.638c0.48-0.169 0.985-0.255 1.498-0.255 2.482 0 4.5 2.018 4.5 4.5s-2.018 4.5-4.5 4.5z"></path>
<path fill="#007aff" d="M10.25 16.516c-0.129 0-0.257-0.049-0.354-0.147-0.195-0.196-0.194-0.512 0.002-0.707l3.89-3.875c0.197-0.195 0.512-0.194 0.707 0.002s0.194 0.512-0.002 0.707l-3.89 3.875c-0.098 0.097-0.226 0.145-0.353 0.145z"></path>
<path fill="#007aff" d="M10.969 18.031c-0.128 0-0.256-0.049-0.354-0.146-0.195-0.195-0.195-0.512 0-0.707l4.985-4.985c0.195-0.195 0.512-0.195 0.707 0s0.195 0.512 0 0.707l-4.985 4.985c-0.098 0.098-0.226 0.146-0.354 0.146z"></path>
<path fill="#007aff" d="M12.039 19.445c-0.128 0-0.256-0.049-0.354-0.146-0.195-0.195-0.195-0.512 0-0.707l5.226-5.226c0.195-0.196 0.512-0.196 0.707 0s0.195 0.511 0 0.707l-5.226 5.226c-0.098 0.098-0.226 0.146-0.354 0.146z"></path>
<path fill="#007aff" d="M13.688 20.266c-0.126 0-0.252-0.047-0.35-0.142-0.197-0.193-0.201-0.51-0.008-0.707l4.156-4.25c0.192-0.197 0.509-0.201 0.707-0.008s0.201 0.51 0.008 0.707l-4.156 4.25c-0.098 0.1-0.227 0.151-0.357 0.151z"></path>
</svg>
