<?xml version="1.0" encoding="utf-8"?>
<!-- Generated by IcoMoon.io -->
<!DOCTYPE svg PUBLIC "-//W3C//DTD SVG 1.1//EN" "http://www.w3.org/Graphics/SVG/1.1/DTD/svg11.dtd">
<svg version="1.1" xmlns="http://www.w3.org/2000/svg" xmlns:xlink="http://www.w3.org/1999/xlink" width="32" height="32" viewBox="0 0 32 32">
<path fill="#007aff" d="M7.5 8.5c-0.827 0-1.5 0.673-1.5 1.5v11.5c0 0.827 0.673 1.5 1.5 1.5h17.5c0.827 0 1.5-0.673 1.5-1.5v-11.5c0-0.827-0.673-1.5-1.5-1.5h-17.5zM25 24h-17.5c-1.378 0-2.5-1.122-2.5-2.5v-11.5c0-1.379 1.122-2.5 2.5-2.5h17.5c1.378 0 2.5 1.121 2.5 2.5v11.5c0 1.378-1.122 2.5-2.5 2.5v0z"></path>
<path fill="#007aff" d="M27.5 12h-22.5v-1h22.5v1z"></path>
<path fill="#007aff" d="M11 20c-0.203 0-0.393-0.123-0.469-0.324l-1.097-2.927-1.487 2.974c-0.123 0.247-0.423 0.347-0.67 0.224s-0.348-0.424-0.224-0.671l2-4c0.089-0.178 0.273-0.287 0.473-0.276 0.199 0.011 0.373 0.137 0.442 0.323l1.5 4c0.097 0.259-0.034 0.547-0.293 0.644-0.058 0.021-0.117 0.032-0.175 0.032z"></path>
<path fill="#007aff" d="M10 18.5h-1.5c-0.276 0-0.5-0.224-0.5-0.5s0.224-0.5 0.5-0.5h1.5c0.276 0 0.5 0.224 0.5 0.5s-0.224 0.5-0.5 0.5z"></path>
<path fill="#007aff" d="M16.5 20c-0.276 0-0.5-0.224-0.5-0.5v-2.793l-1.146 1.146c-0.195 0.195-0.511 0.195-0.707 0l-1.146-1.146v2.793c0 0.276-0.224 0.5-0.5 0.5s-0.5-0.224-0.5-0.5v-4c0-0.202 0.122-0.385 0.309-0.462 0.187-0.079 0.402-0.035 0.545 0.108l1.646 1.646 1.646-1.646c0.143-0.143 0.358-0.187 0.545-0.108 0.186 0.077 0.308 0.26 0.308 0.462v4c0 0.276-0.224 0.5-0.5 0.5z"></path>
<path fill="#007aff" d="M20 20h-2c-0.276 0-0.5-0.224-0.5-0.5v-4c0-0.277 0.224-0.5 0.5-0.5h2c0.276 0 0.5 0.223 0.5 0.5s-0.224 0.5-0.5 0.5h-1.5v3h1.5c0.276 0 0.5 0.224 0.5 0.5s-0.224 0.5-0.5 0.5z"></path>
<path fill="#007aff" d="M21.5 20c-0.105 0-0.209-0.032-0.299-0.1-0.221-0.166-0.265-0.479-0.1-0.7l3-4c0.166-0.221 0.479-0.265 0.7-0.1s0.265 0.479 0.1 0.7l-3 4c-0.099 0.131-0.248 0.2-0.401 0.2z"></path>
<path fill="#007aff" d="M24.5 20c-0.152 0-0.302-0.069-0.401-0.2l-3-4c-0.166-0.221-0.121-0.534 0.1-0.7 0.222-0.165 0.535-0.121 0.7 0.1l3 4c0.166 0.221 0.121 0.535-0.1 0.7-0.090 0.067-0.195 0.1-0.299 0.1z"></path>
<path fill="#007aff" d="M19.5 18h-1.5c-0.276 0-0.5-0.224-0.5-0.5s0.224-0.5 0.5-0.5h1.5c0.276 0 0.5 0.224 0.5 0.5s-0.224 0.5-0.5 0.5z"></path>
</svg>
