<?xml version="1.0" encoding="utf-8"?>
<!-- Generated by IcoMoon.io -->
<!DOCTYPE svg PUBLIC "-//W3C//DTD SVG 1.1//EN" "http://www.w3.org/Graphics/SVG/1.1/DTD/svg11.dtd">
<svg version="1.1" xmlns="http://www.w3.org/2000/svg" xmlns:xlink="http://www.w3.org/1999/xlink" width="32" height="32" viewBox="0 0 32 32">
<path fill="#2e92ff" d="M21.5 16c-2.757 0-5 2.243-5 5s2.243 5 5 5c2.757 0 5-2.243 5-5s-2.243-5-5-5zM21.5 27c-3.308 0-6-2.692-6-6s2.692-6 6-6c3.308 0 6 2.692 6 6s-2.692 6-6 6z"></path>
<path fill="#2e92ff" d="M21.5 24.5c-0.276 0-0.5-0.224-0.5-0.5v-6c0-0.276 0.224-0.5 0.5-0.5s0.5 0.224 0.5 0.5v6c0 0.276-0.224 0.5-0.5 0.5z"></path>
<path fill="#2e92ff" d="M24.5 21.5h-6c-0.276 0-0.5-0.224-0.5-0.5s0.224-0.5 0.5-0.5h6c0.276 0 0.5 0.224 0.5 0.5s-0.224 0.5-0.5 0.5z"></path>
<path fill="#2e92ff" d="M19 26.5h-13v-1h13v1z"></path>
<path fill="#2e92ff" d="M6.307 26.5h-0.306c-0.827 0-1.5-0.673-1.5-1.5v-19.5c0-0.276 0.224-0.5 0.5-0.5h7.878c0.534 0 1.037 0.208 1.415 0.586l2.414 2.414h9.293c0.276 0 0.5 0.224 0.5 0.5v3h-1v-2.5h-9c-0.133 0-0.26-0.053-0.354-0.146l-2.561-2.561c-0.189-0.189-0.441-0.293-0.707-0.293h-7.378v19c0 0.276 0.224 0.5 0.5 0.5h0.306c0.468 0 0.869-0.319 0.974-0.775l2.732-11.838c0.053-0.227 0.255-0.387 0.488-0.387h16.5c0.151 0 0.295 0.069 0.39 0.187s0.131 0.274 0.098 0.421l-1 4.5-0.976-0.217 0.864-3.892h-15.479l-2.642 11.45c-0.21 0.913-1.012 1.55-1.949 1.55z"></path>
</svg>
