<?xml version="1.0" encoding="utf-8"?>
<!-- Generated by IcoMoon.io -->
<!DOCTYPE svg PUBLIC "-//W3C//DTD SVG 1.1//EN" "http://www.w3.org/Graphics/SVG/1.1/DTD/svg11.dtd">
<svg version="1.1" xmlns="http://www.w3.org/2000/svg" xmlns:xlink="http://www.w3.org/1999/xlink" width="32" height="32" viewBox="0 0 32 32">
<path fill="#2e92ff" d="M9.5 22h-1v-15.5c0-0.827 0.673-1.5 1.5-1.5h9c0.141 0 0.275 0.059 0.37 0.163l5 5.5c0.084 0.092 0.13 0.212 0.13 0.337v5.5h-1v-5.306l-4.721-5.194h-8.779c-0.275 0-0.5 0.224-0.5 0.5v15.5z"></path>
<path fill="#2e92ff" d="M24 11.5h-5c-0.276 0-0.5-0.223-0.5-0.5v-5.5h1v5h4.5v1z"></path>
<path fill="#2e92ff" d="M7.773 26h14.211c0.412 0 0.776-0.247 0.929-0.628l3.349-8.372h-14.115c-0.197 0-0.376 0.116-0.456 0.295l-3.912 8.694c-0.002 0.004-0.003 0.008-0.005 0.012zM21.984 27l-15.984-0.013c-0.845-0.106-1.5-0.829-1.5-1.702v-15.285c0-0.827 0.673-1.5 1.5-1.5h2.5v1h-2.5c-0.276 0-0.5 0.224-0.5 0.5v15.285c0 0.394 0.321 0.715 0.715 0.715 0.28 0 0.537-0.166 0.651-0.421l3.912-8.694c0.242-0.538 0.779-0.885 1.368-0.885h14.115c0.332 0 0.642 0.164 0.828 0.44s0.224 0.623 0.101 0.932l-3.349 8.371c-0.306 0.764-1.035 1.258-1.858 1.258z"></path>
<path fill="#2e92ff" d="M15.5 12h-4v-1h4v1z"></path>
<path fill="#2e92ff" d="M19.5 14.5h-8v-1h8v1z"></path>
</svg>
