<?xml version="1.0" encoding="utf-8"?>
<!-- Generated by IcoMoon.io -->
<!DOCTYPE svg PUBLIC "-//W3C//DTD SVG 1.1//EN" "http://www.w3.org/Graphics/SVG/1.1/DTD/svg11.dtd">
<svg version="1.1" xmlns="http://www.w3.org/2000/svg" xmlns:xlink="http://www.w3.org/1999/xlink" width="32" height="32" viewBox="0 0 32 32">
<path fill="#2e92ff" d="M7.992 26h14.814c0.468 0 0.869-0.319 0.974-0.775l2.59-11.225h-15.959l-2.188 11.377c-0.043 0.224-0.123 0.433-0.232 0.622zM22.806 27h-16.806c-0.827 0-1.5-0.673-1.5-1.5v-20h9.268l2 3h10.732v3.5h-1v-2.5h-10.268l-2-3h-7.732v19c0 0.276 0.224 0.5 0.5 0.5h0.261c0.479 0 0.891-0.341 0.982-0.811l2.344-12.188h18.041l-2.872 12.45c-0.211 0.913-1.012 1.55-1.949 1.55z"></path>
</svg>
