<?xml version="1.0" encoding="utf-8"?>
<!-- Generated by IcoMoon.io -->
<!DOCTYPE svg PUBLIC "-//W3C//DTD SVG 1.1//EN" "http://www.w3.org/Graphics/SVG/1.1/DTD/svg11.dtd">
<svg version="1.1" xmlns="http://www.w3.org/2000/svg" xmlns:xlink="http://www.w3.org/1999/xlink" width="32" height="32" viewBox="0 0 32 32">
<path fill="#007aff" d="M8.12 14.576h2.37v0.588h-1.674v1.11h1.428v0.588h-1.428v1.638h-0.696v-3.924zM10.832 17.030c0-0.244 0.038-0.462 0.114-0.654s0.179-0.354 0.309-0.486c0.13-0.132 0.279-0.233 0.447-0.303s0.344-0.105 0.528-0.105c0.184 0 0.361 0.035 0.531 0.105s0.319 0.171 0.447 0.303c0.128 0.132 0.231 0.294 0.309 0.486s0.117 0.41 0.117 0.654c0 0.244-0.039 0.462-0.117 0.654s-0.181 0.354-0.309 0.486c-0.128 0.132-0.277 0.232-0.447 0.3s-0.347 0.102-0.531 0.102c-0.184 0-0.36-0.034-0.528-0.102s-0.317-0.168-0.447-0.3c-0.13-0.132-0.233-0.294-0.309-0.486s-0.114-0.41-0.114-0.654v0zM11.54 17.030c0 0.296 0.061 0.533 0.183 0.711s0.291 0.267 0.507 0.267c0.216 0 0.386-0.089 0.51-0.267s0.186-0.415 0.186-0.711c0-0.3-0.062-0.539-0.186-0.717s-0.294-0.267-0.51-0.267c-0.216 0-0.385 0.089-0.507 0.267s-0.183 0.417-0.183 0.717v0zM14.318 14.264h0.69v3.516c0 0.084 0.016 0.143 0.048 0.177s0.066 0.051 0.102 0.051h0.045c0.014 0 0.035-0.004 0.063-0.012l0.090 0.516c-0.092 0.040-0.214 0.060-0.366 0.060-0.248 0-0.422-0.074-0.522-0.222s-0.15-0.35-0.15-0.606v-3.48zM15.944 14.264h0.69v3.516c0 0.084 0.016 0.143 0.048 0.177s0.066 0.051 0.102 0.051h0.045c0.014 0 0.035-0.004 0.063-0.012l0.090 0.516c-0.092 0.040-0.214 0.060-0.366 0.060-0.248 0-0.422-0.074-0.522-0.222s-0.15-0.35-0.15-0.606v-3.48zM17.378 17.030c0-0.244 0.038-0.462 0.114-0.654s0.179-0.354 0.309-0.486c0.13-0.132 0.279-0.233 0.447-0.303s0.344-0.105 0.528-0.105c0.184 0 0.361 0.035 0.531 0.105s0.319 0.171 0.447 0.303c0.128 0.132 0.231 0.294 0.309 0.486s0.117 0.41 0.117 0.654c0 0.244-0.039 0.462-0.117 0.654s-0.181 0.354-0.309 0.486c-0.128 0.132-0.277 0.232-0.447 0.3s-0.347 0.102-0.531 0.102c-0.184 0-0.36-0.034-0.528-0.102s-0.317-0.168-0.447-0.3c-0.13-0.132-0.233-0.294-0.309-0.486s-0.114-0.41-0.114-0.654v0zM18.086 17.030c0 0.296 0.061 0.533 0.183 0.711s0.291 0.267 0.507 0.267c0.216 0 0.386-0.089 0.51-0.267s0.186-0.415 0.186-0.711c0-0.3-0.062-0.539-0.186-0.717s-0.294-0.267-0.51-0.267c-0.216 0-0.385 0.089-0.507 0.267s-0.183 0.417-0.183 0.717v0zM20.534 15.554h0.696l0.354 1.53c0.032 0.14 0.059 0.28 0.081 0.42s0.047 0.282 0.075 0.426h0.024c0.028-0.144 0.057-0.286 0.087-0.426s0.063-0.28 0.099-0.42l0.384-1.53h0.63l0.39 1.53c0.036 0.14 0.070 0.28 0.102 0.42s0.064 0.282 0.096 0.426h0.024c0.028-0.144 0.054-0.286 0.078-0.426s0.050-0.28 0.078-0.42l0.354-1.53h0.648l-0.75 2.946h-0.822l-0.342-1.374c-0.032-0.14-0.062-0.279-0.090-0.417s-0.058-0.285-0.090-0.441h-0.024c-0.028 0.156-0.056 0.304-0.084 0.444s-0.058 0.28-0.090 0.42l-0.336 1.368h-0.792l-0.78-2.946z"></path>
</svg>
