<?xml version="1.0" encoding="utf-8"?>
<!-- Generated by IcoMoon.io -->
<!DOCTYPE svg PUBLIC "-//W3C//DTD SVG 1.1//EN" "http://www.w3.org/Graphics/SVG/1.1/DTD/svg11.dtd">
<svg version="1.1" xmlns="http://www.w3.org/2000/svg" xmlns:xlink="http://www.w3.org/1999/xlink" width="32" height="32" viewBox="0 0 32 32">
<path fill="#007aff" d="M16 14.5c-0.827 0-1.5 0.673-1.5 1.5s0.673 1.5 1.5 1.5c0.827 0 1.5-0.673 1.5-1.5s-0.673-1.5-1.5-1.5zM16 18.5c-1.379 0-2.5-1.122-2.5-2.5s1.121-2.5 2.5-2.5c1.378 0 2.5 1.121 2.5 2.5s-1.122 2.5-2.5 2.5z"></path>
<path fill="#007aff" d="M9 14.5c-0.827 0-1.5 0.673-1.5 1.5s0.673 1.5 1.5 1.5c0.827 0 1.5-0.673 1.5-1.5s-0.673-1.5-1.5-1.5zM9 18.5c-1.378 0-2.5-1.122-2.5-2.5s1.122-2.5 2.5-2.5c1.379 0 2.5 1.121 2.5 2.5s-1.121 2.5-2.5 2.5z"></path>
<path fill="#1f8aff" d="M20.826 21c-0.056 0-0.111-0.021-0.154-0.064-0.085-0.085-0.085-0.222 0-0.307l4.629-4.629-4.629-4.629c-0.085-0.085-0.085-0.222 0-0.307s0.222-0.085 0.307 0l4.783 4.783c0.085 0.085 0.085 0.222 0 0.307l-4.783 4.783c-0.042 0.042-0.098 0.064-0.154 0.064z"></path>
</svg>
