<?xml version="1.0" encoding="utf-8"?>
<!-- Generated by IcoMoon.io -->
<!DOCTYPE svg PUBLIC "-//W3C//DTD SVG 1.1//EN" "http://www.w3.org/Graphics/SVG/1.1/DTD/svg11.dtd">
<svg version="1.1" xmlns="http://www.w3.org/2000/svg" xmlns:xlink="http://www.w3.org/1999/xlink" width="32" height="32" viewBox="0 0 32 32">
<path fill="#007aff" d="M5.897 14.576h2.37v0.588h-1.674v1.11h1.428v0.588h-1.428v1.638h-0.696v-3.924zM10.421 18.572c-0.256 0-0.49-0.047-0.702-0.141s-0.394-0.23-0.546-0.408c-0.152-0.178-0.27-0.393-0.354-0.645s-0.126-0.538-0.126-0.858c0-0.316 0.042-0.599 0.126-0.849s0.202-0.461 0.354-0.633c0.152-0.172 0.334-0.304 0.546-0.396s0.446-0.138 0.702-0.138c0.256 0 0.49 0.046 0.702 0.138s0.395 0.224 0.549 0.396c0.154 0.172 0.273 0.383 0.357 0.633s0.126 0.533 0.126 0.849c0 0.32-0.042 0.606-0.126 0.858s-0.203 0.467-0.357 0.645c-0.154 0.178-0.337 0.314-0.549 0.408s-0.446 0.141-0.702 0.141v0zM10.421 17.966c0.156 0 0.296-0.034 0.42-0.102s0.23-0.165 0.318-0.291c0.088-0.126 0.156-0.278 0.204-0.456s0.072-0.377 0.072-0.597c0-0.44-0.091-0.785-0.273-1.035s-0.429-0.375-0.741-0.375c-0.312 0-0.559 0.125-0.741 0.375s-0.273 0.595-0.273 1.035c0 0.22 0.024 0.419 0.072 0.597s0.116 0.33 0.204 0.456c0.088 0.126 0.194 0.223 0.318 0.291s0.264 0.102 0.42 0.102v0zM12.941 14.576h0.696v3.336h1.632v0.588h-2.328v-3.924zM15.953 14.576h0.696v3.336h1.632v0.588h-2.328v-3.924zM20.303 18.572c-0.256 0-0.49-0.047-0.702-0.141s-0.394-0.23-0.546-0.408c-0.152-0.178-0.27-0.393-0.354-0.645s-0.126-0.538-0.126-0.858c0-0.316 0.042-0.599 0.126-0.849s0.202-0.461 0.354-0.633c0.152-0.172 0.334-0.304 0.546-0.396s0.446-0.138 0.702-0.138c0.256 0 0.49 0.046 0.702 0.138s0.395 0.224 0.549 0.396c0.154 0.172 0.273 0.383 0.357 0.633s0.126 0.533 0.126 0.849c0 0.32-0.042 0.606-0.126 0.858s-0.203 0.467-0.357 0.645c-0.154 0.178-0.337 0.314-0.549 0.408s-0.446 0.141-0.702 0.141v0zM20.303 17.966c0.156 0 0.296-0.034 0.42-0.102s0.23-0.165 0.318-0.291c0.088-0.126 0.156-0.278 0.204-0.456s0.072-0.377 0.072-0.597c0-0.44-0.091-0.785-0.273-1.035s-0.429-0.375-0.741-0.375c-0.312 0-0.559 0.125-0.741 0.375s-0.273 0.595-0.273 1.035c0 0.22 0.024 0.419 0.072 0.597s0.116 0.33 0.204 0.456c0.088 0.126 0.194 0.223 0.318 0.291s0.264 0.102 0.42 0.102v0zM22.409 14.576h0.714l0.342 1.98c0.032 0.212 0.064 0.422 0.096 0.63s0.064 0.416 0.096 0.624h0.024c0.044-0.208 0.087-0.417 0.129-0.627s0.085-0.419 0.129-0.627l0.48-1.98h0.606l0.48 1.98c0.044 0.204 0.088 0.411 0.132 0.621s0.088 0.421 0.132 0.633h0.024c0.032-0.212 0.063-0.422 0.093-0.63s0.061-0.416 0.093-0.624l0.342-1.98h0.666l-0.75 3.924h-0.864l-0.486-2.064c-0.032-0.152-0.063-0.303-0.093-0.453s-0.057-0.301-0.081-0.453h-0.024c-0.028 0.152-0.057 0.303-0.087 0.453s-0.061 0.301-0.093 0.453l-0.474 2.064h-0.846l-0.78-3.924z"></path>
</svg>
