<?xml version="1.0" encoding="utf-8"?>
<!-- Generated by IcoMoon.io -->
<!DOCTYPE svg PUBLIC "-//W3C//DTD SVG 1.1//EN" "http://www.w3.org/Graphics/SVG/1.1/DTD/svg11.dtd">
<svg version="1.1" xmlns="http://www.w3.org/2000/svg" xmlns:xlink="http://www.w3.org/1999/xlink" width="32" height="32" viewBox="0 0 32 32">
<path fill="#007aff" d="M14.496 19.959c-0.095-0.65-0.075-1.24 0.059-1.771s0.329-1.022 0.582-1.474c0.254-0.452 0.539-0.876 0.856-1.272s0.618-0.789 0.903-1.177c0.285-0.388 0.523-0.789 0.713-1.201s0.285-0.864 0.285-1.355c0-0.365-0.052-0.717-0.155-1.058s-0.265-0.638-0.487-0.892c-0.222-0.254-0.503-0.456-0.844-0.606s-0.741-0.226-1.201-0.226c-0.586 0-1.145 0.131-1.676 0.392s-0.995 0.638-1.391 1.129l-0.642-0.594c0.46-0.523 0.999-0.963 1.617-1.32s1.339-0.535 2.164-0.535c0.586 0 1.109 0.091 1.569 0.273s0.848 0.436 1.165 0.761c0.317 0.325 0.559 0.709 0.725 1.153s0.25 0.927 0.25 1.45c0 0.539-0.099 1.034-0.297 1.486s-0.44 0.884-0.725 1.296c-0.285 0.412-0.59 0.82-0.915 1.224s-0.618 0.824-0.88 1.26c-0.262 0.436-0.468 0.903-0.618 1.403s-0.186 1.050-0.107 1.652h-0.951zM14.044 23.43c0-0.349 0.099-0.618 0.297-0.808s0.432-0.285 0.701-0.285c0.269 0 0.507 0.095 0.713 0.285s0.309 0.46 0.309 0.808c0 0.333-0.103 0.594-0.309 0.785s-0.444 0.285-0.713 0.285c-0.269 0-0.503-0.095-0.701-0.285s-0.297-0.452-0.297-0.785v0z"></path>
</svg>
