<?xml version="1.0" encoding="utf-8"?>
<!-- Generated by IcoMoon.io -->
<!DOCTYPE svg PUBLIC "-//W3C//DTD SVG 1.1//EN" "http://www.w3.org/Graphics/SVG/1.1/DTD/svg11.dtd">
<svg version="1.1" xmlns="http://www.w3.org/2000/svg" xmlns:xlink="http://www.w3.org/1999/xlink" width="32" height="32" viewBox="0 0 32 32">
<path fill="#007aff" d="M16 6c-5.514 0-10 4.486-10 10s4.486 10 10 10c5.514 0 10-4.486 10-10s-4.486-10-10-10zM16 27c-6.066 0-11-4.934-11-11s4.934-11 11-11c6.066 0 11 4.934 11 11s-4.934 11-11 11z"></path>
<path fill="#007aff" d="M16 11.5c-2.481 0-4.5 2.018-4.5 4.5s2.019 4.5 4.5 4.5c2.481 0 4.5-2.018 4.5-4.5s-2.019-4.5-4.5-4.5zM16 21.5c-3.033 0-5.5-2.468-5.5-5.5s2.467-5.5 5.5-5.5c3.032 0 5.5 2.467 5.5 5.5s-2.468 5.5-5.5 5.5z"></path>
<path fill="#007aff" d="M13.5 12c-0.276 0-0.5-0.223-0.5-0.5v-5.5c0-0.277 0.224-0.5 0.5-0.5s0.5 0.223 0.5 0.5v5.5c0 0.277-0.224 0.5-0.5 0.5z"></path>
<path fill="#007aff" d="M18.5 12c-0.276 0-0.5-0.223-0.5-0.5v-5.5c0-0.277 0.224-0.5 0.5-0.5s0.5 0.223 0.5 0.5v5.5c0 0.277-0.224 0.5-0.5 0.5z"></path>
<path fill="#007aff" d="M13.5 26.5c-0.276 0-0.5-0.224-0.5-0.5v-5.5c0-0.276 0.224-0.5 0.5-0.5s0.5 0.224 0.5 0.5v5.5c0 0.276-0.224 0.5-0.5 0.5z"></path>
<path fill="#007aff" d="M18.5 26.5c-0.276 0-0.5-0.224-0.5-0.5v-5.5c0-0.276 0.224-0.5 0.5-0.5s0.5 0.224 0.5 0.5v5.5c0 0.276-0.224 0.5-0.5 0.5z"></path>
<path fill="#007aff" d="M26 14h-5.5c-0.276 0-0.5-0.223-0.5-0.5s0.224-0.5 0.5-0.5h5.5c0.276 0 0.5 0.223 0.5 0.5s-0.224 0.5-0.5 0.5z"></path>
<path fill="#007aff" d="M26 19h-5.5c-0.276 0-0.5-0.224-0.5-0.5s0.224-0.5 0.5-0.5h5.5c0.276 0 0.5 0.224 0.5 0.5s-0.224 0.5-0.5 0.5z"></path>
<path fill="#007aff" d="M11.5 14h-5.5c-0.276 0-0.5-0.223-0.5-0.5s0.224-0.5 0.5-0.5h5.5c0.276 0 0.5 0.223 0.5 0.5s-0.224 0.5-0.5 0.5z"></path>
<path fill="#007aff" d="M11.5 19h-5.5c-0.276 0-0.5-0.224-0.5-0.5s0.224-0.5 0.5-0.5h5.5c0.276 0 0.5 0.224 0.5 0.5s-0.224 0.5-0.5 0.5z"></path>
</svg>
