<?xml version="1.0" encoding="utf-8"?>
<!-- Generated by IcoMoon.io -->
<!DOCTYPE svg PUBLIC "-//W3C//DTD SVG 1.1//EN" "http://www.w3.org/Graphics/SVG/1.1/DTD/svg11.dtd">
<svg version="1.1" xmlns="http://www.w3.org/2000/svg" xmlns:xlink="http://www.w3.org/1999/xlink" width="32" height="32" viewBox="0 0 32 32">
<path fill="#007aff" d="M27.5 16.5c-0.116 0-0.234-0.041-0.329-0.123l-11.171-9.761-11.171 9.761c-0.208 0.182-0.524 0.16-0.705-0.047s-0.16-0.524 0.047-0.706l11.5-10.049c0.188-0.165 0.47-0.165 0.659 0l11.5 10.049c0.207 0.181 0.229 0.497 0.047 0.706-0.099 0.113-0.237 0.171-0.377 0.171z"></path>
<path fill="#007aff" d="M16 6.5c-0.13 0-0.26-0.055-0.355-0.145-0.090-0.095-0.145-0.225-0.145-0.355s0.055-0.26 0.145-0.355c0.19-0.185 0.525-0.185 0.71 0 0.090 0.095 0.145 0.225 0.145 0.355s-0.055 0.26-0.145 0.355c-0.095 0.090-0.22 0.145-0.355 0.145z"></path>
<path fill="#007aff" d="M19 27.5c-0.276 0-0.5-0.224-0.5-0.5v-7c0-0.276-0.224-0.5-0.5-0.5h-4c-0.275 0-0.5 0.224-0.5 0.5v7c0 0.276-0.224 0.5-0.5 0.5s-0.5-0.224-0.5-0.5v-7c0-0.827 0.673-1.5 1.5-1.5h4c0.827 0 1.5 0.673 1.5 1.5v7c0 0.276-0.224 0.5-0.5 0.5z"></path>
<path fill="#007aff" d="M24 27.5h-16c-0.827 0-1.5-0.673-1.5-1.5v-9.5c0-0.276 0.224-0.5 0.5-0.5s0.5 0.224 0.5 0.5v9.5c0 0.276 0.224 0.5 0.5 0.5h16c0.276 0 0.5-0.224 0.5-0.5v-9.5c0-0.276 0.224-0.5 0.5-0.5s0.5 0.224 0.5 0.5v9.5c0 0.827-0.673 1.5-1.5 1.5z"></path>
<path fill="#007aff" d="M16 11.916c-0.873 0-1.583 0.71-1.583 1.584s0.71 1.584 1.583 1.584c0.873 0 1.583-0.71 1.583-1.584s-0.71-1.584-1.584-1.584zM16 16.084c-1.425 0-2.583-1.159-2.583-2.584s1.159-2.584 2.583-2.584c1.425 0 2.583 1.159 2.583 2.584s-1.159 2.584-2.584 2.584z"></path>
<path fill="#007aff" d="M24.5 13.5c-0.276 0-0.5-0.224-0.5-0.5v-3.5h-1.5v1.5c0 0.276-0.224 0.5-0.5 0.5s-0.5-0.224-0.5-0.5v-1.5c0-0.552 0.448-1 1-1h1.5c0.552 0 1 0.448 1 1v3.5c0 0.276-0.224 0.5-0.5 0.5z"></path>
</svg>
