<?xml version="1.0" encoding="utf-8"?>
<!-- Generated by IcoMoon.io -->
<!DOCTYPE svg PUBLIC "-//W3C//DTD SVG 1.1//EN" "http://www.w3.org/Graphics/SVG/1.1/DTD/svg11.dtd">
<svg version="1.1" xmlns="http://www.w3.org/2000/svg" xmlns:xlink="http://www.w3.org/1999/xlink" width="32" height="32" viewBox="0 0 32 32">
<path fill="#007aff" d="M15.225 14.028c0.144 0 0.281 0.062 0.377 0.172 0.108 0.124 0.149 0.295 0.107 0.454l-1.743 6.665 4.864-7.152h-2.205c-0.18 0-0.346-0.097-0.435-0.253s-0.087-0.348 0.006-0.502l3.425-5.745h-4.97l-2.406 6.708 2.923-0.343c0.020-0.002 0.039-0.004 0.059-0.004zM12.747 24.5c-0.069 0-0.14-0.015-0.207-0.044-0.222-0.101-0.338-0.346-0.277-0.582l2.292-8.763-2.998 0.352c-0.174 0.020-0.342-0.050-0.45-0.185s-0.138-0.317-0.079-0.48l2.798-7.799c0.072-0.199 0.26-0.331 0.47-0.331h6.202c0.18 0 0.346 0.097 0.435 0.253 0.089 0.157 0.087 0.348-0.006 0.503l-3.425 5.744h2.269c0.185 0 0.355 0.102 0.442 0.266s0.076 0.362-0.028 0.515l-7.026 10.333c-0.096 0.14-0.252 0.218-0.414 0.218z"></path>
</svg>
