<?xml version="1.0" encoding="utf-8"?>
<!-- Generated by IcoMoon.io -->
<!DOCTYPE svg PUBLIC "-//W3C//DTD SVG 1.1//EN" "http://www.w3.org/Graphics/SVG/1.1/DTD/svg11.dtd">
<svg version="1.1" xmlns="http://www.w3.org/2000/svg" xmlns:xlink="http://www.w3.org/1999/xlink" width="32" height="32" viewBox="0 0 32 32">
<path fill="#007aff" d="M11.74 14.38h1.42v-4.18h-1.17v-0.72c0.32-0.060 0.595-0.132 0.825-0.215s0.445-0.185 0.645-0.305h0.86v5.42h1.25v0.94h-3.83v-0.94zM18.69 15.44c-0.667 0-1.193-0.285-1.58-0.855s-0.58-1.395-0.58-2.475c0-1.080 0.193-1.895 0.58-2.445s0.913-0.825 1.58-0.825c0.667 0 1.193 0.277 1.58 0.83s0.58 1.367 0.58 2.44c0 1.080-0.193 1.905-0.58 2.475s-0.913 0.855-1.58 0.855v0zM18.69 14.54c0.153 0 0.295-0.042 0.425-0.125s0.242-0.222 0.335-0.415c0.093-0.193 0.167-0.443 0.22-0.75s0.080-0.687 0.080-1.14c0-0.447-0.027-0.822-0.080-1.125s-0.127-0.548-0.22-0.735c-0.093-0.187-0.205-0.318-0.335-0.395s-0.272-0.115-0.425-0.115c-0.153 0-0.295 0.038-0.425 0.115s-0.242 0.208-0.335 0.395c-0.093 0.187-0.167 0.432-0.22 0.735s-0.080 0.678-0.080 1.125c0 0.453 0.027 0.833 0.080 1.14s0.127 0.557 0.22 0.75c0.093 0.193 0.205 0.332 0.335 0.415s0.272 0.125 0.425 0.125v0z"></path>
<path fill="#007aff" d="M11.498 19.22h0.768l0.708 1.932 0.258 0.744h0.024l0.252-0.744 0.696-1.932h0.768v3.924h-0.654v-1.794c0-0.092 0.003-0.192 0.009-0.3s0.013-0.217 0.021-0.327c0.008-0.11 0.018-0.218 0.030-0.324s0.022-0.205 0.030-0.297h-0.024l-0.318 0.894-0.678 1.782h-0.324l-0.678-1.782-0.312-0.894h-0.024c0.008 0.092 0.017 0.191 0.027 0.297s0.020 0.214 0.030 0.324c0.010 0.11 0.018 0.219 0.024 0.327s0.009 0.208 0.009 0.3v1.794h-0.642v-3.924zM15.969 19.22h0.696v3.924h-0.696v-3.924zM17.66 19.22h0.714l1.224 2.208 0.402 0.834h0.024c-0.016-0.204-0.035-0.423-0.057-0.657s-0.033-0.461-0.033-0.681v-1.704h0.666v3.924h-0.714l-1.224-2.208-0.402-0.834h-0.024c0.016 0.208 0.035 0.426 0.057 0.654s0.033 0.452 0.033 0.672v1.716h-0.666v-3.924z"></path>
</svg>
