<?xml version="1.0" encoding="utf-8"?>
<!-- Generated by IcoMoon.io -->
<!DOCTYPE svg PUBLIC "-//W3C//DTD SVG 1.1//EN" "http://www.w3.org/Graphics/SVG/1.1/DTD/svg11.dtd">
<svg version="1.1" xmlns="http://www.w3.org/2000/svg" xmlns:xlink="http://www.w3.org/1999/xlink" width="32" height="32" viewBox="0 0 32 32">
<path fill="#3696ff" d="M13.892 22.854c-0.171 0-0.337-0.087-0.43-0.244-0.693-1.167-0.405-2.721-0.1-4.367 0.276-1.488 0.562-3.027 0.102-4.255-1.113-2.978 0.213-3.994 0.835-4.293 0.511-0.245 0.642-1.408 0.691-1.846 0.037-0.335 0.073-0.652 0.435-0.74 0.204-0.051 0.431 0.043 0.548 0.218l0.009 0.003c1.369 1.446 1.161 2.954 0.745 3.964-0.514 1.248-0.229 1.434 0.459 1.884 0.233 0.152 0.497 0.325 0.749 0.556 1.131 1.034 2.036 2.83 0.863 4.491-0.159 0.226-0.471 0.279-0.697 0.12s-0.279-0.471-0.12-0.697c1.029-1.457-0.419-2.901-0.721-3.176-0.193-0.176-0.411-0.319-0.622-0.457-0.944-0.617-1.604-1.238-0.837-3.103 0.299-0.726 0.311-1.406 0.039-2.034-0.149 0.665-0.447 1.399-1.11 1.717-1.124 0.54-0.606 2.306-0.332 3.040 0.557 1.488 0.246 3.165-0.056 4.787-0.27 1.456-0.525 2.831-0.024 3.674 0.142 0.238 0.063 0.544-0.174 0.686-0.080 0.047-0.168 0.070-0.255 0.070z"></path>
<path fill="#3696ff" d="M20.787 22.646c-0.199 0-0.387-0.119-0.465-0.316-0.526-1.325-0.14-2.381 0.2-3.314 0.413-1.131 0.738-2.026-0.372-3.389-0.694-0.851-1.073-1.913-1.273-2.703-0.294 0.556-0.448 1.17-0.491 1.445-0.043 0.273-0.297 0.46-0.572 0.415-0.273-0.043-0.459-0.3-0.416-0.572 0.012-0.077 0.314-1.905 1.444-2.848 0.142-0.118 0.339-0.148 0.509-0.079 0.172 0.070 0.29 0.229 0.308 0.413 0.002 0.020 0.213 2.006 1.265 3.296 1.47 1.803 0.974 3.163 0.537 4.362-0.319 0.876-0.595 1.633-0.209 2.602 0.102 0.257-0.024 0.547-0.28 0.649-0.061 0.024-0.123 0.035-0.184 0.035z"></path>
<path fill="#3696ff" d="M12.016 22.792c-0.114 0-0.227-0.038-0.321-0.117-0.795-0.667-1.931-2.422-0.537-4.287 0.51-0.682 0.535-1.375 0.467-1.836-0.1-0.676-0.453-1.21-0.738-1.421-0.203-0.149-0.263-0.426-0.14-0.646s0.39-0.314 0.623-0.22c0.107 0.043 2.63 1.081 3.011 2.99 0.055 0.27-0.121 0.534-0.392 0.588-0.274 0.055-0.534-0.122-0.588-0.392-0.096-0.482-0.429-0.913-0.828-1.271 0.015 0.075 0.030 0.149 0.040 0.224 0.097 0.649 0.060 1.625-0.655 2.581-1.182 1.582 0.315 2.868 0.38 2.922 0.211 0.177 0.239 0.492 0.062 0.704-0.1 0.117-0.241 0.178-0.384 0.178z"></path>
<path fill="#3696ff" d="M16.892 22.854c-0.022 0-0.044-0.002-0.066-0.005-0.273-0.036-0.466-0.286-0.43-0.559 0.007-0.055 0.184-1.358 1.079-2.712 0.152-0.231 0.462-0.294 0.693-0.142 0.23 0.152 0.294 0.463 0.141 0.693-0.761 1.151-0.92 2.279-0.922 2.29-0.034 0.251-0.248 0.434-0.495 0.434z"></path>
</svg>
