<?xml version="1.0" encoding="utf-8"?>
<!-- Generated by IcoMoon.io -->
<!DOCTYPE svg PUBLIC "-//W3C//DTD SVG 1.1//EN" "http://www.w3.org/Graphics/SVG/1.1/DTD/svg11.dtd">
<svg version="1.1" xmlns="http://www.w3.org/2000/svg" xmlns:xlink="http://www.w3.org/1999/xlink" width="32" height="32" viewBox="0 0 32 32">
<path fill="#007aff" d="M22.5 24c-0.552 0-1 0.448-1 1s0.448 1 1 1c0.551 0 1-0.448 1-1s-0.449-1-1-1zM22.5 27c-1.103 0-2-0.897-2-2s0.897-2 2-2c1.103 0 2 0.897 2 2s-0.897 2-2 2z"></path>
<path fill="#007aff" d="M13.5 24c-0.552 0-1 0.448-1 1s0.448 1 1 1c0.551 0 1-0.448 1-1s-0.449-1-1-1zM13.5 27c-1.103 0-2-0.897-2-2s0.897-2 2-2c1.103 0 2 0.897 2 2s-0.897 2-2 2z"></path>
<path fill="#007aff" d="M10 5.5c-2.482 0-4.5 2.019-4.5 4.5s2.018 4.5 4.5 4.5c2.482 0 4.5-2.019 4.5-4.5s-2.018-4.5-4.5-4.5zM10 15.5c-3.033 0-5.5-2.467-5.5-5.5s2.467-5.5 5.5-5.5c3.033 0 5.5 2.467 5.5 5.5s-2.467 5.5-5.5 5.5z"></path>
<path fill="#007aff" d="M12.5 11h-3c-0.277 0-0.5-0.224-0.5-0.5v-3c0-0.276 0.223-0.5 0.5-0.5s0.5 0.224 0.5 0.5v2.5h2.5c0.277 0 0.5 0.224 0.5 0.5s-0.223 0.5-0.5 0.5z"></path>
<path fill="#007aff" d="M19.5 22h-10c-0.277 0-0.5-0.224-0.5-0.5s0.223-0.5 0.5-0.5h10c0.276 0 0.5-0.224 0.5-0.5v-10c0-0.275-0.224-0.5-0.5-0.5h-3c-0.276 0-0.5-0.224-0.5-0.5s0.224-0.5 0.5-0.5h3c0.827 0 1.5 0.673 1.5 1.5v10c0 0.827-0.673 1.5-1.5 1.5z"></path>
<path fill="#007aff" d="M26.5 26h-1c-0.276 0-0.5-0.224-0.5-0.5s0.224-0.5 0.5-0.5h1v-4.776c0-0.925-0.438-1.814-1.171-2.378l-5.133-3.95c-0.22-0.168-0.26-0.482-0.092-0.701s0.482-0.261 0.701-0.091l5.134 3.949c0.978 0.752 1.561 1.937 1.561 3.171v4.776c0 0.552-0.449 1-1 1z"></path>
<path fill="#007aff" d="M19.5 26h-3c-0.276 0-0.5-0.224-0.5-0.5s0.224-0.5 0.5-0.5h3c0.276 0 0.5 0.224 0.5 0.5s-0.224 0.5-0.5 0.5z"></path>
<path fill="#007aff" d="M10.5 26h-1c-0.552 0-1-0.448-1-1v-8.5c0-0.276 0.223-0.5 0.5-0.5s0.5 0.224 0.5 0.5v8.5h1c0.277 0 0.5 0.224 0.5 0.5s-0.223 0.5-0.5 0.5z"></path>
<path fill="#007aff" d="M8 20.5h-3.5v-1h3.5v1z"></path>
<path fill="#007aff" d="M8 22h-2v-1h2v1z"></path>
<path fill="#007aff" d="M8 23.5h-1v-1h1v1z"></path>
</svg>
