<?xml version="1.0" encoding="utf-8"?>
<!-- Generated by IcoMoon.io -->
<!DOCTYPE svg PUBLIC "-//W3C//DTD SVG 1.1//EN" "http://www.w3.org/Graphics/SVG/1.1/DTD/svg11.dtd">
<svg version="1.1" xmlns="http://www.w3.org/2000/svg" xmlns:xlink="http://www.w3.org/1999/xlink" width="32" height="32" viewBox="0 0 32 32">
<path fill="#007aff" d="M6 5.5c-0.276 0-0.5 0.224-0.5 0.5v20c0 0.276 0.224 0.5 0.5 0.5h20c0.276 0 0.5-0.224 0.5-0.5v-20c0-0.276-0.224-0.5-0.5-0.5h-20zM26 27.5h-20c-0.827 0-1.5-0.673-1.5-1.5v-20c0-0.827 0.673-1.5 1.5-1.5h20c0.827 0 1.5 0.673 1.5 1.5v20c0 0.827-0.673 1.5-1.5 1.5v0z"></path>
<path fill="#007aff" d="M10 7.5c-0.552 0-1 0.449-1 1s0.448 1 1 1c0.552 0 1-0.448 1-1s-0.448-1-1-1zM10 10.5c-1.103 0-2-0.897-2-2s0.897-2 2-2c1.103 0 2 0.897 2 2s-0.897 2-2 2z"></path>
<path fill="#007aff" d="M10 12.5c-0.552 0-1 0.448-1 1s0.448 1 1 1c0.552 0 1-0.448 1-1s-0.448-1-1-1zM10 15.5c-1.103 0-2-0.897-2-2s0.897-2 2-2c1.103 0 2 0.897 2 2s-0.897 2-2 2z"></path>
<path fill="#007aff" d="M10 22.5c-0.552 0-1 0.448-1 1s0.448 1 1 1c0.552 0 1-0.448 1-1s-0.448-1-1-1zM10 25.5c-1.103 0-2-0.897-2-2s0.897-2 2-2c1.103 0 2 0.897 2 2s-0.897 2-2 2z"></path>
<path fill="#007aff" d="M16 7.5c-0.552 0-1 0.449-1 1s0.448 1 1 1c0.552 0 1-0.448 1-1s-0.448-1-1-1zM16 10.5c-1.103 0-2-0.897-2-2s0.897-2 2-2c1.103 0 2 0.897 2 2s-0.897 2-2 2z"></path>
<path fill="#007aff" d="M16 17.5c-0.552 0-1 0.448-1 1s0.448 1 1 1c0.552 0 1-0.448 1-1s-0.448-1-1-1zM16 20.5c-1.103 0-2-0.897-2-2s0.897-2 2-2c1.103 0 2 0.897 2 2s-0.897 2-2 2z"></path>
<path fill="#007aff" d="M16 22.5c-0.552 0-1 0.448-1 1s0.448 1 1 1c0.552 0 1-0.448 1-1s-0.448-1-1-1zM16 25.5c-1.103 0-2-0.897-2-2s0.897-2 2-2c1.103 0 2 0.897 2 2s-0.897 2-2 2z"></path>
<path fill="#007aff" d="M22 7.5c-0.552 0-1 0.449-1 1s0.448 1 1 1c0.552 0 1-0.448 1-1s-0.448-1-1-1zM22 10.5c-1.103 0-2-0.897-2-2s0.897-2 2-2c1.103 0 2 0.897 2 2s-0.897 2-2 2z"></path>
<path fill="#007aff" d="M22 13.5c-0.552 0-1 0.448-1 1s0.448 1 1 1c0.552 0 1-0.448 1-1s-0.448-1-1-1zM22 16.5c-1.103 0-2-0.897-2-2s0.897-2 2-2c1.103 0 2 0.897 2 2s-0.897 2-2 2z"></path>
<path fill="#007aff" d="M22 18.5c-0.552 0-1 0.448-1 1s0.448 1 1 1c0.552 0 1-0.448 1-1s-0.448-1-1-1zM22 21.5c-1.103 0-2-0.897-2-2s0.897-2 2-2c1.103 0 2 0.897 2 2s-0.897 2-2 2z"></path>
<path fill="#007aff" d="M10.5 7h-1v-2h1v2z"></path>
<path fill="#007aff" d="M10.5 27h-1v-2h1v2z"></path>
<path fill="#007aff" d="M10.5 12h-1v-2h1v2z"></path>
<path fill="#007aff" d="M10.5 22h-1v-7h1v7z"></path>
<path fill="#007aff" d="M16.5 27h-1v-2h1v2z"></path>
<path fill="#007aff" d="M16.5 7h-1v-2h1v2z"></path>
<path fill="#007aff" d="M16.5 22h-1v-2h1v2z"></path>
<path fill="#007aff" d="M16.5 17h-1v-7h1v7z"></path>
<path fill="#007aff" d="M22.5 27h-1v-6h1v6z"></path>
<path fill="#007aff" d="M22.5 7h-1v-2h1v2z"></path>
<path fill="#007aff" d="M22.5 18h-1v-2h1v2z"></path>
<path fill="#007aff" d="M22.5 13h-1v-3h1v3z"></path>
</svg>
