<?xml version="1.0" encoding="utf-8"?>
<!-- Generated by IcoMoon.io -->
<!DOCTYPE svg PUBLIC "-//W3C//DTD SVG 1.1//EN" "http://www.w3.org/Graphics/SVG/1.1/DTD/svg11.dtd">
<svg version="1.1" xmlns="http://www.w3.org/2000/svg" xmlns:xlink="http://www.w3.org/1999/xlink" width="32" height="32" viewBox="0 0 32 32">
<path fill="#007aff" d="M24.5 20.5h-1v-3c0-0.827-0.673-1.5-1.5-1.5h-12c-0.827 0-1.5 0.673-1.5 1.5v3h-1v-3c0-1.378 1.121-2.5 2.5-2.5h12c1.378 0 2.5 1.122 2.5 2.5v3z"></path>
<path fill="#007aff" d="M16.5 20.5h-1v-9h1v9z"></path>
<path fill="#007aff" d="M14 7c-0.276 0-0.5 0.224-0.5 0.5v3c0 0.275 0.224 0.5 0.5 0.5h4c0.276 0 0.5-0.225 0.5-0.5v-3c0-0.276-0.224-0.5-0.5-0.5h-4zM18 12h-4c-0.827 0-1.5-0.673-1.5-1.5v-3c0-0.827 0.673-1.5 1.5-1.5h4c0.827 0 1.5 0.673 1.5 1.5v3c0 0.827-0.673 1.5-1.5 1.5v0z"></path>
<path fill="#007aff" d="M14.5 21c-0.276 0-0.5 0.224-0.5 0.5v2.5c0 0.276 0.224 0.5 0.5 0.5h3c0.276 0 0.5-0.224 0.5-0.5v-2.5c0-0.276-0.224-0.5-0.5-0.5h-3zM17.5 25.5h-3c-0.827 0-1.5-0.673-1.5-1.5v-2.5c0-0.827 0.673-1.5 1.5-1.5h3c0.827 0 1.5 0.673 1.5 1.5v2.5c0 0.827-0.673 1.5-1.5 1.5v0z"></path>
<path fill="#007aff" d="M22.5 21c-0.276 0-0.5 0.224-0.5 0.5v2.5c0 0.276 0.224 0.5 0.5 0.5h3c0.276 0 0.5-0.224 0.5-0.5v-2.5c0-0.276-0.224-0.5-0.5-0.5h-3zM25.5 25.5h-3c-0.827 0-1.5-0.673-1.5-1.5v-2.5c0-0.827 0.673-1.5 1.5-1.5h3c0.827 0 1.5 0.673 1.5 1.5v2.5c0 0.827-0.673 1.5-1.5 1.5v0z"></path>
<path fill="#007aff" d="M6.5 21c-0.276 0-0.5 0.224-0.5 0.5v2.5c0 0.276 0.224 0.5 0.5 0.5h3c0.276 0 0.5-0.224 0.5-0.5v-2.5c0-0.276-0.224-0.5-0.5-0.5h-3zM9.5 25.5h-3c-0.827 0-1.5-0.673-1.5-1.5v-2.5c0-0.827 0.673-1.5 1.5-1.5h3c0.827 0 1.5 0.673 1.5 1.5v2.5c0 0.827-0.673 1.5-1.5 1.5v0z"></path>
</svg>
