<?xml version="1.0" encoding="utf-8"?>
<!-- Generated by IcoMoon.io -->
<!DOCTYPE svg PUBLIC "-//W3C//DTD SVG 1.1//EN" "http://www.w3.org/Graphics/SVG/1.1/DTD/svg11.dtd">
<svg version="1.1" xmlns="http://www.w3.org/2000/svg" xmlns:xlink="http://www.w3.org/1999/xlink" width="32" height="32" viewBox="0 0 32 32">
<path fill="#007aff" d="M8 20.5c-1.103 0-2 0.897-2 2s0.897 2 2 2c1.103 0 2-0.897 2-2s-0.897-2-2-2zM8 25.5c-1.655 0-3-1.346-3-3s1.345-3 3-3c1.655 0 3 1.346 3 3s-1.345 3-3 3z"></path>
<path fill="#007aff" d="M16 20.5c-1.103 0-2 0.897-2 2s0.897 2 2 2c1.103 0 2-0.897 2-2s-0.897-2-2-2zM16 25.5c-1.655 0-3-1.346-3-3s1.345-3 3-3c1.654 0 3 1.346 3 3s-1.346 3-3 3z"></path>
<path fill="#007aff" d="M16 7.5c-1.103 0-2 0.897-2 2s0.897 2 2 2c1.103 0 2-0.897 2-2s-0.897-2-2-2zM16 12.5c-1.655 0-3-1.345-3-3s1.345-3 3-3c1.654 0 3 1.345 3 3s-1.346 3-3 3z"></path>
<path fill="#007aff" d="M24 20.5c-1.103 0-2 0.897-2 2s0.897 2 2 2c1.103 0 2-0.897 2-2s-0.897-2-2-2zM24 25.5c-1.654 0-3-1.346-3-3s1.346-3 3-3c1.654 0 3 1.346 3 3s-1.346 3-3 3z"></path>
<path fill="#007aff" d="M24.5 20h-1v-3c0-0.827-0.673-1.5-1.5-1.5h-12c-0.827 0-1.5 0.673-1.5 1.5v3h-1v-3c0-1.379 1.121-2.5 2.5-2.5h12c1.378 0 2.5 1.121 2.5 2.5v3z"></path>
<path fill="#007aff" d="M16.5 20h-1v-8h1v8z"></path>
</svg>
