<?xml version="1.0" encoding="utf-8"?>
<!-- Generated by IcoMoon.io -->
<!DOCTYPE svg PUBLIC "-//W3C//DTD SVG 1.1//EN" "http://www.w3.org/Graphics/SVG/1.1/DTD/svg11.dtd">
<svg version="1.1" xmlns="http://www.w3.org/2000/svg" xmlns:xlink="http://www.w3.org/1999/xlink" width="32" height="32" viewBox="0 0 32 32">
<path fill="#007aff" d="M16.108 8.5c-3.172 0-5.753 2.495-5.753 5.561v0.97c0 1.422-0.236 2.827-0.7 4.176l-0.588 1.708c-0.119 0.347-0.086 0.715 0.092 1.035 0.186 0.334 0.513 0.574 0.898 0.66 1.307 0.294 3.417 0.645 6.049 0.645 2.615 0 4.732-0.352 6.047-0.648 0.385-0.087 0.712-0.328 0.898-0.662 0.179-0.32 0.212-0.688 0.093-1.035l-0.587-1.705c-0.464-1.349-0.7-2.754-0.7-4.177v-0.97c0-3.066-2.581-5.56-5.753-5.56zM16.108 24.257c-2.724 0-4.913-0.364-6.27-0.67-0.661-0.149-1.226-0.567-1.55-1.148-0.315-0.564-0.375-1.238-0.165-1.848l0.588-1.709c0.428-1.244 0.645-2.54 0.645-3.851v-0.97c0-3.617 3.029-6.561 6.752-6.561s6.753 2.943 6.753 6.561v0.97c0 1.312 0.217 2.607 0.645 3.851l0.587 1.706c0.21 0.61 0.15 1.284-0.165 1.848-0.325 0.581-0.891 1-1.553 1.149-1.364 0.307-3.559 0.672-6.266 0.672z"></path>
<path fill="#007aff" d="M13.868 27c-0.087 0-0.175-0.005-0.262-0.015-0.631-0.070-1.197-0.381-1.594-0.877s-0.577-1.116-0.507-1.746l0.018-0.875 0.999 0.023-0.021 0.918c-0.043 0.409 0.061 0.768 0.29 1.055s0.557 0.467 0.922 0.508c0.759 0.085 1.435-0.462 1.519-1.216l0.104-1.067 0.995 0.097-0.105 1.073c-0.135 1.22-1.166 2.121-2.361 2.121z"></path>
<path fill="#007aff" d="M18.023 8h-1c0-0.551-0.448-1-1-1s-1 0.449-1 1h-1c0-1.103 0.897-2 2-2s2 0.897 2 2z"></path>
<path fill="#007aff" d="M16.023 7c-0.276 0-0.5-0.224-0.5-0.5v-1c0-0.276 0.224-0.5 0.5-0.5s0.5 0.224 0.5 0.5v1c0 0.276-0.224 0.5-0.5 0.5z"></path>
<path fill="#007aff" d="M11.023 21c-0.102 0-0.206-0.031-0.294-0.096-0.223-0.163-0.272-0.476-0.11-0.698 0.502-0.688 0.546-1.971 0.592-3.329 0.095-2.762 0.213-6.2 4.171-7.357 0.264-0.078 0.543 0.075 0.62 0.34s-0.075 0.543-0.34 0.62c-3.264 0.954-3.36 3.738-3.453 6.431-0.052 1.516-0.101 2.948-0.784 3.884-0.098 0.134-0.25 0.206-0.405 0.206z"></path>
</svg>
