<?xml version="1.0" encoding="utf-8"?>
<!-- Generated by IcoMoon.io -->
<!DOCTYPE svg PUBLIC "-//W3C//DTD SVG 1.1//EN" "http://www.w3.org/Graphics/SVG/1.1/DTD/svg11.dtd">
<svg version="1.1" xmlns="http://www.w3.org/2000/svg" xmlns:xlink="http://www.w3.org/1999/xlink" width="32" height="32" viewBox="0 0 32 32">
<path fill="#007aff" d="M12.322 13.673c0.002 0-0.098 0.054-0.143 0.197-0.072 0.229 0.015 0.59 0.246 1.017 0.129 0.082 0.3 0.191 0.399 0.429 0.008 0.018 0.014 0.035 0.018 0.053 0.175 0.605 1.348 2.859 2.924 2.859s2.75-2.255 2.924-2.86c0.061-0.242 0.252-0.363 0.343-0.421 0.050-0.032 0.050-0.034 0.056-0.044 0.346-0.675 0.295-0.988 0.258-1.091-0.035-0.096-0.099-0.127-0.111-0.133-0.221-0.066-0.347-0.268-0.335-0.498 0-0.009 0.046-0.912-0.173-1.738-0.021-0.073-0.567-1.902-2.962-1.902s-2.941 1.829-2.963 1.908c-0.217 0.819-0.172 1.723-0.171 1.732 0.011 0.213-0.114 0.409-0.311 0.49v0zM15.768 19.229c-2.243 0-3.581-2.711-3.851-3.482-0.116-0.075-0.26-0.182-0.37-0.385-0.385-0.711-0.487-1.333-0.303-1.847 0.095-0.262 0.246-0.444 0.385-0.566 0.001-0.38 0.030-1.080 0.211-1.761 0.247-0.917 1.385-2.646 3.928-2.646s3.681 1.729 3.928 2.645c0.177 0.671 0.21 1.36 0.212 1.744 0.137 0.113 0.268 0.27 0.355 0.474 0.218 0.509 0.123 1.167-0.281 1.956-0.113 0.222-0.267 0.338-0.369 0.406-0.298 0.821-1.63 3.463-3.844 3.463v0z"></path>
<path fill="#007aff" d="M22.422 26.5h-12.877c-0.382 0-0.748-0.166-1.030-0.466-0.319-0.338-0.493-0.809-0.467-1.261 0.123-2.105 0.648-4.666 3.63-5.795 1.248-0.471 1.921-1.107 1.927-1.113 0.2-0.19 0.516-0.184 0.707 0.014s0.187 0.513-0.011 0.705c-0.033 0.031-0.813 0.779-2.268 1.329-1.933 0.732-2.826 2.203-2.986 4.918-0.010 0.177 0.067 0.379 0.197 0.517 0.053 0.056 0.164 0.151 0.303 0.151h12.877c0.142 0 0.256-0.099 0.312-0.157 0.126-0.134 0.198-0.32 0.189-0.485-0.167-2.745-1.087-4.288-2.985-5.007-1.442-0.546-2.264-1.25-2.299-1.279-0.208-0.181-0.23-0.497-0.050-0.706 0.18-0.207 0.497-0.23 0.705-0.050 0.018 0.015 0.743 0.626 1.997 1.1 3.002 1.136 3.509 3.901 3.63 5.882 0.027 0.436-0.145 0.896-0.459 1.23-0.287 0.305-0.656 0.472-1.040 0.472z"></path>
<path fill="#007aff" d="M8.934 23h-2.929c-0.787 0-1.488-0.75-1.5-1.605-0.024-1.638-0.058-3.883 2.673-4.916 0.732-0.277 1.418-0.639 1.882-0.906-0.783-0.736-1.454-1.818-1.643-2.313-0.12-0.081-0.26-0.185-0.37-0.389-0.385-0.711-0.487-1.332-0.303-1.847 0.094-0.264 0.247-0.447 0.386-0.569 0-0.38 0.030-1.082 0.21-1.764 0.247-0.917 1.386-2.647 3.928-2.647 2.547 0 3.684 1.816 3.93 2.776 0.069 0.268-0.093 0.54-0.361 0.607-0.268 0.070-0.54-0.093-0.608-0.361-0.021-0.080-0.568-2.022-2.96-2.022-2.394 0-2.94 1.83-2.963 1.908-0.217 0.82-0.172 1.726-0.172 1.735 0.011 0.212-0.113 0.409-0.309 0.489 0.002 0-0.099 0.056-0.144 0.2-0.072 0.23 0.016 0.592 0.246 1.019 0.015 0.015 0.031 0.024 0.045 0.033 0.090 0.060 0.257 0.171 0.354 0.405 0.008 0.018 0.014 0.035 0.018 0.053 0.1 0.346 1.009 1.797 1.852 2.314 0.146 0.089 0.236 0.247 0.239 0.417s-0.081 0.332-0.223 0.426c-0.051 0.034-1.268 0.838-2.68 1.372-1.93 0.73-2.056 2.044-2.027 3.966 0.005 0.301 0.261 0.619 0.5 0.619h2.929c0.276 0 0.5 0.224 0.5 0.5s-0.224 0.5-0.5 0.5z"></path>
<path fill="#007aff" d="M25.708 23h-2.774c-0.276 0-0.5-0.224-0.5-0.5s0.224-0.5 0.5-0.5h2.774c0.239 0 0.496-0.319 0.5-0.619 0.029-1.922-0.096-3.236-2.026-3.966-1.42-0.537-2.643-1.408-2.695-1.445-0.145-0.104-0.224-0.277-0.206-0.455s0.128-0.332 0.291-0.406c0.848-0.386 1.698-1.877 1.798-2.223 0.006-0.018 0.012-0.036 0.018-0.053 0.096-0.233 0.265-0.344 0.354-0.405 0.015-0.009 0.030-0.018 0.045-0.031 0.232-0.428 0.319-0.79 0.247-1.021-0.046-0.146-0.148-0.201-0.159-0.207-0.177-0.089-0.305-0.284-0.294-0.482 0-0.009 0.045-0.914-0.174-1.739-0.020-0.073-0.566-1.904-2.961-1.904-2.38 0-2.861 1.929-2.88 2.010-0.064 0.268-0.332 0.437-0.599 0.374-0.268-0.062-0.436-0.326-0.377-0.595 0.215-0.965 1.299-2.79 3.855-2.79 2.543 0 3.681 1.731 3.928 2.646 0.18 0.682 0.21 1.385 0.212 1.765 0.139 0.121 0.291 0.305 0.385 0.569 0.183 0.514 0.081 1.136-0.303 1.847-0.119 0.223-0.274 0.326-0.369 0.389-0.175 0.473-0.794 1.588-1.613 2.296 0.462 0.281 1.137 0.653 1.851 0.923 2.732 1.034 2.698 3.279 2.673 4.916-0.012 0.855-0.713 1.605-1.5 1.605z"></path>
</svg>
