<?xml version="1.0" encoding="utf-8"?>
<!-- Generated by IcoMoon.io -->
<!DOCTYPE svg PUBLIC "-//W3C//DTD SVG 1.1//EN" "http://www.w3.org/Graphics/SVG/1.1/DTD/svg11.dtd">
<svg version="1.1" xmlns="http://www.w3.org/2000/svg" xmlns:xlink="http://www.w3.org/1999/xlink" width="32" height="32" viewBox="0 0 32 32">
<path fill="#007aff" d="M7.621 22.647c2.105 2.047 5.445 3.353 8.625 3.353 3.184 0 6.528-1.311 8.634-3.362-0.609-0.991-2.002-2.623-3.971-3.3-2.312-0.796-2.66-1.104-2.66-2.358 0-0.221 0.146-0.417 0.359-0.48 0.354-0.104 0.802-0.107 1.323-0.11 0.8-0.004 1.795-0.010 2.136-0.464 0.305-0.408 0.151-0.716-0.404-1.566-0.137-0.21-0.282-0.434-0.421-0.673-1.078-1.858-1.159-2.679-1.252-3.631l-0.019-0.188c-0.241-2.34-1.491-3.609-3.717-3.771-2.227 0.162-3.477 1.431-3.718 3.772l-0.019 0.188c-0.094 0.951-0.175 1.773-1.252 3.631-0.139 0.239-0.284 0.462-0.421 0.672-0.554 0.851-0.708 1.159-0.403 1.567 0.341 0.454 1.337 0.46 2.136 0.464 0.52 0.003 0.97 0.006 1.323 0.11 0.213 0.063 0.358 0.258 0.358 0.48 0 1.253-0.348 1.562-2.66 2.358-1.977 0.681-3.37 2.317-3.976 3.309zM16.245 27c-3.63 0-7.311-1.505-9.608-3.925-0.146-0.154-0.179-0.384-0.082-0.573 0.576-1.122 2.218-3.249 4.717-4.11 1.455-0.501 1.844-0.672 1.947-0.987-0.197-0.012-0.425-0.013-0.65-0.015-1.021-0.006-2.292-0.013-2.93-0.864-0.751-1.001-0.183-1.871 0.366-2.713 0.128-0.197 0.264-0.405 0.393-0.628 0.969-1.671 1.037-2.357 1.122-3.226l0.019-0.193c0.291-2.828 1.953-4.486 4.679-4.67 0.023-0.001 0.045-0.001 0.067 0 2.726 0.184 4.387 1.843 4.678 4.67l0.020 0.193c0.085 0.87 0.152 1.556 1.122 3.226 0.13 0.223 0.265 0.431 0.394 0.629 0.523 0.803 1.116 1.711 0.365 2.713-0.639 0.852-1.909 0.859-2.93 0.864-0.224 0.002-0.454 0.003-0.651 0.015 0.104 0.315 0.492 0.486 1.948 0.987 2.488 0.857 4.131 2.979 4.71 4.098 0.099 0.189 0.066 0.419-0.081 0.573-2.298 2.428-5.983 3.936-9.618 3.936z"></path>
</svg>
