<?xml version="1.0" encoding="utf-8"?>
<!-- Generated by IcoMoon.io -->
<!DOCTYPE svg PUBLIC "-//W3C//DTD SVG 1.1//EN" "http://www.w3.org/Graphics/SVG/1.1/DTD/svg11.dtd">
<svg version="1.1" xmlns="http://www.w3.org/2000/svg" xmlns:xlink="http://www.w3.org/1999/xlink" width="32" height="32" viewBox="0 0 32 32">
<path fill="#007aff" d="M6 18c-0.276 0-0.5 0.224-0.5 0.5v7c0 0.276 0.224 0.5 0.5 0.5h20c0.276 0 0.5-0.224 0.5-0.5v-7c0-0.276-0.224-0.5-0.5-0.5h-20zM26 27h-20c-0.827 0-1.5-0.673-1.5-1.5v-7c0-0.827 0.673-1.5 1.5-1.5h20c0.827 0 1.5 0.673 1.5 1.5v7c0 0.827-0.673 1.5-1.5 1.5v0z"></path>
<path fill="#007aff" d="M7.5 20h-1v-1h1v1z"></path>
<path fill="#007aff" d="M9.5 20h-1v-1h1v1z"></path>
<path fill="#007aff" d="M11.5 20h-1v-1h1v1z"></path>
<path fill="#007aff" d="M13.5 20h-1v-1h1v1z"></path>
<path fill="#007aff" d="M15.5 20h-1v-1h1v1z"></path>
<path fill="#007aff" d="M17.5 20h-1v-1h1v1z"></path>
<path fill="#007aff" d="M19.5 20h-1v-1h1v1z"></path>
<path fill="#007aff" d="M23.5 20h-1v-1h1v1z"></path>
<path fill="#007aff" d="M25.5 20h-1v-1h1v1z"></path>
<path fill="#007aff" d="M7.5 22h-1v-1h1v1z"></path>
<path fill="#007aff" d="M9.5 22h-1v-1h1v1z"></path>
<path fill="#007aff" d="M11.5 22h-1v-1h1v1z"></path>
<path fill="#007aff" d="M13.5 22h-1v-1h1v1z"></path>
<path fill="#007aff" d="M15.5 22h-1v-1h1v1z"></path>
<path fill="#007aff" d="M17.5 22h-1v-1h1v1z"></path>
<path fill="#007aff" d="M19.5 22h-1v-1h1v1z"></path>
<path fill="#007aff" d="M21.5 22h-1v-1h1v1z"></path>
<path fill="#007aff" d="M23.5 22h-1v-1h1v1z"></path>
<path fill="#007aff" d="M25.5 22h-1v-1h1v1z"></path>
<path fill="#007aff" d="M7.5 24h-1v-1h1v1z"></path>
<path fill="#007aff" d="M13.434 24h-4.934v-1h4.934v1z"></path>
<path fill="#007aff" d="M15.5 24h-1v-1h1v1z"></path>
<path fill="#007aff" d="M17.5 24h-1v-1h1v1z"></path>
<path fill="#007aff" d="M19.5 24h-1v-1h1v1z"></path>
<path fill="#007aff" d="M21.5 24h-1v-1h1v1z"></path>
<path fill="#007aff" d="M23.5 24h-1v-1h1v1z"></path>
<path fill="#007aff" d="M25.5 24h-1v-1h1v1z"></path>
<path fill="#007aff" d="M8 17.5h-0.005c-0.277-0.003-0.497-0.23-0.495-0.506 0.001-0.099 0.048-2.463 1.837-4.084 1.245-1.127 2.997-1.599 5.207-1.408 2.562 0.223 4.404-0.129 5.476-1.048 1.254-1.074 1.369-2.809 1.471-4.34l0.010-0.148c0.019-0.276 0.258-0.481 0.532-0.465 0.276 0.019 0.484 0.258 0.465 0.532l-0.010 0.147c-0.11 1.641-0.245 3.684-1.818 5.032-1.302 1.116-3.335 1.535-6.215 1.284-1.922-0.169-3.418 0.22-4.447 1.153-1.47 1.331-1.509 3.334-1.509 3.355-0.003 0.274-0.226 0.494-0.5 0.494z"></path>
</svg>
