<?xml version="1.0" encoding="utf-8"?>
<!-- Generated by IcoMoon.io -->
<!DOCTYPE svg PUBLIC "-//W3C//DTD SVG 1.1//EN" "http://www.w3.org/Graphics/SVG/1.1/DTD/svg11.dtd">
<svg version="1.1" xmlns="http://www.w3.org/2000/svg" xmlns:xlink="http://www.w3.org/1999/xlink" width="32" height="32" viewBox="0 0 32 32">
<path fill="#007aff" d="M14.5 5.5c-3.033 0-5.5 2.467-5.5 5.5v10c0 3.032 2.467 5.5 5.5 5.5h3c3.032 0 5.5-2.468 5.5-5.5v-10c0-3.033-2.468-5.5-5.5-5.5h-3zM17.5 27.5h-3c-3.584 0-6.5-2.916-6.5-6.5v-10c0-3.585 2.916-6.5 6.5-6.5h3c3.584 0 6.5 2.915 6.5 6.5v10c0 3.584-2.916 6.5-6.5 6.5v0z"></path>
<path fill="#007aff" d="M16 9.5c-0.276 0-0.5 0.225-0.5 0.5v2.5c0 0.275 0.224 0.5 0.5 0.5s0.5-0.225 0.5-0.5v-2.5c0-0.275-0.224-0.5-0.5-0.5zM16 14c-0.827 0-1.5-0.673-1.5-1.5v-2.5c0-0.827 0.673-1.5 1.5-1.5s1.5 0.673 1.5 1.5v2.5c0 0.827-0.673 1.5-1.5 1.5z"></path>
</svg>
