<?xml version="1.0" encoding="utf-8"?>
<!-- Generated by IcoMoon.io -->
<!DOCTYPE svg PUBLIC "-//W3C//DTD SVG 1.1//EN" "http://www.w3.org/Graphics/SVG/1.1/DTD/svg11.dtd">
<svg version="1.1" xmlns="http://www.w3.org/2000/svg" xmlns:xlink="http://www.w3.org/1999/xlink" width="32" height="32" viewBox="0 0 32 32">
<path fill="#007aff" d="M25.88 13.748c-0.958 2.227-2.684 4.652-4.861 6.828-2.384 2.384-5.012 4.299-7.399 5.389-1.994 0.912-4.342 0.637-6.112-0.648l4.034-4.034-0.046-0.046c1.128 0.555 2.446 0.648 3.662 0.213 2.268-0.808 5.201-2.538 6.299-6.195 0.392-1.306 0.172-2.698-0.552-3.835l3.975-3.975c1.488 1.758 1.899 4.213 1 6.303v0zM6.016 23.935c-0.689-0.689-0.689-1.809 0-2.498l1.391-1.392c0.333-0.334 0.776-0.517 1.249-0.517s0.915 0.183 1.268 0.535l0.49 0.442c0.088 0.079 0.183 0.145 0.275 0.216l-3.943 3.943-0.73-0.73zM19.805 7.649l1.392-1.391c0.667-0.667 1.821-0.676 2.506 0.010 0.001 0 0.195 0.184 0.482 0.46l-3.901 3.902c-0.009-0.009-0.016-0.020-0.025-0.028l-0.453-0.454c-0.689-0.688-0.689-1.809 0-2.498v0zM25.138 6.255c-0.422-0.407-0.738-0.705-0.738-0.705-0.523-0.522-1.217-0.811-1.956-0.811s-1.433 0.288-1.956 0.811l-1.392 1.391c-1.079 1.079-1.079 2.833 0 3.912l0.454 0.453c0.971 0.971 1.334 2.374 0.948 3.662-0.977 3.257-3.626 4.811-5.676 5.54-1.288 0.459-2.722 0.173-3.739-0.745l-0.472-0.424c-0.522-0.523-1.217-0.81-1.956-0.81s-1.433 0.288-1.955 0.81l-1.392 1.392c-1.078 1.079-1.079 2.833 0 3.912l0.748 0.748c1.378 1.378 3.228 2.11 5.088 2.11 0.983 0 1.97-0.204 2.892-0.625 2.492-1.139 5.223-3.125 7.689-5.591 2.265-2.264 4.066-4.8 5.073-7.14 1.145-2.662 0.477-5.832-1.66-7.888v0z"></path>
</svg>
