<?xml version="1.0" encoding="utf-8"?>
<!-- Generated by IcoMoon.io -->
<!DOCTYPE svg PUBLIC "-//W3C//DTD SVG 1.1//EN" "http://www.w3.org/Graphics/SVG/1.1/DTD/svg11.dtd">
<svg version="1.1" xmlns="http://www.w3.org/2000/svg" xmlns:xlink="http://www.w3.org/1999/xlink" width="32" height="32" viewBox="0 0 32 32">
<path fill="#007aff" d="M18.252 25.88c-2.227-0.958-4.652-2.684-6.828-4.861-2.384-2.384-4.298-5.012-5.389-7.399-0.912-1.994-0.636-4.342 0.649-6.112l4.033 4.034 0.046-0.046c-0.556 1.128-0.648 2.446-0.213 3.662 0.807 2.268 2.537 5.201 6.195 6.299 1.306 0.392 2.698 0.172 3.835-0.552l3.975 3.975c-1.758 1.488-4.213 1.899-6.303 1v0zM8.065 6.016c0.689-0.689 1.809-0.689 2.498 0l1.392 1.391c0.334 0.333 0.517 0.776 0.517 1.249s-0.184 0.915-0.535 1.268l-0.442 0.49c-0.079 0.088-0.145 0.183-0.216 0.275l-3.943-3.943 0.729-0.73zM24.351 19.805l1.392 1.392c0.667 0.667 0.676 1.821-0.009 2.506 0 0.001-0.184 0.195-0.459 0.482l-3.902-3.901c0.009-0.009 0.020-0.016 0.029-0.025l0.453-0.453c0.689-0.689 1.809-0.689 2.497 0v0zM25.745 25.138c0.407-0.422 0.705-0.738 0.705-0.738 0.523-0.523 0.811-1.217 0.811-1.956s-0.288-1.433-0.811-1.956l-1.392-1.392c-1.078-1.079-2.833-1.079-3.912 0l-0.453 0.454c-0.971 0.971-2.374 1.334-3.662 0.948-3.257-0.977-4.811-3.626-5.54-5.676-0.459-1.288-0.173-2.722 0.745-3.739l0.425-0.472c0.523-0.522 0.81-1.217 0.81-1.956s-0.287-1.433-0.81-1.955l-1.392-1.392c-1.079-1.078-2.833-1.079-3.912 0l-0.748 0.748c-1.378 1.378-2.11 3.228-2.11 5.088 0 0.983 0.205 1.97 0.625 2.892 1.138 2.492 3.125 5.223 5.591 7.689 2.264 2.265 4.8 4.066 7.14 5.073 2.663 1.145 5.832 0.477 7.888-1.66v0z"></path>
</svg>
