<?xml version="1.0" encoding="utf-8"?>
<!-- Generated by IcoMoon.io -->
<!DOCTYPE svg PUBLIC "-//W3C//DTD SVG 1.1//EN" "http://www.w3.org/Graphics/SVG/1.1/DTD/svg11.dtd">
<svg version="1.1" xmlns="http://www.w3.org/2000/svg" xmlns:xlink="http://www.w3.org/1999/xlink" width="32" height="32" viewBox="0 0 32 32">
<path fill="#007aff" d="M9 26h14v-19.5c0-0.827-0.673-1.5-1.5-1.5h-11c-0.827 0-1.5 0.673-1.5 1.5v19.5zM23.5 27h-15c-0.277 0-0.5-0.224-0.5-0.5v-20c0-1.378 1.121-2.5 2.5-2.5h11c1.378 0 2.5 1.122 2.5 2.5v20c0 0.276-0.224 0.5-0.5 0.5v0z"></path>
<path fill="#007aff" d="M10.5 28c-0.277 0-0.5-0.224-0.5-0.5v-1c0-0.276 0.223-0.5 0.5-0.5s0.5 0.224 0.5 0.5v1c0 0.276-0.223 0.5-0.5 0.5z"></path>
<path fill="#007aff" d="M21 28c-0.276 0-0.5-0.224-0.5-0.5v-1c0-0.276 0.224-0.5 0.5-0.5s0.5 0.224 0.5 0.5v1c0 0.276-0.224 0.5-0.5 0.5z"></path>
<path fill="#007aff" d="M16 19c-0.552 0-1 0.448-1 1s0.448 1 1 1c0.551 0 1-0.449 1-1s-0.449-1-1-1zM16 22c-1.103 0-2-0.897-2-2s0.897-2 2-2c1.103 0 2 0.897 2 2s-0.897 2-2 2z"></path>
<path fill="#007aff" d="M11.5 9h9v-0.5h-9v0.5zM21 10h-10c-0.277 0-0.5-0.223-0.5-0.5v-1.5c0-0.277 0.223-0.5 0.5-0.5h10c0.276 0 0.5 0.223 0.5 0.5v1.5c0 0.277-0.224 0.5-0.5 0.5v0z"></path>
<path fill="#007aff" d="M21 12h-10c-0.277 0-0.5-0.223-0.5-0.5s0.223-0.5 0.5-0.5h10c0.276 0 0.5 0.223 0.5 0.5s-0.224 0.5-0.5 0.5z"></path>
<path fill="#007aff" d="M20.5 15c-0.276 0-0.5-0.223-0.5-0.5v-1c0-0.277 0.224-0.5 0.5-0.5s0.5 0.223 0.5 0.5v1c0 0.277-0.224 0.5-0.5 0.5z"></path>
<path fill="#007aff" d="M19 15c-0.276 0-0.5-0.223-0.5-0.5v-1c0-0.277 0.224-0.5 0.5-0.5s0.5 0.223 0.5 0.5v1c0 0.277-0.224 0.5-0.5 0.5z"></path>
</svg>
