<?xml version="1.0" encoding="utf-8"?>
<!-- Generated by IcoMoon.io -->
<!DOCTYPE svg PUBLIC "-//W3C//DTD SVG 1.1//EN" "http://www.w3.org/Graphics/SVG/1.1/DTD/svg11.dtd">
<svg version="1.1" xmlns="http://www.w3.org/2000/svg" xmlns:xlink="http://www.w3.org/1999/xlink" width="32" height="32" viewBox="0 0 32 32">
<path fill="#007aff" d="M22 21.5c-0.276 0-0.5 0.224-0.5 0.5s0.224 0.5 0.5 0.5c0.276 0 0.5-0.224 0.5-0.5s-0.224-0.5-0.5-0.5zM22 23.5c-0.827 0-1.5-0.673-1.5-1.5s0.673-1.5 1.5-1.5c0.827 0 1.5 0.673 1.5 1.5s-0.673 1.5-1.5 1.5z"></path>
<path fill="#007aff" d="M22 15.5c-0.276 0-0.5 0.225-0.5 0.5s0.224 0.5 0.5 0.5c0.276 0 0.5-0.224 0.5-0.5s-0.224-0.5-0.5-0.5zM22 17.5c-0.827 0-1.5-0.673-1.5-1.5s0.673-1.5 1.5-1.5c0.827 0 1.5 0.673 1.5 1.5s-0.673 1.5-1.5 1.5z"></path>
<path fill="#007aff" d="M22 9.5c-0.276 0-0.5 0.225-0.5 0.5s0.224 0.5 0.5 0.5c0.276 0 0.5-0.225 0.5-0.5s-0.224-0.5-0.5-0.5zM22 11.5c-0.827 0-1.5-0.673-1.5-1.5s0.673-1.5 1.5-1.5c0.827 0 1.5 0.673 1.5 1.5s-0.673 1.5-1.5 1.5z"></path>
<path fill="#007aff" d="M10 11c-0.277 0-0.5-0.224-0.5-0.5v-1c0-0.276 0.223-0.5 0.5-0.5s0.5 0.224 0.5 0.5v1c0 0.276-0.223 0.5-0.5 0.5z"></path>
<path fill="#007aff" d="M8.5 17c-0.277 0-0.5-0.224-0.5-0.5v-1c0-0.276 0.223-0.5 0.5-0.5s0.5 0.224 0.5 0.5v1c0 0.276-0.223 0.5-0.5 0.5z"></path>
<path fill="#007aff" d="M11.5 17c-0.277 0-0.5-0.224-0.5-0.5v-1c0-0.276 0.223-0.5 0.5-0.5s0.5 0.224 0.5 0.5v1c0 0.276-0.223 0.5-0.5 0.5z"></path>
<path fill="#007aff" d="M10 23c-0.277 0-0.5-0.224-0.5-0.5v-1c0-0.276 0.223-0.5 0.5-0.5s0.5 0.224 0.5 0.5v1c0 0.276-0.223 0.5-0.5 0.5z"></path>
<path fill="#007aff" d="M6.5 19.5c-0.276 0-0.5 0.224-0.5 0.5v4c0 0.276 0.224 0.5 0.5 0.5h19c0.276 0 0.5-0.224 0.5-0.5v-4c0-0.276-0.224-0.5-0.5-0.5h-19zM25.5 25.5h-19c-0.827 0-1.5-0.673-1.5-1.5v-4c0-0.827 0.673-1.5 1.5-1.5h19c0.827 0 1.5 0.673 1.5 1.5v4c0 0.827-0.673 1.5-1.5 1.5v0z"></path>
<path fill="#007aff" d="M6.5 13.5c-0.276 0-0.5 0.225-0.5 0.5v4c0 0.276 0.224 0.5 0.5 0.5h19c0.276 0 0.5-0.224 0.5-0.5v-4c0-0.275-0.224-0.5-0.5-0.5h-19zM25.5 19.5h-19c-0.827 0-1.5-0.673-1.5-1.5v-4c0-0.827 0.673-1.5 1.5-1.5h19c0.827 0 1.5 0.673 1.5 1.5v4c0 0.827-0.673 1.5-1.5 1.5v0z"></path>
<path fill="#007aff" d="M6.5 7.5c-0.276 0-0.5 0.224-0.5 0.5v4c0 0.275 0.224 0.5 0.5 0.5h19c0.276 0 0.5-0.225 0.5-0.5v-4c0-0.276-0.224-0.5-0.5-0.5h-19zM25.5 13.5h-19c-0.827 0-1.5-0.673-1.5-1.5v-4c0-0.827 0.673-1.5 1.5-1.5h19c0.827 0 1.5 0.673 1.5 1.5v4c0 0.827-0.673 1.5-1.5 1.5v0z"></path>
<path fill="#007aff" d="M8.5 11c-0.277 0-0.5-0.224-0.5-0.5v-1c0-0.276 0.223-0.5 0.5-0.5s0.5 0.224 0.5 0.5v1c0 0.276-0.223 0.5-0.5 0.5z"></path>
<path fill="#007aff" d="M11.5 11c-0.277 0-0.5-0.224-0.5-0.5v-1c0-0.276 0.223-0.5 0.5-0.5s0.5 0.224 0.5 0.5v1c0 0.276-0.223 0.5-0.5 0.5z"></path>
<path fill="#007aff" d="M10 17c-0.277 0-0.5-0.224-0.5-0.5v-1c0-0.276 0.223-0.5 0.5-0.5s0.5 0.224 0.5 0.5v1c0 0.276-0.223 0.5-0.5 0.5z"></path>
<path fill="#007aff" d="M8.5 23c-0.277 0-0.5-0.224-0.5-0.5v-1c0-0.276 0.223-0.5 0.5-0.5s0.5 0.224 0.5 0.5v1c0 0.276-0.223 0.5-0.5 0.5z"></path>
<path fill="#007aff" d="M11.5 23c-0.277 0-0.5-0.224-0.5-0.5v-1c0-0.276 0.223-0.5 0.5-0.5s0.5 0.224 0.5 0.5v1c0 0.276-0.223 0.5-0.5 0.5z"></path>
</svg>
