<?xml version="1.0" encoding="utf-8"?>
<!-- Generated by IcoMoon.io -->
<!DOCTYPE svg PUBLIC "-//W3C//DTD SVG 1.1//EN" "http://www.w3.org/Graphics/SVG/1.1/DTD/svg11.dtd">
<svg version="1.1" xmlns="http://www.w3.org/2000/svg" xmlns:xlink="http://www.w3.org/1999/xlink" width="32" height="32" viewBox="0 0 32 32">
<path fill="#007aff" d="M11.129 23.061c0.094 0 0.188 0.026 0.271 0.080 0.866 0.559 1.809 0.951 2.805 1.166 0.197 0.043 0.351 0.201 0.386 0.399l0.252 1.384c0.043 0.238 0.251 0.41 0.492 0.41h1.331c0.242 0 0.448-0.173 0.492-0.411l0.252-1.384c0.036-0.199 0.189-0.357 0.387-0.399 0.995-0.214 1.939-0.607 2.805-1.166 0.17-0.11 0.39-0.107 0.556 0.009l1.16 0.803c0.195 0.134 0.471 0.108 0.638-0.058l0.942-0.941c0.171-0.171 0.195-0.439 0.057-0.638l-0.803-1.16c-0.115-0.166-0.119-0.386-0.009-0.555 0.559-0.866 0.951-1.81 1.166-2.804 0.043-0.198 0.2-0.351 0.399-0.387l1.384-0.252c0.238-0.043 0.41-0.25 0.41-0.491v-1.331c0-0.242-0.172-0.449-0.41-0.492l-1.384-0.251c-0.2-0.037-0.357-0.189-0.399-0.387-0.214-0.994-0.606-1.938-1.166-2.804-0.11-0.17-0.106-0.389 0.009-0.556l0.803-1.16c0.138-0.198 0.113-0.467-0.057-0.638l-0.942-0.941c-0.167-0.166-0.444-0.192-0.639-0.057l-1.16 0.803c-0.166 0.116-0.386 0.12-0.556 0.009-0.866-0.559-1.809-0.952-2.805-1.165-0.198-0.043-0.351-0.2-0.387-0.399l-0.252-1.384c-0.044-0.237-0.25-0.41-0.492-0.41h-1.331c-0.242 0-0.448 0.173-0.492 0.411l-0.252 1.383c-0.036 0.199-0.189 0.357-0.386 0.399-0.995 0.214-1.938 0.606-2.804 1.166-0.17 0.111-0.389 0.107-0.556-0.009l-1.161-0.803c-0.194-0.135-0.472-0.109-0.638 0.057l-0.941 0.941c-0.171 0.171-0.196 0.44-0.057 0.638l0.803 1.16c0.116 0.166 0.119 0.386 0.009 0.556-0.559 0.866-0.951 1.81-1.165 2.804-0.043 0.198-0.2 0.351-0.399 0.387l-1.385 0.251c-0.238 0.043-0.41 0.25-0.41 0.492v1.331c0 0.241 0.173 0.448 0.41 0.492l1.385 0.251c0.199 0.037 0.356 0.189 0.399 0.387 0.215 0.994 0.607 1.938 1.165 2.804 0.11 0.17 0.107 0.389-0.009 0.555l-0.803 1.16c-0.138 0.198-0.114 0.467 0.057 0.638l0.941 0.941c0.166 0.166 0.444 0.192 0.639 0.058l1.16-0.803c0.085-0.059 0.185-0.089 0.284-0.089zM16.665 27.5h-1.331c-0.725 0-1.345-0.518-1.476-1.232l-0.193-1.061c-0.886-0.224-1.731-0.576-2.522-1.049l-0.89 0.617c-0.582 0.402-1.415 0.326-1.915-0.173l-0.941-0.941c-0.513-0.512-0.585-1.318-0.173-1.915l0.617-0.89c-0.473-0.791-0.824-1.637-1.048-2.523l-1.061-0.192c-0.714-0.13-1.232-0.75-1.232-1.476v-1.331c0-0.726 0.518-1.347 1.232-1.476l1.062-0.193c0.223-0.886 0.575-1.731 1.048-2.522l-0.617-0.89c-0.412-0.597-0.34-1.402 0.173-1.915l0.941-0.941c0.499-0.5 1.332-0.575 1.914-0.173l0.891 0.617c0.791-0.473 1.637-0.825 2.522-1.049l0.193-1.061c0.13-0.714 0.751-1.232 1.476-1.232h1.331c0.725 0 1.346 0.518 1.476 1.231l0.193 1.062c0.885 0.224 1.73 0.575 2.522 1.049l0.89-0.617c0.582-0.402 1.416-0.327 1.915 0.173l0.942 0.941c0.513 0.512 0.585 1.317 0.172 1.915l-0.616 0.89c0.473 0.791 0.825 1.637 1.049 2.523l1.061 0.193c0.713 0.13 1.232 0.751 1.232 1.476v1.331c0 0.726-0.518 1.346-1.232 1.476l-1.061 0.193c-0.224 0.885-0.576 1.731-1.049 2.523l0.616 0.89c0.413 0.596 0.34 1.402-0.172 1.915l-0.942 0.941c-0.283 0.283-0.66 0.439-1.061 0.439-0.306 0-0.601-0.093-0.853-0.267l-0.89-0.617c-0.791 0.474-1.637 0.825-2.522 1.049l-0.193 1.061c-0.13 0.714-0.751 1.232-1.476 1.232z"></path>
<path fill="#007aff" d="M16 12.5c-1.93 0-3.5 1.57-3.5 3.5s1.57 3.5 3.5 3.5c1.93 0 3.5-1.57 3.5-3.5s-1.57-3.5-3.5-3.5zM16 20.5c-2.481 0-4.5-2.018-4.5-4.5s2.019-4.5 4.5-4.5c2.481 0 4.5 2.018 4.5 4.5s-2.019 4.5-4.5 4.5z"></path>
</svg>
