<?xml version="1.0" encoding="utf-8"?>
<!-- Generated by IcoMoon.io -->
<!DOCTYPE svg PUBLIC "-//W3C//DTD SVG 1.1//EN" "http://www.w3.org/Graphics/SVG/1.1/DTD/svg11.dtd">
<svg version="1.1" xmlns="http://www.w3.org/2000/svg" xmlns:xlink="http://www.w3.org/1999/xlink" width="32" height="32" viewBox="0 0 32 32">
<path fill="#007aff" d="M23.719 21h-9.982c-0.661 0-1.236-0.424-1.432-1.055l-4.172-13.445h-2.131c-0.277 0-0.5-0.223-0.5-0.5s0.223-0.5 0.5-0.5h2.868l4.391 14.148c0.066 0.21 0.258 0.352 0.477 0.352h9.982c0.23 0 0.429-0.155 0.485-0.379l1.811-7.242c0.067-0.268 0.337-0.432 0.606-0.364s0.431 0.338 0.363 0.606l-1.811 7.242c-0.167 0.669-0.765 1.137-1.455 1.137z"></path>
<path fill="#007aff" d="M15.5 23c-0.827 0-1.5 0.673-1.5 1.5s0.673 1.5 1.5 1.5c0.827 0 1.5-0.673 1.5-1.5s-0.673-1.5-1.5-1.5zM15.5 27c-1.379 0-2.5-1.122-2.5-2.5s1.121-2.5 2.5-2.5c1.378 0 2.5 1.122 2.5 2.5s-1.122 2.5-2.5 2.5z"></path>
<path fill="#007aff" d="M23 23c-0.827 0-1.5 0.673-1.5 1.5s0.673 1.5 1.5 1.5c0.827 0 1.5-0.673 1.5-1.5s-0.673-1.5-1.5-1.5zM23 27c-1.378 0-2.5-1.122-2.5-2.5s1.122-2.5 2.5-2.5c1.378 0 2.5 1.122 2.5 2.5s-1.122 2.5-2.5 2.5z"></path>
<path fill="#007aff" d="M26 15h-14.5c-0.277 0-0.5-0.223-0.5-0.5s0.223-0.5 0.5-0.5h14.5c0.276 0 0.5 0.223 0.5 0.5s-0.224 0.5-0.5 0.5z"></path>
<path fill="#007aff" d="M25.5 17h-13.5c-0.277 0-0.5-0.224-0.5-0.5s0.223-0.5 0.5-0.5h13.5c0.276 0 0.5 0.224 0.5 0.5s-0.224 0.5-0.5 0.5z"></path>
<path fill="#007aff" d="M24.5 19h-11.5c-0.277 0-0.5-0.224-0.5-0.5s0.223-0.5 0.5-0.5h11.5c0.276 0 0.5 0.224 0.5 0.5s-0.224 0.5-0.5 0.5z"></path>
<path fill="#007aff" d="M14.148 12c-0.084 0-0.169-0.021-0.246-0.066-0.241-0.136-0.325-0.442-0.188-0.681l3.075-5.405c0.198-0.348 0.52-0.599 0.907-0.705 0.385-0.106 0.791-0.056 1.139 0.143l4.809 2.736c0.719 0.409 0.971 1.326 0.562 2.046l-0.956 1.679c-0.137 0.241-0.444 0.323-0.681 0.188-0.241-0.136-0.325-0.442-0.188-0.681l0.956-1.68c0.136-0.239 0.052-0.546-0.187-0.682l-4.809-2.736c-0.241-0.136-0.546-0.053-0.682 0.187l-3.075 5.404c-0.092 0.162-0.261 0.253-0.435 0.253z"></path>
<path fill="#007aff" d="M17 12.5c-0.087 0-0.177-0.023-0.257-0.072-0.236-0.142-0.314-0.449-0.171-0.686l3-5c0.142-0.237 0.449-0.314 0.686-0.171s0.314 0.449 0.171 0.686l-3 5c-0.093 0.156-0.259 0.242-0.429 0.242z"></path>
</svg>
