<?xml version="1.0" encoding="utf-8"?>
<!-- Generated by IcoMoon.io -->
<!DOCTYPE svg PUBLIC "-//W3C//DTD SVG 1.1//EN" "http://www.w3.org/Graphics/SVG/1.1/DTD/svg11.dtd">
<svg version="1.1" xmlns="http://www.w3.org/2000/svg" xmlns:xlink="http://www.w3.org/1999/xlink" width="32" height="32" viewBox="0 0 32 32">
<path fill="#007aff" d="M22.969 20.5h-9.982c-0.662 0-1.237-0.424-1.432-1.055l-4.173-13.444h-2.131c-0.277 0-0.5-0.223-0.5-0.5s0.223-0.5 0.5-0.5h2.868l4.391 14.148c0.065 0.211 0.257 0.352 0.477 0.352h9.982c0.23 0 0.43-0.155 0.485-0.379l1.811-7.242c0.067-0.268 0.34-0.431 0.607-0.364 0.268 0.067 0.431 0.338 0.364 0.606l-1.811 7.243c-0.168 0.669-0.766 1.137-1.456 1.137z"></path>
<path fill="#007aff" d="M14.75 22.5c-0.827 0-1.5 0.673-1.5 1.5s0.673 1.5 1.5 1.5c0.827 0 1.5-0.673 1.5-1.5s-0.673-1.5-1.5-1.5zM14.75 26.5c-1.379 0-2.5-1.122-2.5-2.5s1.121-2.5 2.5-2.5c1.378 0 2.5 1.122 2.5 2.5s-1.122 2.5-2.5 2.5z"></path>
<path fill="#007aff" d="M22.25 22.5c-0.827 0-1.5 0.673-1.5 1.5s0.673 1.5 1.5 1.5c0.827 0 1.5-0.673 1.5-1.5s-0.673-1.5-1.5-1.5zM22.25 26.5c-1.378 0-2.5-1.122-2.5-2.5s1.122-2.5 2.5-2.5c1.378 0 2.5 1.122 2.5 2.5s-1.122 2.5-2.5 2.5z"></path>
<path fill="#007aff" d="M25.25 14.5h-12c-0.276 0-0.5-0.223-0.5-0.5s0.224-0.5 0.5-0.5h12c0.276 0 0.5 0.223 0.5 0.5s-0.224 0.5-0.5 0.5z"></path>
</svg>
