<?xml version="1.0" encoding="utf-8"?>
<!-- Generated by IcoMoon.io -->
<!DOCTYPE svg PUBLIC "-//W3C//DTD SVG 1.1//EN" "http://www.w3.org/Graphics/SVG/1.1/DTD/svg11.dtd">
<svg version="1.1" xmlns="http://www.w3.org/2000/svg" xmlns:xlink="http://www.w3.org/1999/xlink" width="32" height="32" viewBox="0 0 32 32">
<path fill="#007aff" d="M23.719 20.5h-9.982c-0.662 0-1.237-0.424-1.432-1.055l-4.172-13.444h-2.131c-0.277 0-0.5-0.223-0.5-0.5s0.223-0.5 0.5-0.5h2.868l4.391 14.148c0.065 0.211 0.257 0.352 0.477 0.352h9.982c0.23 0 0.43-0.155 0.485-0.379l1.811-7.242c0.067-0.268 0.34-0.431 0.607-0.364 0.268 0.067 0.431 0.338 0.364 0.606l-1.811 7.243c-0.168 0.669-0.766 1.137-1.456 1.137z"></path>
<path fill="#007aff" d="M15.5 22.5c-0.827 0-1.5 0.673-1.5 1.5s0.673 1.5 1.5 1.5c0.827 0 1.5-0.673 1.5-1.5s-0.673-1.5-1.5-1.5zM15.5 26.5c-1.379 0-2.5-1.122-2.5-2.5s1.121-2.5 2.5-2.5c1.378 0 2.5 1.122 2.5 2.5s-1.122 2.5-2.5 2.5z"></path>
<path fill="#007aff" d="M23 22.5c-0.827 0-1.5 0.673-1.5 1.5s0.673 1.5 1.5 1.5c0.827 0 1.5-0.673 1.5-1.5s-0.673-1.5-1.5-1.5zM23 26.5c-1.378 0-2.5-1.122-2.5-2.5s1.122-2.5 2.5-2.5c1.378 0 2.5 1.122 2.5 2.5s-1.122 2.5-2.5 2.5z"></path>
<path fill="#007aff" d="M26 14.5h-12c-0.276 0-0.5-0.223-0.5-0.5s0.224-0.5 0.5-0.5h12c0.276 0 0.5 0.223 0.5 0.5s-0.224 0.5-0.5 0.5z"></path>
<path fill="#007aff" d="M23 14.5c-0.198 0-0.386-0.118-0.465-0.315-0.102-0.257 0.022-0.547 0.279-0.65l1.454-0.582c0.134-0.053 0.236-0.159 0.285-0.295s0.038-0.281-0.032-0.408l-2.029-3.721c-0.123-0.226-0.395-0.319-0.631-0.223l-4.18 1.742c-0.13 0.054-0.227 0.155-0.276 0.287s-0.041 0.273 0.021 0.398l1.521 3.042c0.123 0.247 0.023 0.547-0.224 0.671s-0.547 0.023-0.671-0.224l-1.521-3.042c-0.186-0.37-0.209-0.806-0.064-1.194s0.447-0.703 0.829-0.861l4.18-1.742c0.712-0.295 1.526-0.010 1.894 0.666l2.029 3.721c0.206 0.376 0.24 0.822 0.095 1.226s-0.456 0.726-0.855 0.886l-1.454 0.582c-0.061 0.024-0.123 0.036-0.186 0.036z"></path>
<path fill="#007aff" d="M14 14.5c-0.276 0-0.5-0.223-0.5-0.5v-2.5c0-0.552 0.448-1 1-1h2.5c0.276 0 0.5 0.223 0.5 0.5s-0.224 0.5-0.5 0.5h-2.5v2.5c0 0.277-0.224 0.5-0.5 0.5z"></path>
<path fill="#007aff" d="M15.5 11.5c-0.276 0-0.5-0.223-0.5-0.5v-3c0-0.551 0.448-1 1-1h2.5c0.552 0 1 0.449 1 1v0.5c0 0.277-0.224 0.5-0.5 0.5s-0.5-0.223-0.5-0.5v-0.5h-2.5v3c0 0.277-0.224 0.5-0.5 0.5z"></path>
</svg>
