<?xml version="1.0" encoding="utf-8"?>
<!-- Generated by IcoMoon.io -->
<!DOCTYPE svg PUBLIC "-//W3C//DTD SVG 1.1//EN" "http://www.w3.org/Graphics/SVG/1.1/DTD/svg11.dtd">
<svg version="1.1" xmlns="http://www.w3.org/2000/svg" xmlns:xlink="http://www.w3.org/1999/xlink" width="32" height="32" viewBox="0 0 32 32">
<path fill="#007aff" d="M16.5 24h-1v-13h1v13z"></path>
<path fill="#007aff" d="M12.501 24.039l-1-13 0.997-0.077 1 13-0.997 0.077z"></path>
<path fill="#007aff" d="M19.499 24.039l-0.997-0.077 1-13 0.997 0.077-1 13z"></path>
<path fill="#007aff" d="M20.649 27.5h-9.299c-1.026 0-1.881-0.77-1.989-1.79l-1.859-17.658 0.994-0.104 1.858 17.657c0.055 0.51 0.482 0.895 0.995 0.895h9.299c0.513 0 0.941-0.385 0.995-0.895l1.858-17.657 0.994 0.104-1.858 17.657c-0.108 1.021-0.963 1.791-1.989 1.791z"></path>
<path fill="#007aff" d="M25 8.5h-18v-1h18v1z"></path>
<path fill="#007aff" d="M20.5 7.5h-1v-1c0-0.276-0.224-0.5-0.5-0.5h-6c-0.276 0-0.5 0.224-0.5 0.5v1h-1v-1c0-0.827 0.673-1.5 1.5-1.5h6c0.827 0 1.5 0.673 1.5 1.5v1z"></path>
</svg>
