<?xml version="1.0" encoding="utf-8"?>
<!-- Generated by IcoMoon.io -->
<!DOCTYPE svg PUBLIC "-//W3C//DTD SVG 1.1//EN" "http://www.w3.org/Graphics/SVG/1.1/DTD/svg11.dtd">
<svg version="1.1" xmlns="http://www.w3.org/2000/svg" xmlns:xlink="http://www.w3.org/1999/xlink" width="32" height="32" viewBox="0 0 32 32">
<path fill="#1786ff" d="M15.808 15.808h-7.064c-0.245 0-0.442 0.198-0.442 0.442s0.198 0.442 0.442 0.442h7.064v7.064c0 0.245 0.198 0.442 0.442 0.442 0.122 0 0.233-0.049 0.313-0.129s0.129-0.191 0.129-0.313v-7.064h7.064c0.245 0 0.442-0.198 0.442-0.442s-0.198-0.442-0.442-0.442h-7.064v-7.064c0-0.245-0.198-0.442-0.442-0.442-0.122 0-0.233 0.049-0.313 0.129s-0.129 0.191-0.129 0.313v7.064z"></path>
</svg>
