<?xml version="1.0" encoding="utf-8"?>
<!-- Generated by IcoMoon.io -->
<!DOCTYPE svg PUBLIC "-//W3C//DTD SVG 1.1//EN" "http://www.w3.org/Graphics/SVG/1.1/DTD/svg11.dtd">
<svg version="1.1" xmlns="http://www.w3.org/2000/svg" xmlns:xlink="http://www.w3.org/1999/xlink" width="32" height="32" viewBox="0 0 32 32">
<path fill="#1786ff" d="M15.423 15.423h-9.214c-0.319 0-0.577 0.258-0.577 0.577s0.258 0.577 0.577 0.577h9.214v9.214c0 0.319 0.258 0.577 0.577 0.577 0.159 0 0.303-0.064 0.408-0.169s0.169-0.249 0.169-0.408v-9.214h9.214c0.319 0 0.577-0.258 0.577-0.577s-0.258-0.577-0.577-0.577h-9.214v-9.214c0-0.319-0.258-0.577-0.577-0.577-0.159 0-0.303 0.064-0.408 0.169s-0.169 0.249-0.169 0.408v9.214z"></path>
</svg>
