<?xml version="1.0" encoding="utf-8"?>
<!-- Generated by IcoMoon.io -->
<!DOCTYPE svg PUBLIC "-//W3C//DTD SVG 1.1//EN" "http://www.w3.org/Graphics/SVG/1.1/DTD/svg11.dtd">
<svg version="1.1" xmlns="http://www.w3.org/2000/svg" xmlns:xlink="http://www.w3.org/1999/xlink" width="32" height="32" viewBox="0 0 32 32">
<path fill="#2e92ff" d="M14.999 21c-0.191 0-0.384-0.055-0.554-0.168l-3-2c-0.46-0.306-0.584-0.927-0.277-1.387 0.306-0.46 0.926-0.585 1.386-0.277l2.263 1.508 5.423-6.327c0.361-0.418 0.992-0.467 1.41-0.108 0.42 0.359 0.468 0.99 0.109 1.41l-6 7c-0.196 0.229-0.477 0.349-0.76 0.349z"></path>
<path fill="#2e92ff" d="M16.25 5.5c-2.873 0-5.574 1.118-7.605 3.149-4.193 4.191-4.193 11.011 0 15.203 2.031 2.030 4.732 3.148 7.605 3.148s5.574-1.118 7.605-3.148c4.193-4.191 4.193-11.011 0-15.203-2.031-2.030-4.732-3.149-7.605-3.149zM16.25 28c-3.14 0-6.092-1.222-8.313-3.442-4.583-4.582-4.583-12.036 0-16.617 2.22-2.22 5.173-3.441 8.313-3.441s6.092 1.222 8.313 3.441c4.583 4.582 4.583 12.035 0 16.617-2.22 2.22-5.173 3.442-8.313 3.442z"></path>
</svg>
