<?xml version="1.0" encoding="utf-8"?>
<!-- Generated by IcoMoon.io -->
<!DOCTYPE svg PUBLIC "-//W3C//DTD SVG 1.1//EN" "http://www.w3.org/Graphics/SVG/1.1/DTD/svg11.dtd">
<svg version="1.1" xmlns="http://www.w3.org/2000/svg" xmlns:xlink="http://www.w3.org/1999/xlink" width="32" height="32" viewBox="0 0 32 32">
<path fill="#1786ff" d="M16 21.5c-0.276 0-0.5-0.224-0.5-0.5v-14.5c0-0.277 0.224-0.5 0.5-0.5s0.5 0.223 0.5 0.5v14.5c0 0.276-0.224 0.5-0.5 0.5z"></path>
<path fill="#1786ff" d="M16 21.5c-0.128 0-0.256-0.049-0.354-0.146l-5.657-5.657c-0.195-0.195-0.195-0.512 0-0.707s0.512-0.195 0.707 0l5.303 5.303 5.303-5.303c0.195-0.195 0.512-0.195 0.707 0s0.195 0.512 0 0.707l-5.657 5.657c-0.098 0.098-0.226 0.146-0.354 0.146z"></path>
<path fill="#1786ff" d="M23 25.5h-14c-1.378 0-2.5-1.122-2.5-2.5v-3c0-0.276 0.224-0.5 0.5-0.5s0.5 0.224 0.5 0.5v3c0 0.827 0.673 1.5 1.5 1.5h14c0.827 0 1.5-0.673 1.5-1.5v-3c0-0.276 0.224-0.5 0.5-0.5s0.5 0.224 0.5 0.5v3c0 1.378-1.122 2.5-2.5 2.5z"></path>
</svg>
