<?xml version="1.0" encoding="utf-8"?>
<!-- Generated by IcoMoon.io -->
<!DOCTYPE svg PUBLIC "-//W3C//DTD SVG 1.1//EN" "http://www.w3.org/Graphics/SVG/1.1/DTD/svg11.dtd">
<svg version="1.1" xmlns="http://www.w3.org/2000/svg" xmlns:xlink="http://www.w3.org/1999/xlink" width="32" height="32" viewBox="0 0 32 32">
<path fill="#1f8aff" d="M16 5.5c-5.79 0-10.5 4.71-10.5 10.5s4.71 10.5 10.5 10.5c5.79 0 10.5-4.71 10.5-10.5s-4.71-10.5-10.5-10.5zM16 27.5c-6.341 0-11.5-5.159-11.5-11.5s5.159-11.5 11.5-11.5c6.341 0 11.5 5.159 11.5 11.5s-5.159 11.5-11.5 11.5z"></path>
<path fill="#1f8aff" d="M13.003 11.136c-0.242 0-0.503 0.191-0.503 0.502v8.726c0 0.432 0.475 0.614 0.774 0.419l6.672-4.363c0.144-0.095 0.227-0.247 0.227-0.419s-0.082-0.324-0.227-0.418l-6.672-4.364c-0.085-0.055-0.176-0.083-0.271-0.083zM13.003 21.864c-0.829 0-1.503-0.674-1.503-1.502v-8.726c0-0.828 0.675-1.502 1.503-1.502 0.289 0 0.572 0.085 0.818 0.246l6.672 4.363c0.425 0.278 0.68 0.747 0.68 1.255s-0.255 0.978-0.68 1.255l-6.672 4.363c-0.246 0.161-0.529 0.246-0.818 0.246z"></path>
</svg>
