<?xml version="1.0" encoding="utf-8"?>
<!-- Generated by IcoMoon.io -->
<!DOCTYPE svg PUBLIC "-//W3C//DTD SVG 1.1//EN" "http://www.w3.org/Graphics/SVG/1.1/DTD/svg11.dtd">
<svg version="1.1" xmlns="http://www.w3.org/2000/svg" xmlns:xlink="http://www.w3.org/1999/xlink" width="32" height="32" viewBox="0 0 32 32">
<path fill="#1f8aff" d="M16 5.5c-5.79 0-10.5 4.71-10.5 10.5s4.71 10.5 10.5 10.5c5.79 0 10.5-4.71 10.5-10.5s-4.71-10.5-10.5-10.5zM16 27.5c-6.341 0-11.5-5.159-11.5-11.5s5.159-11.5 11.5-11.5c6.341 0 11.5 5.159 11.5 11.5s-5.159 11.5-11.5 11.5z"></path>
<path fill="#1f8aff" d="M16 11c-2.757 0-5 2.243-5 5s2.243 5 5 5c2.757 0 5-2.243 5-5s-2.243-5-5-5zM16 22c-3.309 0-6-2.692-6-6s2.691-6 6-6c3.308 0 6 2.691 6 6s-2.692 6-6 6z"></path>
</svg>
