<?xml version="1.0" encoding="utf-8"?>
<!-- Generated by IcoMoon.io -->
<!DOCTYPE svg PUBLIC "-//W3C//DTD SVG 1.1//EN" "http://www.w3.org/Graphics/SVG/1.1/DTD/svg11.dtd">
<svg version="1.1" xmlns="http://www.w3.org/2000/svg" xmlns:xlink="http://www.w3.org/1999/xlink" width="32" height="32" viewBox="0 0 32 32">
<path fill="#007aff" d="M26 23.896c0 0.884-0.72 1.604-1.604 1.604h-16.792c-0.885 0-1.604-0.72-1.604-1.604v-8.105l8.827 2.407c0.384 0.105 0.778 0.157 1.173 0.157s0.789-0.052 1.173-0.157l8.827-2.408v8.105zM5.5 10c0-0.275 0.224-0.5 0.5-0.5h20c0.276 0 0.5 0.225 0.5 0.5v4.618l-9.59 2.615c-0.595 0.163-1.224 0.163-1.819 0l-9.591-2.616v-4.618zM13.5 7.539c0-0.298 0.242-0.539 0.539-0.539h3.922c0.297 0 0.539 0.242 0.539 0.539v0.961h-5v-0.961zM26 8.5h-6.5v-0.961c0-0.848-0.691-1.539-1.539-1.539h-3.922c-0.848 0-1.539 0.691-1.539 1.539v0.961h-6.5c-0.827 0-1.5 0.673-1.5 1.5v5c0 0.226 0.151 0.423 0.369 0.482l0.131 0.036v8.378c0 1.436 1.168 2.604 2.604 2.604h16.792c1.436 0 2.604-1.168 2.604-2.604v-8.377l0.131-0.036c0.218-0.059 0.369-0.257 0.369-0.482v-5c0-0.827-0.673-1.5-1.5-1.5v0z"></path>
<path fill="#007aff" d="M15.5 13.5c0-0.275 0.225-0.5 0.5-0.5s0.5 0.225 0.5 0.5c0 0.275-0.224 0.5-0.5 0.5s-0.5-0.225-0.5-0.5zM17.5 13.5c0-0.827-0.673-1.5-1.5-1.5s-1.5 0.673-1.5 1.5c0 0.827 0.673 1.5 1.5 1.5s1.5-0.673 1.5-1.5z"></path>
</svg>
